SplineFontDB: 3.2
FontName: Bombardier
FullName: Bombardier
FamilyName: Bombardier
Weight: Book
Copyright: 2002, Apostrophic Labs. All rights reserved. www.apostrophiclab.com
Version: 1.0;
ItalicAngle: 0
UnderlinePosition: -143
UnderlineWidth: 20
Ascent: 800
Descent: 200
InvalidEm: 0
sfntRevision: 0x00010000
LayerCount: 2
Layer: 0 1 "+BBcEMAQ0BD0EVgQ5 +BD8EOwQwBD0A" 1
Layer: 1 1 "+BB8ENQRABDUENAQ9BFYEOQAA +BD8EOwQwBD0A" 0
XUID: [1021 512 -518635798 3540]
StyleMap: 0x0040
FSType: 0
OS2Version: 1
OS2_WeightWidthSlopeOnly: 0
OS2_UseTypoMetrics: 0
CreationTime: 1034962817
ModificationTime: 1689716707
PfmFamily: 17
TTFWeight: 400
TTFWidth: 5
LineGap: 25
VLineGap: 0
Panose: 2 0 5 6 2 0 0 2 0 4
OS2TypoAscent: 680
OS2TypoAOffset: 0
OS2TypoDescent: -160
OS2TypoDOffset: 0
OS2TypoLinegap: 49
OS2WinAscent: 858
OS2WinAOffset: 0
OS2WinDescent: 200
OS2WinDOffset: 0
HheadAscent: 858
HheadAOffset: 0
HheadDescent: -200
HheadDOffset: 0
OS2SubXSize: 1433
OS2SubYSize: 1331
OS2SubXOff: 0
OS2SubYOff: 286
OS2SupXSize: 1433
OS2SupYSize: 1331
OS2SupXOff: 0
OS2SupYOff: 976
OS2StrikeYSize: 50
OS2StrikeYPos: 250
OS2FamilyClass: 2063
OS2Vendor: 'APOS'
OS2CodePages: 20000111.00000000
OS2UnicodeRanges: 80000027.00000000.00000000.00000000
Lookup: 258 0 0 "'kern' +BBMEPgRABDgENwQ+BD0EQgQwBDsETAQ9BDgEOQAA +BDoENQRABD0EVgQ9BJEA +BEMA +BBsEMARCBDgEPQRBBEwEOgQw, +BEQEVgQ7BEwEQgRABEMEMgQwBD0EPQRP 0" { "+BB8EVgQ0BEIEMAQxBDsEOARGBE8A 'kern' +BBMEPgRABDgENwQ+BD0EQgQwBDsETAQ9BDgEOQAA +BDoENQRABD0EVgQ9BJEA +BEMA +BBsEMARCBDgEPQRBBEwEOgQw, +BEQEVgQ7BEwEQgRABEMEMgQwBD0EPQRP 0"  } ['kern' ('latn' <'dflt' > ) ]
DEI: 91125
ShortTable: maxp 16
  1
  0
  310
  43
  7
  0
  0
  1
  0
  0
  0
  0
  0
  0
  0
  0
EndShort
LangName: 1033 "" "" "Regular" "Apostrophe: Bombardier: 2002" "" "1.0;" "" "" "" "Apostrophe" "" "www.apostrophiclab.com" "www.apostrophiclab.com" "" "" "" "Bombardier" "Regular" "Bombardier"
Encoding: UnicodeBmp
UnicodeInterp: none
NameList: AGL For New Fonts
DisplaySize: -48
AntiAlias: 1
FitToEm: 0

StartChar: exclam
Encoding: 33 33 4
Width: 236
GlyphClass: 1
Flags: W
LayerCount: 2
Fore
SplineSet
196 640 m 1,0,-1
 40 640 l 1,1,-1
 74 183 l 1,2,-1
 161 183 l 1,3,-1
 196 640 l 1,0,-1
178 0 m 1,4,-1
 178 120 l 1,5,-1
 58 120 l 1,6,-1
 58 0 l 1,7,-1
 178 0 l 1,4,-1
EndSplineSet
EndChar

StartChar: quotedbl
Encoding: 34 34 5
Width: 343
GlyphClass: 1
Flags: W
LayerCount: 2
Fore
SplineSet
293 640 m 1,0,-1
 182 640 l 1,1,-1
 201 393 l 1,2,-1
 274 393 l 1,3,-1
 293 640 l 1,0,-1
161 640 m 1,4,-1
 50 640 l 1,5,-1
 69 393 l 1,6,-1
 142 393 l 1,7,-1
 161 640 l 1,4,-1
EndSplineSet
EndChar

StartChar: numbersign
Encoding: 35 35 6
Width: 534
GlyphClass: 1
Flags: W
LayerCount: 2
Fore
SplineSet
484 189 m 1,0,-1
 484 261 l 1,1,-1
 379 261 l 1,2,-1
 401 383 l 1,3,-1
 484 383 l 1,4,-1
 484 455 l 1,5,-1
 414 455 l 1,6,-1
 447 640 l 1,7,-1
 375 640 l 1,8,-1
 341 455 l 1,9,-1
 248 455 l 1,10,-1
 281 640 l 1,11,-1
 209 640 l 1,12,-1
 175 455 l 1,13,-1
 50 455 l 1,14,-1
 50 383 l 1,15,-1
 162 383 l 1,16,-1
 140 261 l 1,17,-1
 50 261 l 1,18,-1
 50 189 l 1,19,-1
 126 189 l 1,20,-1
 92 0 l 1,21,-1
 166 0 l 1,22,-1
 200 189 l 1,23,-1
 292 189 l 1,24,-1
 258 0 l 1,25,-1
 332 0 l 1,26,-1
 366 189 l 1,27,-1
 484 189 l 1,0,-1
328 383 m 1,28,-1
 306 261 l 1,29,-1
 213 261 l 1,30,-1
 235 383 l 1,31,-1
 328 383 l 1,28,-1
EndSplineSet
EndChar

StartChar: dollar
Encoding: 36 36 7
Width: 468
GlyphClass: 1
Flags: W
LayerCount: 2
Fore
SplineSet
418 144 m 1,0,-1
 418 296 l 1,1,-1
 338 376 l 1,2,-1
 166 376 l 1,3,-1
 166 477 l 1,4,-1
 418 477 l 1,5,-1
 418 503 l 1,6,-1
 338 583 l 1,7,-1
 278 583 l 1,8,-1
 278 645 l 1,9,-1
 190 644 l 1,10,-1
 190 583 l 1,11,-1
 130 583 l 1,12,-1
 50 503 l 1,13,-1
 50 346 l 1,14,-1
 130 266 l 1,15,-1
 302 266 l 1,16,-1
 302 170 l 1,17,-1
 50 170 l 1,18,-1
 50 144 l 1,19,-1
 130 64 l 1,20,-1
 190 64 l 1,21,-1
 190 0 l 1,22,-1
 278 0 l 1,23,-1
 278 64 l 1,24,-1
 338 64 l 1,25,-1
 418 144 l 1,0,-1
EndSplineSet
EndChar

StartChar: percent
Encoding: 37 37 8
Width: 658
GlyphClass: 1
Flags: W
LayerCount: 2
Fore
SplineSet
292 400 m 1,0,-1
 292 574 l 1,1,-1
 228 638 l 1,2,-1
 103 638 l 1,3,-1
 39 574 l 1,4,-1
 39 400 l 1,5,-1
 103 336 l 1,6,-1
 228 336 l 1,7,-1
 292 400 l 1,0,-1
200 424 m 1,8,-1
 131 424 l 1,9,-1
 131 550 l 1,10,-1
 200 550 l 1,11,-1
 200 424 l 1,8,-1
500 449 m 1,12,-1
 444 496 l 1,13,-1
 167 205 l 1,14,-1
 222 158 l 1,15,-1
 500 449 l 1,12,-1
622 63 m 1,16,-1
 622 237 l 1,17,-1
 558 301 l 1,18,-1
 433 301 l 1,19,-1
 369 237 l 1,20,-1
 369 63 l 1,21,-1
 433 -1 l 1,22,-1
 558 -1 l 1,23,-1
 622 63 l 1,16,-1
530 87 m 1,24,-1
 461 87 l 1,25,-1
 461 213 l 1,26,-1
 530 213 l 1,27,-1
 530 87 l 1,24,-1
EndSplineSet
EndChar

StartChar: quotesingle
Encoding: 39 39 9
Width: 211
GlyphClass: 1
Flags: W
LayerCount: 2
Fore
SplineSet
161 640 m 1,0,-1
 50 640 l 1,1,-1
 69 393 l 1,2,-1
 142 393 l 1,3,-1
 161 640 l 1,0,-1
EndSplineSet
EndChar

StartChar: parenleft
Encoding: 40 40 10
Width: 287
GlyphClass: 1
Flags: W
LayerCount: 2
Fore
SplineSet
257 -81 m 1,0,-1
 169 0 l 1,1,-1
 169 604 l 1,2,-1
 255 683 l 1,3,-1
 181 761 l 1,4,-1
 60 640 l 1,5,-1
 60 -36 l 1,6,-1
 181 -157 l 1,7,-1
 257 -81 l 1,0,-1
EndSplineSet
EndChar

StartChar: parenright
Encoding: 41 41 11
Width: 287
GlyphClass: 1
Flags: W
LayerCount: 2
Fore
SplineSet
227 -36 m 1,0,-1
 227 640 l 1,1,-1
 106 761 l 1,2,-1
 32 683 l 1,3,-1
 118 604 l 1,4,-1
 118 0 l 1,5,-1
 30 -81 l 1,6,-1
 106 -157 l 1,7,-1
 227 -36 l 1,0,-1
EndSplineSet
EndChar

StartChar: asterisk
Encoding: 42 42 12
Width: 467
GlyphClass: 1
Flags: W
LayerCount: 2
Fore
SplineSet
424 471 m 1,0,-1
 397 555 l 1,1,-1
 280 517 l 1,2,-1
 280 640 l 1,3,-1
 192 640 l 1,4,-1
 192 517 l 1,5,-1
 74 555 l 1,6,-1
 47 471 l 1,7,-1
 165 433 l 1,8,-1
 92 333 l 1,9,-1
 163 281 l 1,10,-1
 236 381 l 1,11,-1
 309 281 l 1,12,-1
 380 333 l 1,13,-1
 307 433 l 1,14,-1
 424 471 l 1,0,-1
EndSplineSet
EndChar

StartChar: plus
Encoding: 43 43 13
Width: 488
GlyphClass: 1
Flags: W
LayerCount: 2
Fore
SplineSet
443 237 m 1,0,-1
 443 343 l 1,1,-1
 297 343 l 1,2,-1
 297 488 l 1,3,-1
 191 488 l 1,4,-1
 191 343 l 1,5,-1
 45 343 l 1,6,-1
 45 237 l 1,7,-1
 191 237 l 1,8,-1
 191 91 l 1,9,-1
 297 91 l 1,10,-1
 297 237 l 1,11,-1
 443 237 l 1,0,-1
EndSplineSet
EndChar

StartChar: comma
Encoding: 44 44 14
Width: 213
GlyphClass: 1
Flags: W
LayerCount: 2
Fore
SplineSet
180 131 m 1,0,-1
 44 131 l 1,1,-1
 44 -141 l 1,2,-1
 110 -141 l 1,3,-1
 180 131 l 1,0,-1
EndSplineSet
EndChar

StartChar: hyphen
Encoding: 45 45 15
AltUni2: 0000ad.ffffffff.0
Width: 380
GlyphClass: 1
Flags: W
LayerCount: 2
Fore
SplineSet
340 237 m 1,0,-1
 340 343 l 1,1,-1
 40 343 l 1,2,-1
 40 237 l 1,3,-1
 340 237 l 1,0,-1
EndSplineSet
EndChar

StartChar: period
Encoding: 46 46 16
Width: 246
GlyphClass: 1
Flags: W
LayerCount: 2
Fore
SplineSet
186 0 m 1,0,-1
 186 131 l 1,1,-1
 60 131 l 1,2,-1
 60 0 l 1,3,-1
 186 0 l 1,0,-1
EndSplineSet
EndChar

StartChar: slash
Encoding: 47 47 17
Width: 322
GlyphClass: 1
Flags: W
LayerCount: 2
Fore
SplineSet
337 690 m 1,0,-1
 245 690 l 1,1,-1
 -19 -98 l 1,2,-1
 72 -98 l 1,3,-1
 337 690 l 1,0,-1
EndSplineSet
EndChar

StartChar: zero
Encoding: 48 48 18
Width: 498
GlyphClass: 1
Flags: W
LayerCount: 2
Fore
SplineSet
448 80 m 1,0,-1
 448 560 l 1,1,-1
 368 640 l 1,2,-1
 130 640 l 1,3,-1
 50 560 l 1,4,-1
 50 80 l 1,5,-1
 130 0 l 1,6,-1
 368 0 l 1,7,-1
 448 80 l 1,0,-1
332 111 m 1,8,-1
 166 111 l 1,9,-1
 166 529 l 1,10,-1
 332 529 l 1,11,-1
 332 111 l 1,8,-1
EndSplineSet
EndChar

StartChar: one
Encoding: 49 49 19
Width: 241
GlyphClass: 1
Flags: W
LayerCount: 2
Fore
SplineSet
191 640 m 1,0,-1
 73 640 l 1,1,-1
 15 582 l 1,2,-1
 15 549 l 1,3,-1
 75 549 l 1,4,-1
 75 0 l 1,5,-1
 191 0 l 1,6,-1
 191 640 l 1,0,-1
EndSplineSet
EndChar

StartChar: two
Encoding: 50 50 20
Width: 498
GlyphClass: 1
Flags: W
LayerCount: 2
Fore
SplineSet
448 0 m 1,0,-1
 448 111 l 1,1,-1
 166 111 l 1,2,-1
 166 166 l 1,3,-1
 448 387 l 1,4,-1
 448 560 l 1,5,-1
 368 640 l 1,6,-1
 130 640 l 1,7,-1
 50 560 l 1,8,-1
 50 528 l 1,9,-1
 332 529 l 1,10,-1
 332 439 l 1,11,-1
 50 218 l 1,12,-1
 50 0 l 1,13,-1
 448 0 l 1,0,-1
EndSplineSet
EndChar

StartChar: three
Encoding: 51 51 21
Width: 473
GlyphClass: 1
Flags: W
LayerCount: 2
Fore
SplineSet
423 80 m 1,0,-1
 423 280 l 1,1,-1
 373 330 l 1,2,-1
 423 380 l 1,3,-1
 423 560 l 1,4,-1
 343 640 l 1,5,-1
 105 640 l 1,6,-1
 25 560 l 1,7,-1
 25 529 l 1,8,-1
 307 529 l 1,9,-1
 307 388 l 1,10,-1
 164 388 l 1,11,-1
 164 272 l 1,12,-1
 307 272 l 1,13,-1
 307 111 l 1,14,-1
 25 111 l 1,15,-1
 25 80 l 1,16,-1
 105 0 l 1,17,-1
 343 0 l 1,18,-1
 423 80 l 1,0,-1
EndSplineSet
EndChar

StartChar: four
Encoding: 52 52 22
Width: 463
GlyphClass: 1
Flags: W
LayerCount: 2
Fore
SplineSet
448 149 m 1,0,-1
 448 262 l 1,1,-1
 382 262 l 1,2,-1
 382 640 l 1,3,-1
 269 640 l 1,4,-1
 0 248 l 1,5,-1
 69 149 l 1,6,-1
 267 149 l 1,7,-1
 267 0 l 1,8,-1
 382 0 l 1,9,-1
 382 149 l 1,10,-1
 448 149 l 1,0,-1
267 262 m 1,11,-1
 143 262 l 1,12,-1
 267 446 l 1,13,-1
 267 262 l 1,11,-1
EndSplineSet
EndChar

StartChar: five
Encoding: 53 53 23
Width: 498
GlyphClass: 1
Flags: W
LayerCount: 2
Fore
SplineSet
448 80 m 1,0,-1
 448 323 l 1,1,-1
 368 403 l 1,2,-1
 166 403 l 1,3,-1
 166 529 l 1,4,-1
 448 529 l 1,5,-1
 448 640 l 1,6,-1
 50 640 l 1,7,-1
 50 367 l 1,8,-1
 130 287 l 1,9,-1
 332 287 l 1,10,-1
 332 111 l 1,11,-1
 50 111 l 1,12,-1
 50 80 l 1,13,-1
 130 0 l 1,14,-1
 368 0 l 1,15,-1
 448 80 l 1,0,-1
EndSplineSet
EndChar

StartChar: six
Encoding: 54 54 24
Width: 498
GlyphClass: 1
Flags: W
LayerCount: 2
Fore
SplineSet
448 80 m 1,0,-1
 448 308 l 1,1,-1
 368 388 l 1,2,-1
 166 388 l 1,3,-1
 166 529 l 1,4,-1
 448 529 l 1,5,-1
 448 560 l 1,6,-1
 368 640 l 1,7,-1
 130 640 l 1,8,-1
 50 560 l 1,9,-1
 50 80 l 1,10,-1
 130 0 l 1,11,-1
 368 0 l 1,12,-1
 448 80 l 1,0,-1
332 111 m 1,13,-1
 166 111 l 1,14,-1
 166 272 l 1,15,-1
 332 272 l 1,16,-1
 332 111 l 1,13,-1
EndSplineSet
EndChar

StartChar: seven
Encoding: 55 55 25
Width: 413
GlyphClass: 1
Flags: W
LayerCount: 2
Fore
SplineSet
403 509 m 1,0,-1
 403 640 l 1,1,-1
 5 640 l 1,2,-1
 5 529 l 1,3,-1
 289 529 l 1,4,-1
 43 0 l 1,5,-1
 163 0 l 1,6,-1
 403 509 l 1,0,-1
EndSplineSet
EndChar

StartChar: eight
Encoding: 56 56 26
Width: 498
GlyphClass: 1
Flags: W
LayerCount: 2
Fore
SplineSet
448 80 m 1,0,-1
 448 277 l 1,1,-1
 398 327 l 1,2,-1
 448 377 l 1,3,-1
 448 560 l 1,4,-1
 368 640 l 1,5,-1
 130 640 l 1,6,-1
 50 560 l 1,7,-1
 50 377 l 1,8,-1
 100 327 l 1,9,-1
 50 277 l 1,10,-1
 50 80 l 1,11,-1
 130 0 l 1,12,-1
 368 0 l 1,13,-1
 448 80 l 1,0,-1
332 383 m 1,14,-1
 166 383 l 1,15,-1
 166 529 l 1,16,-1
 332 529 l 1,17,-1
 332 383 l 1,14,-1
332 111 m 1,18,-1
 166 111 l 1,19,-1
 166 271 l 1,20,-1
 332 271 l 1,21,-1
 332 111 l 1,18,-1
EndSplineSet
EndChar

StartChar: nine
Encoding: 57 57 27
Width: 498
GlyphClass: 1
Flags: W
LayerCount: 2
Fore
SplineSet
448 80 m 1,0,-1
 448 560 l 1,1,-1
 368 640 l 1,2,-1
 130 640 l 1,3,-1
 50 560 l 1,4,-1
 50 336 l 1,5,-1
 130 256 l 1,6,-1
 332 256 l 1,7,-1
 332 111 l 1,8,-1
 50 111 l 1,9,-1
 50 80 l 1,10,-1
 130 0 l 1,11,-1
 368 0 l 1,12,-1
 448 80 l 1,0,-1
332 372 m 1,13,-1
 166 372 l 1,14,-1
 166 529 l 1,15,-1
 332 529 l 1,16,-1
 332 372 l 1,13,-1
EndSplineSet
EndChar

StartChar: colon
Encoding: 58 58 28
Width: 246
GlyphClass: 1
Flags: W
LayerCount: 2
Fore
SplineSet
186 267 m 1,0,-1
 186 398 l 1,1,-1
 60 398 l 1,2,-1
 60 267 l 1,3,-1
 186 267 l 1,0,-1
186 0 m 1,4,-1
 186 131 l 1,5,-1
 60 131 l 1,6,-1
 60 0 l 1,7,-1
 186 0 l 1,4,-1
EndSplineSet
EndChar

StartChar: semicolon
Encoding: 59 59 29
AltUni2: 00037e.ffffffff.0
Width: 256
GlyphClass: 1
Flags: W
LayerCount: 2
Fore
SplineSet
196 267 m 1,0,-1
 196 398 l 1,1,-1
 70 398 l 1,2,-1
 70 267 l 1,3,-1
 196 267 l 1,0,-1
206 131 m 1,4,-1
 70 131 l 1,5,-1
 70 -141 l 1,6,-1
 136 -141 l 1,7,-1
 206 131 l 1,4,-1
EndSplineSet
EndChar

StartChar: less
Encoding: 60 60 30
Width: 408
GlyphClass: 1
Flags: W
LayerCount: 2
Fore
SplineSet
348 436 m 1,0,-1
 276 509 l 1,1,-1
 60 293 l 1,2,-1
 276 78 l 1,3,-1
 347 150 l 1,4,-1
 224 293 l 1,5,-1
 348 436 l 1,0,-1
EndSplineSet
EndChar

StartChar: equal
Encoding: 61 61 31
Width: 488
GlyphClass: 1
Flags: W
LayerCount: 2
Fore
SplineSet
428 322 m 1,0,-1
 428 428 l 1,1,-1
 60 428 l 1,2,-1
 60 322 l 1,3,-1
 428 322 l 1,0,-1
428 151 m 1,4,-1
 428 257 l 1,5,-1
 60 257 l 1,6,-1
 60 151 l 1,7,-1
 428 151 l 1,4,-1
EndSplineSet
EndChar

StartChar: greater
Encoding: 62 62 32
Width: 408
GlyphClass: 1
Flags: W
LayerCount: 2
Fore
SplineSet
348 293 m 1,0,-1
 132 509 l 1,1,-1
 60 436 l 1,2,-1
 184 293 l 1,3,-1
 61 150 l 1,4,-1
 132 78 l 1,5,-1
 348 293 l 1,0,-1
EndSplineSet
EndChar

StartChar: question
Encoding: 63 63 33
Width: 518
GlyphClass: 1
Flags: W
LayerCount: 2
Fore
SplineSet
458 342 m 1,0,-1
 458 560 l 1,1,-1
 378 640 l 1,2,-1
 140 640 l 1,3,-1
 60 560 l 1,4,-1
 60 528 l 1,5,-1
 342 529 l 1,6,-1
 342 378 l 1,7,-1
 256 378 l 1,8,-1
 176 298 l 1,9,-1
 176 183 l 1,10,-1
 292 183 l 1,11,-1
 292 262 l 1,12,-1
 378 262 l 1,13,-1
 458 342 l 1,0,-1
294 0 m 1,14,-1
 294 120 l 1,15,-1
 174 120 l 1,16,-1
 174 0 l 1,17,-1
 294 0 l 1,14,-1
EndSplineSet
EndChar

StartChar: A
Encoding: 65 65 34
Width: 473
GlyphClass: 1
Flags: W
LayerCount: 2
Fore
SplineSet
473 0 m 1,0,-1
 289 640 l 1,1,-1
 183 640 l 1,2,-1
 0 0 l 1,3,-1
 116 0 l 1,4,-1
 156 157 l 1,5,-1
 316 157 l 1,6,-1
 361 0 l 1,7,-1
 473 0 l 1,0,-1
285 262 m 1,8,-1
 186 262 l 1,9,-1
 236 454 l 1,10,-1
 285 262 l 1,8,-1
EndSplineSet
EndChar

StartChar: B
Encoding: 66 66 35
Width: 498
GlyphClass: 1
Flags: W
LayerCount: 2
Fore
SplineSet
448 80 m 1,0,-1
 448 275 l 1,1,-1
 398 325 l 1,2,-1
 448 375 l 1,3,-1
 448 560 l 1,4,-1
 368 640 l 1,5,-1
 50 640 l 1,6,-1
 50 0 l 1,7,-1
 368 0 l 1,8,-1
 448 80 l 1,0,-1
332 111 m 1,9,-1
 166 111 l 1,10,-1
 166 270 l 1,11,-1
 332 270 l 1,12,-1
 332 111 l 1,9,-1
332 380 m 1,13,-1
 166 380 l 1,14,-1
 166 529 l 1,15,-1
 332 529 l 1,16,-1
 332 380 l 1,13,-1
EndSplineSet
EndChar

StartChar: C
Encoding: 67 67 36
Width: 461
GlyphClass: 1
Flags: W
LayerCount: 2
Fore
SplineSet
436 80 m 1,0,-1
 436 111 l 1,1,-1
 166 111 l 1,2,-1
 166 529 l 1,3,-1
 436 529 l 1,4,-1
 436 560 l 1,5,-1
 356 640 l 1,6,-1
 130 640 l 1,7,-1
 50 560 l 1,8,-1
 50 80 l 1,9,-1
 130 0 l 1,10,-1
 356 0 l 1,11,-1
 436 80 l 1,0,-1
EndSplineSet
EndChar

StartChar: D
Encoding: 68 68 37
Width: 499
GlyphClass: 1
Flags: W
LayerCount: 2
Fore
SplineSet
449 80 m 1,0,-1
 449 560 l 1,1,-1
 369 640 l 1,2,-1
 50 640 l 1,3,-1
 50 0 l 1,4,-1
 369 0 l 1,5,-1
 449 80 l 1,0,-1
333 111 m 1,6,-1
 167 111 l 1,7,-1
 167 529 l 1,8,-1
 333 529 l 1,9,-1
 333 111 l 1,6,-1
EndSplineSet
EndChar

StartChar: E
Encoding: 69 69 38
Width: 479
GlyphClass: 1
Flags: W
LayerCount: 2
Fore
SplineSet
449 0 m 1,0,-1
 449 111 l 1,1,-1
 167 111 l 1,2,-1
 167 262 l 1,3,-1
 358 262 l 1,4,-1
 358 378 l 1,5,-1
 167 378 l 1,6,-1
 167 529 l 1,7,-1
 449 529 l 1,8,-1
 449 640 l 1,9,-1
 50 640 l 1,10,-1
 50 0 l 1,11,-1
 449 0 l 1,0,-1
EndSplineSet
EndChar

StartChar: F
Encoding: 70 70 39
Width: 456
GlyphClass: 1
Flags: W
LayerCount: 2
Fore
SplineSet
441 640 m 1,0,-1
 50 640 l 1,1,-1
 50 0 l 1,2,-1
 166 0 l 1,3,-1
 166 257 l 1,4,-1
 350 257 l 1,5,-1
 350 373 l 1,6,-1
 166 373 l 1,7,-1
 166 529 l 1,8,-1
 441 529 l 1,9,-1
 441 640 l 1,0,-1
EndSplineSet
EndChar

StartChar: G
Encoding: 71 71 40
Width: 498
GlyphClass: 1
Flags: W
LayerCount: 2
Fore
SplineSet
448 560 m 1,0,-1
 368 640 l 1,1,-1
 130 640 l 1,2,-1
 50 560 l 1,3,-1
 50 80 l 1,4,-1
 130 0 l 1,5,-1
 281 0 l 1,6,-1
 337 56 l 1,7,-1
 423 0 l 1,8,-1
 448 0 l 1,9,-1
 448 358 l 1,10,-1
 337 358 l 1,11,-1
 337 118 l 1,12,-1
 166 118 l 1,13,-1
 166 529 l 1,14,-1
 448 529 l 1,15,-1
 448 560 l 1,0,-1
EndSplineSet
EndChar

StartChar: H
Encoding: 72 72 41
Width: 499
GlyphClass: 1
Flags: W
LayerCount: 2
Fore
SplineSet
449 640 m 1,0,-1
 333 640 l 1,1,-1
 333 378 l 1,2,-1
 167 378 l 1,3,-1
 167 640 l 1,4,-1
 51 640 l 1,5,-1
 51 0 l 1,6,-1
 167 0 l 1,7,-1
 167 262 l 1,8,-1
 333 262 l 1,9,-1
 333 0 l 1,10,-1
 449 0 l 1,11,-1
 449 640 l 1,0,-1
EndSplineSet
EndChar

StartChar: I
Encoding: 73 73 42
Width: 216
GlyphClass: 1
Flags: W
LayerCount: 2
Fore
SplineSet
166 640 m 1,0,-1
 50 640 l 1,1,-1
 50 0 l 1,2,-1
 166 0 l 1,3,-1
 166 640 l 1,0,-1
EndSplineSet
EndChar

StartChar: J
Encoding: 74 74 43
Width: 438
GlyphClass: 1
Flags: W
LayerCount: 2
Fore
SplineSet
388 80 m 1,0,-1
 388 640 l 1,1,-1
 272 640 l 1,2,-1
 272 111 l 1,3,-1
 5 111 l 1,4,-1
 5 80 l 1,5,-1
 85 0 l 1,6,-1
 308 0 l 1,7,-1
 388 80 l 1,0,-1
EndSplineSet
EndChar

StartChar: K
Encoding: 75 75 44
Width: 555
GlyphClass: 1
Flags: W
LayerCount: 2
Fore
SplineSet
555 0 m 1,0,-1
 385 446 l 1,1,-1
 531 640 l 1,2,-1
 395 640 l 1,3,-1
 166 339 l 1,4,-1
 166 640 l 1,5,-1
 50 640 l 1,6,-1
 50 0 l 1,7,-1
 166 0 l 1,8,-1
 166 167 l 1,9,-1
 300 342 l 1,10,-1
 435 0 l 1,11,-1
 555 0 l 1,0,-1
EndSplineSet
EndChar

StartChar: L
Encoding: 76 76 45
Width: 443
GlyphClass: 1
Flags: W
LayerCount: 2
Fore
SplineSet
423 0 m 1,0,-1
 423 111 l 1,1,-1
 166 111 l 1,2,-1
 166 640 l 1,3,-1
 50 640 l 1,4,-1
 50 0 l 1,5,-1
 423 0 l 1,0,-1
EndSplineSet
EndChar

StartChar: M
Encoding: 77 77 46
Width: 568
GlyphClass: 1
Flags: W
LayerCount: 2
Fore
SplineSet
518 640 m 1,0,-1
 412 640 l 1,1,-1
 284 323 l 1,2,-1
 156 640 l 1,3,-1
 50 640 l 1,4,-1
 50 0 l 1,5,-1
 163 0 l 1,6,-1
 163 335 l 1,7,-1
 255 106 l 1,8,-1
 313 106 l 1,9,-1
 405 335 l 1,10,-1
 406 0 l 1,11,-1
 518 0 l 1,12,-1
 518 640 l 1,0,-1
EndSplineSet
EndChar

StartChar: N
Encoding: 78 78 47
Width: 498
GlyphClass: 1
Flags: W
LayerCount: 2
Fore
SplineSet
448 0 m 1,0,-1
 448 640 l 1,1,-1
 334 640 l 1,2,-1
 334 277 l 1,3,-1
 151 640 l 1,4,-1
 50 640 l 1,5,-1
 50 0 l 1,6,-1
 165 0 l 1,7,-1
 164 363 l 1,8,-1
 347 0 l 1,9,-1
 448 0 l 1,0,-1
EndSplineSet
EndChar

StartChar: O
Encoding: 79 79 48
Width: 498
GlyphClass: 1
Flags: W
LayerCount: 2
Fore
SplineSet
448 80 m 1,0,-1
 448 560 l 1,1,-1
 368 640 l 1,2,-1
 130 640 l 1,3,-1
 50 560 l 1,4,-1
 50 80 l 1,5,-1
 130 0 l 1,6,-1
 368 0 l 1,7,-1
 448 80 l 1,0,-1
332 111 m 1,8,-1
 166 111 l 1,9,-1
 166 529 l 1,10,-1
 332 529 l 1,11,-1
 332 111 l 1,8,-1
EndSplineSet
EndChar

StartChar: P
Encoding: 80 80 49
Width: 498
GlyphClass: 1
Flags: W
LayerCount: 2
Fore
SplineSet
448 327 m 1,0,-1
 448 560 l 1,1,-1
 368 640 l 1,2,-1
 50 640 l 1,3,-1
 50 0 l 1,4,-1
 166 0 l 1,5,-1
 166 247 l 1,6,-1
 368 247 l 1,7,-1
 448 327 l 1,0,-1
332 358 m 1,8,-1
 166 358 l 1,9,-1
 166 529 l 1,10,-1
 332 529 l 1,11,-1
 332 358 l 1,8,-1
EndSplineSet
EndChar

StartChar: Q
Encoding: 81 81 50
Width: 498
GlyphClass: 1
Flags: W
LayerCount: 2
Fore
SplineSet
448 80 m 1,0,-1
 448 560 l 1,1,-1
 368 640 l 1,2,-1
 130 640 l 1,3,-1
 50 560 l 1,4,-1
 50 80 l 1,5,-1
 130 0 l 1,6,-1
 204 0 l 1,7,-1
 217 -161 l 1,8,-1
 290 -161 l 1,9,-1
 302 0 l 1,10,-1
 371 0 l 1,11,-1
 448 80 l 1,0,-1
332 111 m 1,12,-1
 166 111 l 1,13,-1
 166 529 l 1,14,-1
 332 529 l 1,15,-1
 332 111 l 1,12,-1
EndSplineSet
EndChar

StartChar: R
Encoding: 82 82 51
Width: 483
GlyphClass: 1
Flags: W
LayerCount: 2
Fore
SplineSet
468 0 m 1,0,-1
 368 247 l 1,1,-1
 448 327 l 1,2,-1
 448 560 l 1,3,-1
 368 640 l 1,4,-1
 50 640 l 1,5,-1
 50 0 l 1,6,-1
 166 0 l 1,7,-1
 166 247 l 1,8,-1
 243 247 l 1,9,-1
 339 0 l 1,10,-1
 468 0 l 1,0,-1
332 363 m 1,11,-1
 166 363 l 1,12,-1
 166 529 l 1,13,-1
 332 529 l 1,14,-1
 332 363 l 1,11,-1
EndSplineSet
EndChar

StartChar: S
Encoding: 83 83 52
Width: 498
GlyphClass: 1
Flags: W
LayerCount: 2
Fore
SplineSet
448 80 m 1,0,-1
 448 303 l 1,1,-1
 368 384 l 1,2,-1
 171 384 l 1,3,-1
 171 522 l 1,4,-1
 446 522 l 1,5,-1
 446 589 l 1,6,-1
 395 640 l 1,7,-1
 130 640 l 1,8,-1
 50 560 l 1,9,-1
 50 346 l 1,10,-1
 130 266 l 1,11,-1
 327 266 l 1,12,-1
 327 118 l 1,13,-1
 52 118 l 1,14,-1
 52 51 l 1,15,-1
 103 0 l 1,16,-1
 368 0 l 1,17,-1
 448 80 l 1,0,-1
EndSplineSet
EndChar

StartChar: T
Encoding: 84 84 53
Width: 468
GlyphClass: 1
Flags: W
LayerCount: 2
Fore
SplineSet
458 640 m 1,0,-1
 10 640 l 1,1,-1
 10 528 l 1,2,-1
 176 529 l 1,3,-1
 176 0 l 1,4,-1
 292 0 l 1,5,-1
 292 529 l 1,6,-1
 458 529 l 1,7,-1
 458 640 l 1,0,-1
EndSplineSet
EndChar

StartChar: U
Encoding: 85 85 54
Width: 498
GlyphClass: 1
Flags: W
LayerCount: 2
Fore
SplineSet
448 80 m 1,0,-1
 448 640 l 1,1,-1
 332 640 l 1,2,-1
 332 111 l 1,3,-1
 166 111 l 1,4,-1
 166 640 l 1,5,-1
 50 640 l 1,6,-1
 50 80 l 1,7,-1
 130 0 l 1,8,-1
 368 0 l 1,9,-1
 448 80 l 1,0,-1
EndSplineSet
EndChar

StartChar: V
Encoding: 86 86 55
Width: 459
GlyphClass: 1
Flags: W
LayerCount: 2
Fore
SplineSet
459 640 m 1,0,-1
 334 640 l 1,1,2
 305 518 305 518 286 435.5 c 128,-1,3
 267 353 267 353 256 305 c 128,-1,4
 245 257 245 257 239.5 232 c 128,-1,5
 234 207 234 207 232.5 200.5 c 128,-1,6
 231 194 231 194 123 640 c 1,7,-1
 0 640 l 1,8,-1
 174 0 l 1,9,-1
 286 0 l 1,10,-1
 459 640 l 1,0,-1
EndSplineSet
EndChar

StartChar: W
Encoding: 87 87 56
Width: 555
GlyphClass: 1
Flags: W
LayerCount: 2
Fore
SplineSet
555 640 m 1,0,-1
 434 640 l 1,1,-1
 386 283 l 1,2,-1
 308 582 l 1,3,-1
 247 582 l 1,4,-1
 168 278 l 1,5,-1
 121 640 l 1,6,-1
 0 640 l 1,7,-1
 100 0 l 1,8,-1
 203 0 l 1,9,-1
 277 283 l 1,10,-1
 351 0 l 1,11,-1
 454 0 l 1,12,-1
 555 640 l 1,0,-1
EndSplineSet
EndChar

StartChar: X
Encoding: 88 88 57
Width: 503
GlyphClass: 1
Flags: W
LayerCount: 2
Fore
SplineSet
503 0 m 1,0,-1
 321 320 l 1,1,-1
 503 640 l 1,2,-1
 373 640 l 1,3,-1
 253 420 l 1,4,-1
 129 640 l 1,5,-1
 0 640 l 1,6,-1
 185 319 l 1,7,-1
 1 0 l 1,8,-1
 130 0 l 1,9,-1
 253 219 l 1,10,-1
 379 0 l 1,11,-1
 503 0 l 1,0,-1
EndSplineSet
EndChar

StartChar: Y
Encoding: 89 89 58
Width: 477
GlyphClass: 1
Flags: W
LayerCount: 2
Fore
SplineSet
477 640 m 1,0,-1
 345 640 l 1,1,-1
 242 387 l 1,2,-1
 135 640 l 1,3,-1
 0 640 l 1,4,-1
 183 262 l 1,5,-1
 184 0 l 1,6,-1
 299 0 l 1,7,-1
 299 262 l 1,8,-1
 477 640 l 1,0,-1
EndSplineSet
EndChar

StartChar: Z
Encoding: 90 90 59
Width: 458
GlyphClass: 1
Flags: W
LayerCount: 2
Fore
SplineSet
428 0 m 1,0,-1
 428 110 l 1,1,-1
 166 111 l 1,2,-1
 428 524 l 1,3,-1
 428 640 l 1,4,-1
 30 640 l 1,5,-1
 30 528 l 1,6,-1
 292 529 l 1,7,-1
 30 116 l 1,8,-1
 30 0 l 1,9,-1
 428 0 l 1,0,-1
EndSplineSet
EndChar

StartChar: bracketleft
Encoding: 91 91 60
Width: 298
GlyphClass: 1
Flags: W
LayerCount: 2
Fore
SplineSet
238 -148 m 1,0,-1
 238 -42 l 1,1,-1
 166 -42 l 1,2,-1
 166 586 l 1,3,-1
 238 586 l 1,4,-1
 238 692 l 1,5,-1
 60 692 l 1,6,-1
 60 -148 l 1,7,-1
 238 -148 l 1,0,-1
EndSplineSet
EndChar

StartChar: backslash
Encoding: 92 92 61
Width: 322
GlyphClass: 1
Flags: W
LayerCount: 2
Fore
SplineSet
341 -98 m 1,0,-1
 77 690 l 1,1,-1
 -15 690 l 1,2,-1
 250 -98 l 1,3,-1
 341 -98 l 1,0,-1
EndSplineSet
EndChar

StartChar: bracketright
Encoding: 93 93 62
Width: 298
GlyphClass: 1
Flags: W
LayerCount: 2
Fore
SplineSet
238 -148 m 1,0,-1
 238 692 l 1,1,-1
 60 692 l 1,2,-1
 60 586 l 1,3,-1
 132 586 l 1,4,-1
 132 -42 l 1,5,-1
 60 -42 l 1,6,-1
 60 -148 l 1,7,-1
 238 -148 l 1,0,-1
EndSplineSet
EndChar

StartChar: asciicircum
Encoding: 94 94 63
Width: 528
GlyphClass: 1
Flags: W
LayerCount: 2
Fore
SplineSet
444 712 m 1,0,-1
 266 846 l 1,1,-1
 88 712 l 1,2,-1
 134 631 l 1,3,-1
 266 716 l 1,4,-1
 399 631 l 1,5,-1
 444 712 l 1,0,-1
EndSplineSet
EndChar

StartChar: underscore
Encoding: 95 95 64
Width: 458
GlyphClass: 1
Flags: W
LayerCount: 2
Fore
SplineSet
458 -86 m 1,0,-1
 458 0 l 1,1,-1
 0 0 l 1,2,-1
 0 -86 l 1,3,-1
 458 -86 l 1,0,-1
EndSplineSet
EndChar

StartChar: grave
Encoding: 96 96 65
Width: 406
GlyphClass: 1
Flags: W
LayerCount: 2
Fore
SplineSet
338 727 m 1,0,-1
 118 816 l 1,1,-1
 88 704 l 1,2,-1
 316 643 l 1,3,-1
 338 727 l 1,0,-1
EndSplineSet
EndChar

StartChar: a
Encoding: 97 97 66
Width: 488
GlyphClass: 1
Flags: W
LayerCount: 2
Fore
SplineSet
438 429 m 1,0,-1
 358 509 l 1,1,-1
 130 509 l 1,2,-1
 50 429 l 1,3,-1
 50 398 l 1,4,-1
 322 398 l 1,5,-1
 322 308 l 1,6,-1
 130 308 l 1,7,-1
 40 218 l 1,8,-1
 40 80 l 1,9,-1
 120 0 l 1,10,-1
 264 0 l 1,11,-1
 322 58 l 1,12,-1
 412 0 l 1,13,-1
 438 0 l 1,14,-1
 438 429 l 1,0,-1
322 106 m 1,15,-1
 156 106 l 1,16,-1
 156 202 l 1,17,-1
 322 202 l 1,18,-1
 322 106 l 1,15,-1
EndSplineSet
EndChar

StartChar: b
Encoding: 98 98 67
Width: 488
GlyphClass: 1
Flags: W
LayerCount: 2
Fore
SplineSet
438 80 m 1,0,-1
 438 429 l 1,1,-1
 358 509 l 1,2,-1
 224 509 l 1,3,-1
 166 451 l 1,4,-1
 166 680 l 1,5,-1
 147 679 l 1,6,-1
 50 643 l 1,7,-1
 51 0 l 1,8,-1
 76 0 l 1,9,-1
 166 58 l 1,10,-1
 224 0 l 1,11,-1
 358 0 l 1,12,-1
 438 80 l 1,0,-1
322 111 m 1,13,-1
 166 111 l 1,14,-1
 166 398 l 1,15,-1
 322 398 l 1,16,-1
 322 111 l 1,13,-1
EndSplineSet
EndChar

StartChar: c
Encoding: 99 99 68
Width: 458
GlyphClass: 1
Flags: W
LayerCount: 2
Fore
SplineSet
433 80 m 1,0,-1
 433 111 l 1,1,-1
 166 111 l 1,2,-1
 166 398 l 1,3,-1
 433 398 l 1,4,-1
 433 429 l 1,5,-1
 353 509 l 1,6,-1
 130 509 l 1,7,-1
 50 429 l 1,8,-1
 50 80 l 1,9,-1
 130 0 l 1,10,-1
 353 0 l 1,11,-1
 433 80 l 1,0,-1
EndSplineSet
EndChar

StartChar: d
Encoding: 100 100 69
Width: 488
GlyphClass: 1
Flags: W
LayerCount: 2
Fore
SplineSet
438 679 m 1,0,-1
 415 679 l 1,1,-1
 322 643 l 1,2,-1
 322 451 l 1,3,-1
 264 509 l 1,4,-1
 130 509 l 1,5,-1
 50 429 l 1,6,-1
 50 80 l 1,7,-1
 130 0 l 1,8,-1
 264 0 l 1,9,-1
 322 58 l 1,10,-1
 412 0 l 1,11,-1
 438 0 l 1,12,-1
 438 679 l 1,0,-1
322 111 m 1,13,-1
 166 111 l 1,14,-1
 166 398 l 1,15,-1
 322 398 l 1,16,-1
 322 111 l 1,13,-1
EndSplineSet
EndChar

StartChar: e
Encoding: 101 101 70
Width: 493
GlyphClass: 1
Flags: W
LayerCount: 2
Fore
SplineSet
448 80 m 1,0,-1
 448 106 l 1,1,-1
 166 106 l 1,2,-1
 166 197 l 1,3,-1
 368 197 l 1,4,-1
 448 277 l 1,5,-1
 448 429 l 1,6,-1
 368 509 l 1,7,-1
 130 509 l 1,8,-1
 50 429 l 1,9,-1
 50 80 l 1,10,-1
 130 0 l 1,11,-1
 368 0 l 1,12,-1
 448 80 l 1,0,-1
332 303 m 1,13,-1
 166 303 l 1,14,-1
 166 398 l 1,15,-1
 332 398 l 1,16,-1
 332 303 l 1,13,-1
EndSplineSet
EndChar

StartChar: f
Encoding: 102 102 71
Width: 311
GlyphClass: 1
Flags: W
LayerCount: 2
Fore
SplineSet
65 600 m 1,0,-1
 65 509 l 1,1,-1
 15 509 l 1,2,-1
 15 398 l 1,3,-1
 65 398 l 1,4,-1
 65 0 l 1,5,-1
 181 0 l 1,6,-1
 181 398 l 1,7,-1
 281 398 l 1,8,-1
 281 509 l 1,9,-1
 181 509 l 1,10,-1
 181 569 l 1,11,-1
 281 569 l 1,12,-1
 281 680 l 1,13,-1
 145 680 l 1,14,-1
 65 600 l 1,0,-1
EndSplineSet
EndChar

StartChar: g
Encoding: 103 103 72
Width: 498
GlyphClass: 1
Flags: W
LayerCount: 2
Fore
SplineSet
332 451 m 1,0,-1
 274 509 l 1,1,-1
 130 509 l 1,2,-1
 50 429 l 1,3,-1
 50 130 l 1,4,-1
 130 50 l 1,5,-1
 274 50 l 1,6,-1
 332 108 l 1,7,-1
 332 -53 l 1,8,-1
 55 -53 l 1,9,-1
 55 -79 l 1,10,-1
 135 -159 l 1,11,-1
 368 -159 l 1,12,-1
 448 -79 l 1,13,-1
 448 509 l 1,14,-1
 424 509 l 1,15,-1
 332 451 l 1,0,-1
332 159 m 1,16,-1
 166 159 l 1,17,-1
 166 398 l 1,18,-1
 332 398 l 1,19,-1
 332 159 l 1,16,-1
EndSplineSet
EndChar

StartChar: h
Encoding: 104 104 73
Width: 488
GlyphClass: 1
Flags: W
LayerCount: 2
Fore
SplineSet
438 429 m 1,0,-1
 358 509 l 1,1,-1
 224 509 l 1,2,-1
 166 451 l 1,3,-1
 166 680 l 1,4,-1
 144 679 l 1,5,-1
 50 644 l 1,6,-1
 51 0 l 1,7,-1
 166 0 l 1,8,-1
 166 398 l 1,9,-1
 322 398 l 1,10,-1
 322 0 l 1,11,-1
 438 0 l 1,12,-1
 438 429 l 1,0,-1
EndSplineSet
EndChar

StartChar: i
Encoding: 105 105 74
Width: 216
GlyphClass: 1
Flags: W
LayerCount: 2
Fore
SplineSet
166 509 m 1,0,-1
 50 509 l 1,1,-1
 50 0 l 1,2,-1
 166 0 l 1,3,-1
 166 509 l 1,0,-1
166 560 m 1,4,-1
 166 680 l 1,5,-1
 50 680 l 1,6,-1
 50 560 l 1,7,-1
 166 560 l 1,4,-1
EndSplineSet
EndChar

StartChar: j
Encoding: 106 106 75
Width: 216
GlyphClass: 1
Flags: W
LayerCount: 2
Fore
SplineSet
166 -81 m 1,0,-1
 166 509 l 1,1,-1
 50 509 l 1,2,-1
 50 -50 l 1,3,-1
 0 -50 l 1,4,-1
 0 -161 l 1,5,-1
 86 -161 l 1,6,-1
 166 -81 l 1,0,-1
166 560 m 1,7,-1
 166 680 l 1,8,-1
 50 680 l 1,9,-1
 50 560 l 1,10,-1
 166 560 l 1,7,-1
EndSplineSet
EndChar

StartChar: k
Encoding: 107 107 76
Width: 529
GlyphClass: 1
Flags: W
LayerCount: 2
Fore
SplineSet
529 1 m 1,0,-1
 362 334 l 1,1,-1
 529 509 l 1,2,-1
 388 509 l 1,3,-1
 165 277 l 1,4,-1
 165 680 l 1,5,-1
 144 678 l 1,6,-1
 50 642 l 1,7,-1
 50 0 l 1,8,-1
 165 0 l 1,9,-1
 165 134 l 1,10,-1
 276 245 l 1,11,-1
 404 1 l 1,12,-1
 529 1 l 1,0,-1
EndSplineSet
EndChar

StartChar: l
Encoding: 108 108 77
Width: 217
GlyphClass: 1
Flags: W
LayerCount: 2
Fore
SplineSet
167 680 m 1,0,-1
 144 678 l 1,1,-1
 50 641 l 1,2,-1
 50 0 l 1,3,-1
 167 0 l 1,4,-1
 167 680 l 1,0,-1
EndSplineSet
EndChar

StartChar: m
Encoding: 109 109 78
Width: 730
GlyphClass: 1
Flags: W
LayerCount: 2
Fore
SplineSet
680 429 m 1,0,-1
 600 509 l 1,1,-1
 481 509 l 1,2,-1
 412 440 l 1,3,-1
 343 509 l 1,4,-1
 224 509 l 1,5,-1
 166 451 l 1,6,-1
 76 509 l 1,7,-1
 50 509 l 1,8,-1
 50 0 l 1,9,-1
 167 0 l 1,10,-1
 166 398 l 1,11,-1
 307 398 l 1,12,-1
 307 0 l 1,13,-1
 423 0 l 1,14,-1
 423 398 l 1,15,-1
 564 398 l 1,16,-1
 564 0 l 1,17,-1
 680 0 l 1,18,-1
 680 429 l 1,0,-1
EndSplineSet
EndChar

StartChar: n
Encoding: 110 110 79
Width: 488
GlyphClass: 1
Flags: W
LayerCount: 2
Fore
SplineSet
438 429 m 1,0,-1
 358 509 l 1,1,-1
 224 509 l 1,2,-1
 166 451 l 1,3,-1
 76 509 l 1,4,-1
 50 509 l 1,5,-1
 50 0 l 1,6,-1
 166 0 l 1,7,-1
 166 398 l 1,8,-1
 322 398 l 1,9,-1
 322 0 l 1,10,-1
 438 0 l 1,11,-1
 438 429 l 1,0,-1
EndSplineSet
EndChar

StartChar: o
Encoding: 111 111 80
Width: 498
GlyphClass: 1
Flags: W
LayerCount: 2
Fore
SplineSet
448 80 m 1,0,-1
 448 429 l 1,1,-1
 368 509 l 1,2,-1
 130 509 l 1,3,-1
 50 429 l 1,4,-1
 50 80 l 1,5,-1
 130 0 l 1,6,-1
 368 0 l 1,7,-1
 448 80 l 1,0,-1
332 111 m 1,8,-1
 166 111 l 1,9,-1
 166 398 l 1,10,-1
 332 398 l 1,11,-1
 332 111 l 1,8,-1
EndSplineSet
EndChar

StartChar: p
Encoding: 112 112 81
Width: 488
GlyphClass: 1
Flags: W
LayerCount: 2
Fore
SplineSet
438 80 m 1,0,-1
 438 429 l 1,1,-1
 358 509 l 1,2,-1
 224 509 l 1,3,-1
 166 451 l 1,4,-1
 76 509 l 1,5,-1
 50 509 l 1,6,-1
 51 -160 l 1,7,-1
 166 -160 l 1,8,-1
 166 58 l 1,9,-1
 224 0 l 1,10,-1
 358 0 l 1,11,-1
 438 80 l 1,0,-1
322 111 m 1,12,-1
 166 111 l 1,13,-1
 166 398 l 1,14,-1
 322 398 l 1,15,-1
 322 111 l 1,12,-1
EndSplineSet
EndChar

StartChar: q
Encoding: 113 113 82
Width: 488
GlyphClass: 1
Flags: W
LayerCount: 2
Fore
SplineSet
438 509 m 1,0,-1
 412 509 l 1,1,-1
 322 451 l 1,2,-1
 264 509 l 1,3,-1
 130 509 l 1,4,-1
 50 429 l 1,5,-1
 50 80 l 1,6,-1
 130 0 l 1,7,-1
 264 0 l 1,8,-1
 322 58 l 1,9,-1
 322 -160 l 1,10,-1
 438 -160 l 1,11,-1
 438 509 l 1,0,-1
322 111 m 1,12,-1
 166 111 l 1,13,-1
 166 398 l 1,14,-1
 322 398 l 1,15,-1
 322 111 l 1,12,-1
EndSplineSet
EndChar

StartChar: r
Encoding: 114 114 83
Width: 385
GlyphClass: 1
Flags: W
LayerCount: 2
Fore
SplineSet
375 451 m 1,0,-1
 317 509 l 1,1,-1
 224 509 l 1,2,-1
 166 451 l 1,3,-1
 76 509 l 1,4,-1
 50 509 l 1,5,-1
 51 0 l 1,6,-1
 166 0 l 1,7,-1
 166 398 l 1,8,-1
 375 398 l 1,9,-1
 375 451 l 1,0,-1
EndSplineSet
EndChar

StartChar: s
Encoding: 115 115 84
Width: 468
GlyphClass: 1
Flags: W
LayerCount: 2
Fore
SplineSet
418 80 m 1,0,-1
 418 232 l 1,1,-1
 338 312 l 1,2,-1
 166 312 l 1,3,-1
 166 403 l 1,4,-1
 418 403 l 1,5,-1
 418 429 l 1,6,-1
 338 509 l 1,7,-1
 130 509 l 1,8,-1
 50 429 l 1,9,-1
 50 282 l 1,10,-1
 130 202 l 1,11,-1
 302 202 l 1,12,-1
 302 106 l 1,13,-1
 50 106 l 1,14,-1
 50 80 l 1,15,-1
 130 0 l 1,16,-1
 338 0 l 1,17,-1
 418 80 l 1,0,-1
EndSplineSet
EndChar

StartChar: t
Encoding: 116 116 85
Width: 309
GlyphClass: 1
Flags: W
LayerCount: 2
Fore
SplineSet
294 398 m 1,0,-1
 294 509 l 1,1,-1
 184 509 l 1,2,-1
 184 680 l 1,3,-1
 159 680 l 1,4,-1
 68 635 l 1,5,-1
 68 509 l 1,6,-1
 8 424 l 1,7,-1
 8 398 l 1,8,-1
 68 398 l 1,9,-1
 68 80 l 1,10,-1
 148 0 l 1,11,-1
 292 0 l 1,12,-1
 292 111 l 1,13,-1
 184 111 l 1,14,-1
 184 398 l 1,15,-1
 294 398 l 1,0,-1
EndSplineSet
EndChar

StartChar: u
Encoding: 117 117 86
Width: 488
GlyphClass: 1
Flags: W
LayerCount: 2
Fore
SplineSet
438 509 m 1,0,-1
 322 509 l 1,1,-1
 322 111 l 1,2,-1
 166 111 l 1,3,-1
 166 509 l 1,4,-1
 50 509 l 1,5,-1
 50 80 l 1,6,-1
 130 0 l 1,7,-1
 264 0 l 1,8,-1
 322 58 l 1,9,-1
 412 0 l 1,10,-1
 438 0 l 1,11,-1
 438 509 l 1,0,-1
EndSplineSet
EndChar

StartChar: v
Encoding: 118 118 87
Width: 454
GlyphClass: 1
Flags: W
LayerCount: 2
Fore
SplineSet
454 509 m 1,0,-1
 334 509 l 1,1,-1
 228 188 l 1,2,-1
 126 509 l 1,3,-1
 0 509 l 1,4,-1
 171 0 l 1,5,-1
 283 0 l 1,6,-1
 454 509 l 1,0,-1
EndSplineSet
EndChar

StartChar: w
Encoding: 119 119 88
Width: 601
GlyphClass: 1
Flags: W
LayerCount: 2
Fore
SplineSet
601 509 m 1,0,-1
 477 509 l 1,1,-1
 414 213 l 1,2,-1
 327 457 l 1,3,-1
 268 457 l 1,4,-1
 184 213 l 1,5,-1
 124 509 l 1,6,-1
 0 509 l 1,7,-1
 124 0 l 1,8,-1
 232 0 l 1,9,-1
 299 228 l 1,10,-1
 366 0 l 1,11,-1
 473 0 l 1,12,-1
 601 509 l 1,0,-1
EndSplineSet
EndChar

StartChar: x
Encoding: 120 120 89
Width: 457
GlyphClass: 1
Flags: W
LayerCount: 2
Fore
SplineSet
458 0 m 1,0,-1
 303 257 l 1,1,-1
 457 509 l 1,2,-1
 336 509 l 1,3,-1
 231 330 l 1,4,-1
 131 509 l 1,5,-1
 5 509 l 1,6,-1
 160 257 l 1,7,-1
 0 0 l 1,8,-1
 122 0 l 1,9,-1
 231 184 l 1,10,-1
 344 0 l 1,11,-1
 458 0 l 1,0,-1
EndSplineSet
EndChar

StartChar: y
Encoding: 121 121 90
Width: 467
GlyphClass: 1
Flags: W
LayerCount: 2
Fore
SplineSet
467 509 m 1,0,-1
 344 509 l 1,1,-1
 241 206 l 1,2,-1
 124 509 l 1,3,-1
 0 509 l 1,4,-1
 183 50 l 1,5,-1
 112 -136 l 1,6,-1
 233 -136 l 1,7,-1
 467 509 l 1,0,-1
EndSplineSet
EndChar

StartChar: z
Encoding: 122 122 91
Width: 423
GlyphClass: 1
Flags: W
LayerCount: 2
Fore
SplineSet
398 0 m 1,0,-1
 398 108 l 1,1,-1
 169 106 l 1,2,-1
 398 403 l 1,3,-1
 398 509 l 1,4,-1
 25 509 l 1,5,-1
 25 403 l 1,6,-1
 254 403 l 1,7,-1
 25 106 l 1,8,-1
 25 0 l 1,9,-1
 398 0 l 1,0,-1
EndSplineSet
EndChar

StartChar: braceleft
Encoding: 123 123 92
Width: 323
GlyphClass: 1
Flags: W
LayerCount: 2
Fore
SplineSet
288 -148 m 1,0,-1
 288 -42 l 1,1,-1
 216 -42 l 1,2,-1
 216 197 l 1,3,-1
 141 272 l 1,4,-1
 216 347 l 1,5,-1
 216 587 l 1,6,-1
 288 587 l 1,7,-1
 288 693 l 1,8,-1
 185 693 l 1,9,-1
 110 618 l 1,10,-1
 110 395 l 1,11,-1
 45 330 l 1,12,-1
 45 214 l 1,13,-1
 110 149 l 1,14,-1
 110 -73 l 1,15,-1
 185 -148 l 1,16,-1
 288 -148 l 1,0,-1
EndSplineSet
EndChar

StartChar: bar
Encoding: 124 124 93
Width: 213
GlyphClass: 1
Flags: W
LayerCount: 2
Fore
SplineSet
152 -148 m 1,0,-1
 152 746 l 1,1,-1
 60 746 l 1,2,-1
 60 -148 l 1,3,-1
 152 -148 l 1,0,-1
EndSplineSet
EndChar

StartChar: braceright
Encoding: 125 125 94
Width: 323
GlyphClass: 1
Flags: W
LayerCount: 2
Fore
SplineSet
288 214 m 1,0,-1
 288 330 l 1,1,-1
 223 395 l 1,2,-1
 223 618 l 1,3,-1
 148 693 l 1,4,-1
 45 693 l 1,5,-1
 45 587 l 1,6,-1
 117 587 l 1,7,-1
 117 347 l 1,8,-1
 192 272 l 1,9,-1
 117 197 l 1,10,-1
 117 -42 l 1,11,-1
 45 -42 l 1,12,-1
 45 -148 l 1,13,-1
 148 -148 l 1,14,-1
 223 -73 l 1,15,-1
 223 149 l 1,16,-1
 288 214 l 1,0,-1
EndSplineSet
EndChar

StartChar: asciitilde
Encoding: 126 126 95
Width: 496
GlyphClass: 1
Flags: W
LayerCount: 2
Fore
SplineSet
460 635 m 1,0,-1
 376 719 l 1,1,-1
 267 719 l 1,2,-1
 200 652 l 1,3,-1
 137 715 l 1,4,-1
 59 637 l 1,5,-1
 143 553 l 1,6,-1
 252 553 l 1,7,-1
 319 620 l 1,8,-1
 383 557 l 1,9,-1
 460 635 l 1,0,-1
EndSplineSet
EndChar

StartChar: Adieresis
Encoding: 196 196 96
Width: 473
GlyphClass: 1
Flags: W
LayerCount: 2
Fore
SplineSet
414 684 m 1,0,-1
 414 800 l 1,1,-1
 298 800 l 1,2,-1
 298 684 l 1,3,-1
 414 684 l 1,0,-1
182 684 m 1,4,-1
 182 800 l 1,5,-1
 66 800 l 1,6,-1
 66 684 l 1,7,-1
 182 684 l 1,4,-1
473 0 m 1,8,-1
 289 640 l 1,9,-1
 183 640 l 1,10,-1
 0 0 l 1,11,-1
 116 0 l 1,12,-1
 156 157 l 1,13,-1
 316 157 l 1,14,-1
 361 0 l 1,15,-1
 473 0 l 1,8,-1
285 262 m 1,16,-1
 186 262 l 1,17,-1
 236 454 l 1,18,-1
 285 262 l 1,16,-1
EndSplineSet
EndChar

StartChar: Aring
Encoding: 197 197 97
Width: 473
GlyphClass: 1
Flags: W
LayerCount: 2
Fore
SplineSet
473 0 m 1,0,-1
 289 640 l 1,1,-1
 183 640 l 1,2,-1
 0 0 l 1,3,-1
 116 0 l 1,4,-1
 156 157 l 1,5,-1
 316 157 l 1,6,-1
 361 0 l 1,7,-1
 473 0 l 1,0,-1
285 262 m 1,8,-1
 186 262 l 1,9,-1
 236 454 l 1,10,-1
 285 262 l 1,8,-1
337 680 m 1,11,-1
 337 799 l 1,12,-1
 296 839 l 1,13,-1
 177 839 l 1,14,-1
 137 799 l 1,15,-1
 137 680 l 1,16,-1
 178 640 l 1,17,-1
 297 640 l 1,18,-1
 337 680 l 1,11,-1
278 698 m 1,19,-1
 195 698 l 1,20,-1
 195 781 l 1,21,-1
 279 781 l 1,22,-1
 278 698 l 1,19,-1
EndSplineSet
EndChar

StartChar: Ccedilla
Encoding: 199 199 98
Width: 461
GlyphClass: 1
Flags: W
LayerCount: 2
Fore
SplineSet
436 80 m 1,0,-1
 436 111 l 1,1,-1
 166 111 l 1,2,-1
 166 529 l 1,3,-1
 436 529 l 1,4,-1
 436 560 l 1,5,-1
 356 640 l 1,6,-1
 130 640 l 1,7,-1
 50 560 l 1,8,-1
 50 80 l 1,9,-1
 130 0 l 1,10,-1
 218 0 l 1,11,-1
 218 -83 l 1,12,-1
 276 -83 l 1,13,-1
 276 -141 l 1,14,-1
 218 -141 l 1,15,-1
 218 -107 l 1,16,-1
 160 -107 l 1,17,-1
 160 -159 l 1,18,-1
 200 -199 l 1,19,-1
 294 -199 l 1,20,-1
 334 -159 l 1,21,-1
 334 -65 l 1,22,-1
 294 -25 l 1,23,-1
 276 -25 l 1,24,-1
 276 0 l 1,25,-1
 356 0 l 1,26,-1
 436 80 l 1,0,-1
EndSplineSet
EndChar

StartChar: Eacute
Encoding: 201 201 99
Width: 479
GlyphClass: 1
Flags: W
LayerCount: 2
Fore
SplineSet
415 746 m 1,0,-1
 385 858 l 1,1,-1
 165 769 l 1,2,-1
 187 685 l 1,3,-1
 415 746 l 1,0,-1
449 0 m 1,4,-1
 449 111 l 1,5,-1
 167 111 l 1,6,-1
 167 262 l 1,7,-1
 358 262 l 1,8,-1
 358 378 l 1,9,-1
 167 378 l 1,10,-1
 167 529 l 1,11,-1
 449 529 l 1,12,-1
 449 640 l 1,13,-1
 50 640 l 1,14,-1
 50 0 l 1,15,-1
 449 0 l 1,4,-1
EndSplineSet
EndChar

StartChar: Ntilde
Encoding: 209 209 100
Width: 503
GlyphClass: 1
Flags: W
LayerCount: 2
Fore
SplineSet
453 754 m 1,0,-1
 366 840 l 1,1,-1
 261 840 l 1,2,-1
 192 771 l 1,3,-1
 121 842 l 1,4,-1
 50 771 l 1,5,-1
 137 685 l 1,6,-1
 242 685 l 1,7,-1
 311 754 l 1,8,-1
 382 683 l 1,9,-1
 453 754 l 1,0,-1
450 0 m 1,10,-1
 450 640 l 1,11,-1
 336 640 l 1,12,-1
 336 277 l 1,13,-1
 153 640 l 1,14,-1
 52 640 l 1,15,-1
 52 0 l 1,16,-1
 167 0 l 1,17,-1
 166 363 l 1,18,-1
 349 0 l 1,19,-1
 450 0 l 1,10,-1
EndSplineSet
EndChar

StartChar: Odieresis
Encoding: 214 214 101
Width: 498
GlyphClass: 1
Flags: W
LayerCount: 2
Fore
SplineSet
423 684 m 1,0,-1
 423 800 l 1,1,-1
 307 800 l 1,2,-1
 307 684 l 1,3,-1
 423 684 l 1,0,-1
191 684 m 1,4,-1
 191 800 l 1,5,-1
 75 800 l 1,6,-1
 75 684 l 1,7,-1
 191 684 l 1,4,-1
448 80 m 1,8,-1
 448 560 l 1,9,-1
 368 640 l 1,10,-1
 130 640 l 1,11,-1
 50 560 l 1,12,-1
 50 80 l 1,13,-1
 130 0 l 1,14,-1
 368 0 l 1,15,-1
 448 80 l 1,8,-1
332 111 m 1,16,-1
 166 111 l 1,17,-1
 166 529 l 1,18,-1
 332 529 l 1,19,-1
 332 111 l 1,16,-1
EndSplineSet
EndChar

StartChar: Udieresis
Encoding: 220 220 102
Width: 498
GlyphClass: 1
Flags: W
LayerCount: 2
Fore
SplineSet
422 684 m 1,0,-1
 422 800 l 1,1,-1
 306 800 l 1,2,-1
 306 684 l 1,3,-1
 422 684 l 1,0,-1
190 684 m 1,4,-1
 190 800 l 1,5,-1
 74 800 l 1,6,-1
 74 684 l 1,7,-1
 190 684 l 1,4,-1
448 80 m 1,8,-1
 448 640 l 1,9,-1
 332 640 l 1,10,-1
 332 111 l 1,11,-1
 166 111 l 1,12,-1
 166 640 l 1,13,-1
 50 640 l 1,14,-1
 50 80 l 1,15,-1
 130 0 l 1,16,-1
 368 0 l 1,17,-1
 448 80 l 1,8,-1
EndSplineSet
EndChar

StartChar: aacute
Encoding: 225 225 103
Width: 488
GlyphClass: 1
Flags: W
LayerCount: 2
Fore
SplineSet
375 614 m 1,0,-1
 345 726 l 1,1,-1
 125 637 l 1,2,-1
 147 553 l 1,3,-1
 375 614 l 1,0,-1
438 429 m 1,4,-1
 358 509 l 1,5,-1
 130 509 l 1,6,-1
 50 429 l 1,7,-1
 50 398 l 1,8,-1
 322 398 l 1,9,-1
 322 308 l 1,10,-1
 130 308 l 1,11,-1
 40 218 l 1,12,-1
 40 80 l 1,13,-1
 120 0 l 1,14,-1
 264 0 l 1,15,-1
 322 58 l 1,16,-1
 412 0 l 1,17,-1
 438 0 l 1,18,-1
 438 429 l 1,4,-1
322 106 m 1,19,-1
 156 106 l 1,20,-1
 156 202 l 1,21,-1
 322 202 l 1,22,-1
 322 106 l 1,19,-1
EndSplineSet
EndChar

StartChar: agrave
Encoding: 224 224 104
Width: 488
GlyphClass: 1
Flags: W
LayerCount: 2
Fore
SplineSet
360 637 m 1,0,-1
 140 726 l 1,1,-1
 110 614 l 1,2,-1
 338 553 l 1,3,-1
 360 637 l 1,0,-1
438 429 m 1,4,-1
 358 509 l 1,5,-1
 130 509 l 1,6,-1
 50 429 l 1,7,-1
 50 398 l 1,8,-1
 322 398 l 1,9,-1
 322 308 l 1,10,-1
 130 308 l 1,11,-1
 40 218 l 1,12,-1
 40 80 l 1,13,-1
 120 0 l 1,14,-1
 264 0 l 1,15,-1
 322 58 l 1,16,-1
 412 0 l 1,17,-1
 438 0 l 1,18,-1
 438 429 l 1,4,-1
322 106 m 1,19,-1
 156 106 l 1,20,-1
 156 202 l 1,21,-1
 322 202 l 1,22,-1
 322 106 l 1,19,-1
EndSplineSet
EndChar

StartChar: acircumflex
Encoding: 226 226 105
Width: 488
GlyphClass: 1
Flags: W
LayerCount: 2
Fore
SplineSet
408 610 m 1,0,-1
 302 716 l 1,1,-1
 186 716 l 1,2,-1
 80 610 l 1,3,-1
 136 554 l 1,4,-1
 244 620 l 1,5,-1
 352 554 l 1,6,-1
 408 610 l 1,0,-1
438 429 m 1,7,-1
 358 509 l 1,8,-1
 130 509 l 1,9,-1
 50 429 l 1,10,-1
 50 398 l 1,11,-1
 322 398 l 1,12,-1
 322 308 l 1,13,-1
 130 308 l 1,14,-1
 40 218 l 1,15,-1
 40 80 l 1,16,-1
 120 0 l 1,17,-1
 264 0 l 1,18,-1
 322 58 l 1,19,-1
 412 0 l 1,20,-1
 438 0 l 1,21,-1
 438 429 l 1,7,-1
322 106 m 1,22,-1
 156 106 l 1,23,-1
 156 202 l 1,24,-1
 322 202 l 1,25,-1
 322 106 l 1,22,-1
EndSplineSet
EndChar

StartChar: adieresis
Encoding: 228 228 106
Width: 488
GlyphClass: 1
Flags: W
LayerCount: 2
Fore
SplineSet
413 569 m 1,0,-1
 413 685 l 1,1,-1
 297 685 l 1,2,-1
 297 569 l 1,3,-1
 413 569 l 1,0,-1
181 569 m 1,4,-1
 181 685 l 1,5,-1
 65 685 l 1,6,-1
 65 569 l 1,7,-1
 181 569 l 1,4,-1
438 429 m 1,8,-1
 358 509 l 1,9,-1
 130 509 l 1,10,-1
 50 429 l 1,11,-1
 50 398 l 1,12,-1
 322 398 l 1,13,-1
 322 308 l 1,14,-1
 130 308 l 1,15,-1
 40 218 l 1,16,-1
 40 80 l 1,17,-1
 120 0 l 1,18,-1
 264 0 l 1,19,-1
 322 58 l 1,20,-1
 412 0 l 1,21,-1
 438 0 l 1,22,-1
 438 429 l 1,8,-1
322 106 m 1,23,-1
 156 106 l 1,24,-1
 156 202 l 1,25,-1
 322 202 l 1,26,-1
 322 106 l 1,23,-1
EndSplineSet
EndChar

StartChar: atilde
Encoding: 227 227 107
Width: 493
GlyphClass: 1
Flags: W
LayerCount: 2
Fore
SplineSet
443 632 m 1,0,-1
 356 719 l 1,1,-1
 251 719 l 1,2,-1
 182 649 l 1,3,-1
 111 721 l 1,4,-1
 40 650 l 1,5,-1
 127 563 l 1,6,-1
 232 563 l 1,7,-1
 301 632 l 1,8,-1
 372 561 l 1,9,-1
 443 632 l 1,0,-1
438 429 m 1,10,-1
 358 509 l 1,11,-1
 130 509 l 1,12,-1
 50 429 l 1,13,-1
 50 398 l 1,14,-1
 322 398 l 1,15,-1
 322 308 l 1,16,-1
 130 308 l 1,17,-1
 40 218 l 1,18,-1
 40 80 l 1,19,-1
 120 0 l 1,20,-1
 264 0 l 1,21,-1
 322 58 l 1,22,-1
 412 0 l 1,23,-1
 438 0 l 1,24,-1
 438 429 l 1,10,-1
322 106 m 1,25,-1
 156 106 l 1,26,-1
 156 202 l 1,27,-1
 322 202 l 1,28,-1
 322 106 l 1,25,-1
EndSplineSet
EndChar

StartChar: aring
Encoding: 229 229 108
Width: 488
GlyphClass: 1
Flags: W
LayerCount: 2
Fore
SplineSet
341 593 m 1,0,-1
 341 712 l 1,1,-1
 301 752 l 1,2,-1
 182 752 l 1,3,-1
 142 712 l 1,4,-1
 142 593 l 1,5,-1
 182 553 l 1,6,-1
 301 553 l 1,7,-1
 341 593 l 1,0,-1
283 611 m 1,8,-1
 200 611 l 1,9,-1
 200 694 l 1,10,-1
 283 694 l 1,11,-1
 283 611 l 1,8,-1
438 429 m 1,12,-1
 358 509 l 1,13,-1
 130 509 l 1,14,-1
 50 429 l 1,15,-1
 50 398 l 1,16,-1
 322 398 l 1,17,-1
 322 308 l 1,18,-1
 130 308 l 1,19,-1
 40 218 l 1,20,-1
 40 80 l 1,21,-1
 120 0 l 1,22,-1
 264 0 l 1,23,-1
 322 58 l 1,24,-1
 412 0 l 1,25,-1
 438 0 l 1,26,-1
 438 429 l 1,12,-1
322 106 m 1,27,-1
 156 106 l 1,28,-1
 156 202 l 1,29,-1
 322 202 l 1,30,-1
 322 106 l 1,27,-1
EndSplineSet
EndChar

StartChar: ccedilla
Encoding: 231 231 109
Width: 473
GlyphClass: 1
Flags: W
LayerCount: 2
Fore
SplineSet
448 80 m 1,0,-1
 448 111 l 1,1,-1
 166 111 l 1,2,-1
 166 398 l 1,3,-1
 448 398 l 1,4,-1
 448 429 l 1,5,-1
 368 509 l 1,6,-1
 130 509 l 1,7,-1
 50 429 l 1,8,-1
 50 80 l 1,9,-1
 130 0 l 1,10,-1
 216 0 l 1,11,-1
 216 -84 l 1,12,-1
 274 -84 l 1,13,-1
 274 -142 l 1,14,-1
 216 -142 l 1,15,-1
 216 -108 l 1,16,-1
 158 -108 l 1,17,-1
 158 -160 l 1,18,-1
 198 -200 l 1,19,-1
 292 -200 l 1,20,-1
 332 -160 l 1,21,-1
 332 -66 l 1,22,-1
 292 -26 l 1,23,-1
 274 -26 l 1,24,-1
 274 0 l 1,25,-1
 368 0 l 1,26,-1
 448 80 l 1,0,-1
EndSplineSet
EndChar

StartChar: eacute
Encoding: 233 233 110
Width: 493
GlyphClass: 1
Flags: W
LayerCount: 2
Fore
SplineSet
395 614 m 1,0,-1
 365 726 l 1,1,-1
 145 637 l 1,2,-1
 167 553 l 1,3,-1
 395 614 l 1,0,-1
448 80 m 1,4,-1
 448 106 l 1,5,-1
 166 106 l 1,6,-1
 166 197 l 1,7,-1
 368 197 l 1,8,-1
 448 277 l 1,9,-1
 448 429 l 1,10,-1
 368 509 l 1,11,-1
 130 509 l 1,12,-1
 50 429 l 1,13,-1
 50 80 l 1,14,-1
 130 0 l 1,15,-1
 368 0 l 1,16,-1
 448 80 l 1,4,-1
332 303 m 1,17,-1
 166 303 l 1,18,-1
 166 398 l 1,19,-1
 332 398 l 1,20,-1
 332 303 l 1,17,-1
EndSplineSet
EndChar

StartChar: egrave
Encoding: 232 232 111
Width: 493
GlyphClass: 1
Flags: W
LayerCount: 2
Fore
SplineSet
395 637 m 1,0,-1
 175 726 l 1,1,-1
 145 614 l 1,2,-1
 373 553 l 1,3,-1
 395 637 l 1,0,-1
448 80 m 1,4,-1
 448 106 l 1,5,-1
 166 106 l 1,6,-1
 166 197 l 1,7,-1
 368 197 l 1,8,-1
 448 277 l 1,9,-1
 448 429 l 1,10,-1
 368 509 l 1,11,-1
 130 509 l 1,12,-1
 50 429 l 1,13,-1
 50 80 l 1,14,-1
 130 0 l 1,15,-1
 368 0 l 1,16,-1
 448 80 l 1,4,-1
332 303 m 1,17,-1
 166 303 l 1,18,-1
 166 398 l 1,19,-1
 332 398 l 1,20,-1
 332 303 l 1,17,-1
EndSplineSet
EndChar

StartChar: ecircumflex
Encoding: 234 234 112
Width: 493
GlyphClass: 1
Flags: W
LayerCount: 2
Fore
SplineSet
410 610 m 1,0,-1
 304 716 l 1,1,-1
 188 716 l 1,2,-1
 82 610 l 1,3,-1
 138 554 l 1,4,-1
 246 620 l 1,5,-1
 354 554 l 1,6,-1
 410 610 l 1,0,-1
448 80 m 1,7,-1
 448 106 l 1,8,-1
 166 106 l 1,9,-1
 166 197 l 1,10,-1
 368 197 l 1,11,-1
 448 277 l 1,12,-1
 448 429 l 1,13,-1
 368 509 l 1,14,-1
 130 509 l 1,15,-1
 50 429 l 1,16,-1
 50 80 l 1,17,-1
 130 0 l 1,18,-1
 368 0 l 1,19,-1
 448 80 l 1,7,-1
332 303 m 1,20,-1
 166 303 l 1,21,-1
 166 398 l 1,22,-1
 332 398 l 1,23,-1
 332 303 l 1,20,-1
EndSplineSet
EndChar

StartChar: edieresis
Encoding: 235 235 113
Width: 493
GlyphClass: 1
Flags: W
LayerCount: 2
Fore
SplineSet
421 569 m 1,0,-1
 421 685 l 1,1,-1
 305 685 l 1,2,-1
 305 569 l 1,3,-1
 421 569 l 1,0,-1
189 569 m 1,4,-1
 189 685 l 1,5,-1
 73 685 l 1,6,-1
 73 569 l 1,7,-1
 189 569 l 1,4,-1
448 80 m 1,8,-1
 448 106 l 1,9,-1
 166 106 l 1,10,-1
 166 197 l 1,11,-1
 368 197 l 1,12,-1
 448 277 l 1,13,-1
 448 429 l 1,14,-1
 368 509 l 1,15,-1
 130 509 l 1,16,-1
 50 429 l 1,17,-1
 50 80 l 1,18,-1
 130 0 l 1,19,-1
 368 0 l 1,20,-1
 448 80 l 1,8,-1
332 303 m 1,21,-1
 166 303 l 1,22,-1
 166 398 l 1,23,-1
 332 398 l 1,24,-1
 332 303 l 1,21,-1
EndSplineSet
EndChar

StartChar: iacute
Encoding: 237 237 114
Width: 216
GlyphClass: 1
Flags: W
LayerCount: 2
Fore
SplineSet
226 614 m 1,0,-1
 196 726 l 1,1,-1
 -24 637 l 1,2,-1
 -2 553 l 1,3,-1
 226 614 l 1,0,-1
166 509 m 1,4,-1
 50 509 l 1,5,-1
 50 0 l 1,6,-1
 166 0 l 1,7,-1
 166 509 l 1,4,-1
EndSplineSet
EndChar

StartChar: igrave
Encoding: 236 236 115
Width: 216
GlyphClass: 1
Flags: W
LayerCount: 2
Fore
SplineSet
230 637 m 1,0,-1
 10 726 l 1,1,-1
 -20 614 l 1,2,-1
 208 553 l 1,3,-1
 230 637 l 1,0,-1
166 509 m 1,4,-1
 50 509 l 1,5,-1
 50 0 l 1,6,-1
 166 0 l 1,7,-1
 166 509 l 1,4,-1
EndSplineSet
EndChar

StartChar: icircumflex
Encoding: 238 238 116
Width: 216
GlyphClass: 1
Flags: W
LayerCount: 2
Fore
SplineSet
272 610 m 1,0,-1
 166 716 l 1,1,-1
 50 716 l 1,2,-1
 -56 610 l 1,3,-1
 0 554 l 1,4,-1
 108 620 l 1,5,-1
 216 554 l 1,6,-1
 272 610 l 1,0,-1
166 509 m 1,7,-1
 50 509 l 1,8,-1
 50 0 l 1,9,-1
 166 0 l 1,10,-1
 166 509 l 1,7,-1
EndSplineSet
EndChar

StartChar: idieresis
Encoding: 239 239 117
Width: 216
GlyphClass: 1
Flags: W
LayerCount: 2
Fore
SplineSet
261 569 m 1,0,-1
 261 685 l 1,1,-1
 145 685 l 1,2,-1
 145 569 l 1,3,-1
 261 569 l 1,0,-1
74 569 m 1,4,-1
 74 685 l 1,5,-1
 -42 685 l 1,6,-1
 -42 569 l 1,7,-1
 74 569 l 1,4,-1
166 509 m 1,8,-1
 50 509 l 1,9,-1
 50 0 l 1,10,-1
 166 0 l 1,11,-1
 166 509 l 1,8,-1
EndSplineSet
EndChar

StartChar: ntilde
Encoding: 241 241 118
Width: 488
GlyphClass: 1
Flags: W
LayerCount: 2
Fore
SplineSet
450 632 m 1,0,-1
 363 718 l 1,1,-1
 258 718 l 1,2,-1
 189 649 l 1,3,-1
 118 720 l 1,4,-1
 47 649 l 1,5,-1
 134 563 l 1,6,-1
 239 563 l 1,7,-1
 308 632 l 1,8,-1
 379 561 l 1,9,-1
 450 632 l 1,0,-1
438 429 m 1,10,-1
 358 509 l 1,11,-1
 224 509 l 1,12,-1
 166 451 l 1,13,-1
 76 509 l 1,14,-1
 50 509 l 1,15,-1
 50 0 l 1,16,-1
 166 0 l 1,17,-1
 166 398 l 1,18,-1
 322 398 l 1,19,-1
 322 0 l 1,20,-1
 438 0 l 1,21,-1
 438 429 l 1,10,-1
EndSplineSet
EndChar

StartChar: oacute
Encoding: 243 243 119
Width: 498
GlyphClass: 1
Flags: W
LayerCount: 2
Fore
SplineSet
385 614 m 1,0,-1
 355 726 l 1,1,-1
 135 637 l 1,2,-1
 157 553 l 1,3,-1
 385 614 l 1,0,-1
448 80 m 1,4,-1
 448 429 l 1,5,-1
 368 509 l 1,6,-1
 130 509 l 1,7,-1
 50 429 l 1,8,-1
 50 80 l 1,9,-1
 130 0 l 1,10,-1
 368 0 l 1,11,-1
 448 80 l 1,4,-1
332 111 m 1,12,-1
 166 111 l 1,13,-1
 166 398 l 1,14,-1
 332 398 l 1,15,-1
 332 111 l 1,12,-1
EndSplineSet
EndChar

StartChar: ograve
Encoding: 242 242 120
Width: 498
GlyphClass: 1
Flags: W
LayerCount: 2
Fore
SplineSet
385 637 m 1,0,-1
 165 726 l 1,1,-1
 135 614 l 1,2,-1
 363 553 l 1,3,-1
 385 637 l 1,0,-1
448 80 m 1,4,-1
 448 429 l 1,5,-1
 368 509 l 1,6,-1
 130 509 l 1,7,-1
 50 429 l 1,8,-1
 50 80 l 1,9,-1
 130 0 l 1,10,-1
 368 0 l 1,11,-1
 448 80 l 1,4,-1
332 111 m 1,12,-1
 166 111 l 1,13,-1
 166 398 l 1,14,-1
 332 398 l 1,15,-1
 332 111 l 1,12,-1
EndSplineSet
EndChar

StartChar: ocircumflex
Encoding: 244 244 121
Width: 498
GlyphClass: 1
Flags: W
LayerCount: 2
Fore
SplineSet
413 610 m 1,0,-1
 307 716 l 1,1,-1
 191 716 l 1,2,-1
 85 610 l 1,3,-1
 141 554 l 1,4,-1
 249 620 l 1,5,-1
 357 554 l 1,6,-1
 413 610 l 1,0,-1
448 80 m 1,7,-1
 448 429 l 1,8,-1
 368 509 l 1,9,-1
 130 509 l 1,10,-1
 50 429 l 1,11,-1
 50 80 l 1,12,-1
 130 0 l 1,13,-1
 368 0 l 1,14,-1
 448 80 l 1,7,-1
332 111 m 1,15,-1
 166 111 l 1,16,-1
 166 398 l 1,17,-1
 332 398 l 1,18,-1
 332 111 l 1,15,-1
EndSplineSet
EndChar

StartChar: odieresis
Encoding: 246 246 122
Width: 498
GlyphClass: 1
Flags: W
LayerCount: 2
Fore
SplineSet
423 569 m 1,0,-1
 423 685 l 1,1,-1
 307 685 l 1,2,-1
 307 569 l 1,3,-1
 423 569 l 1,0,-1
191 569 m 1,4,-1
 191 685 l 1,5,-1
 75 685 l 1,6,-1
 75 569 l 1,7,-1
 191 569 l 1,4,-1
448 80 m 1,8,-1
 448 429 l 1,9,-1
 368 509 l 1,10,-1
 130 509 l 1,11,-1
 50 429 l 1,12,-1
 50 80 l 1,13,-1
 130 0 l 1,14,-1
 368 0 l 1,15,-1
 448 80 l 1,8,-1
332 111 m 1,16,-1
 166 111 l 1,17,-1
 166 398 l 1,18,-1
 332 398 l 1,19,-1
 332 111 l 1,16,-1
EndSplineSet
EndChar

StartChar: otilde
Encoding: 245 245 123
Width: 498
GlyphClass: 1
Flags: W
LayerCount: 2
Fore
SplineSet
453 632 m 1,0,-1
 366 718 l 1,1,-1
 261 718 l 1,2,-1
 192 649 l 1,3,-1
 121 720 l 1,4,-1
 50 650 l 1,5,-1
 137 563 l 1,6,-1
 242 563 l 1,7,-1
 311 632 l 1,8,-1
 382 561 l 1,9,-1
 453 632 l 1,0,-1
450 80 m 1,10,-1
 450 429 l 1,11,-1
 370 509 l 1,12,-1
 132 509 l 1,13,-1
 52 429 l 1,14,-1
 52 80 l 1,15,-1
 132 0 l 1,16,-1
 370 0 l 1,17,-1
 450 80 l 1,10,-1
334 111 m 1,18,-1
 168 111 l 1,19,-1
 168 398 l 1,20,-1
 334 398 l 1,21,-1
 334 111 l 1,18,-1
EndSplineSet
EndChar

StartChar: uacute
Encoding: 250 250 124
Width: 488
GlyphClass: 1
Flags: W
LayerCount: 2
Fore
SplineSet
400 614 m 1,0,-1
 370 726 l 1,1,-1
 150 637 l 1,2,-1
 172 553 l 1,3,-1
 400 614 l 1,0,-1
438 509 m 1,4,-1
 322 509 l 1,5,-1
 322 111 l 1,6,-1
 166 111 l 1,7,-1
 166 509 l 1,8,-1
 50 509 l 1,9,-1
 50 80 l 1,10,-1
 130 0 l 1,11,-1
 264 0 l 1,12,-1
 322 58 l 1,13,-1
 412 0 l 1,14,-1
 438 0 l 1,15,-1
 438 509 l 1,4,-1
EndSplineSet
EndChar

StartChar: ugrave
Encoding: 249 249 125
Width: 488
GlyphClass: 1
Flags: W
LayerCount: 2
Fore
SplineSet
375 637 m 1,0,-1
 155 726 l 1,1,-1
 125 614 l 1,2,-1
 353 553 l 1,3,-1
 375 637 l 1,0,-1
438 509 m 1,4,-1
 322 509 l 1,5,-1
 322 111 l 1,6,-1
 166 111 l 1,7,-1
 166 509 l 1,8,-1
 50 509 l 1,9,-1
 50 80 l 1,10,-1
 130 0 l 1,11,-1
 264 0 l 1,12,-1
 322 58 l 1,13,-1
 412 0 l 1,14,-1
 438 0 l 1,15,-1
 438 509 l 1,4,-1
EndSplineSet
EndChar

StartChar: ucircumflex
Encoding: 251 251 126
Width: 488
GlyphClass: 1
Flags: W
LayerCount: 2
Fore
SplineSet
411 610 m 1,0,-1
 305 716 l 1,1,-1
 189 716 l 1,2,-1
 83 610 l 1,3,-1
 139 554 l 1,4,-1
 247 620 l 1,5,-1
 355 554 l 1,6,-1
 411 610 l 1,0,-1
438 509 m 1,7,-1
 322 509 l 1,8,-1
 322 111 l 1,9,-1
 166 111 l 1,10,-1
 166 509 l 1,11,-1
 50 509 l 1,12,-1
 50 80 l 1,13,-1
 130 0 l 1,14,-1
 264 0 l 1,15,-1
 322 58 l 1,16,-1
 412 0 l 1,17,-1
 438 0 l 1,18,-1
 438 509 l 1,7,-1
EndSplineSet
EndChar

StartChar: udieresis
Encoding: 252 252 127
Width: 488
GlyphClass: 1
Flags: W
LayerCount: 2
Fore
SplineSet
420 569 m 1,0,-1
 420 685 l 1,1,-1
 304 685 l 1,2,-1
 304 569 l 1,3,-1
 420 569 l 1,0,-1
188 569 m 1,4,-1
 188 685 l 1,5,-1
 72 685 l 1,6,-1
 72 569 l 1,7,-1
 188 569 l 1,4,-1
438 509 m 1,8,-1
 322 509 l 1,9,-1
 322 111 l 1,10,-1
 166 111 l 1,11,-1
 166 509 l 1,12,-1
 50 509 l 1,13,-1
 50 80 l 1,14,-1
 130 0 l 1,15,-1
 264 0 l 1,16,-1
 322 58 l 1,17,-1
 412 0 l 1,18,-1
 438 0 l 1,19,-1
 438 509 l 1,8,-1
EndSplineSet
EndChar

StartChar: dagger
Encoding: 8224 8224 128
Width: 414
GlyphClass: 1
Flags: W
LayerCount: 2
Fore
SplineSet
354 558 m 1,0,-1
 354 640 l 1,1,-1
 248 640 l 1,2,-1
 248 746 l 1,3,-1
 166 746 l 1,4,-1
 166 640 l 1,5,-1
 60 640 l 1,6,-1
 60 558 l 1,7,-1
 166 558 l 1,8,-1
 166 328 l 1,9,-1
 248 328 l 1,10,-1
 248 558 l 1,11,-1
 354 558 l 1,0,-1
EndSplineSet
EndChar

StartChar: degree
Encoding: 176 176 129
Width: 319
GlyphClass: 1
Flags: W
LayerCount: 2
Fore
SplineSet
259 448 m 1,0,-1
 259 600 l 1,1,-1
 219 640 l 1,2,-1
 100 640 l 1,3,-1
 60 600 l 1,4,-1
 60 448 l 1,5,-1
 100 408 l 1,6,-1
 219 408 l 1,7,-1
 259 448 l 1,0,-1
201 466 m 1,8,-1
 118 466 l 1,9,-1
 118 582 l 1,10,-1
 201 582 l 1,11,-1
 201 466 l 1,8,-1
EndSplineSet
EndChar

StartChar: cent
Encoding: 162 162 130
Width: 475
GlyphClass: 1
Flags: W
LayerCount: 2
Fore
SplineSet
443 157 m 1,0,-1
 443 188 l 1,1,-1
 161 188 l 1,2,-1
 161 438 l 1,3,-1
 443 438 l 1,4,-1
 443 469 l 1,5,-1
 363 549 l 1,6,-1
 289 549 l 1,7,-1
 289 640 l 1,8,-1
 201 640 l 1,9,-1
 201 549 l 1,10,-1
 125 549 l 1,11,-1
 45 469 l 1,12,-1
 45 157 l 1,13,-1
 125 77 l 1,14,-1
 201 77 l 1,15,-1
 201 1 l 1,16,-1
 289 1 l 1,17,-1
 289 77 l 1,18,-1
 363 77 l 1,19,-1
 443 157 l 1,0,-1
EndSplineSet
EndChar

StartChar: section
Encoding: 167 167 131
Width: 498
GlyphClass: 1
Flags: W
LayerCount: 2
Fore
SplineSet
448 -4 m 1,0,-1
 448 156 l 1,1,-1
 408 196 l 1,2,-1
 448 236 l 1,3,-1
 448 356 l 1,4,-1
 368 436 l 1,5,-1
 166 436 l 1,6,-1
 166 524 l 1,7,-1
 448 524 l 1,8,-1
 448 560 l 1,9,-1
 368 640 l 1,10,-1
 130 640 l 1,11,-1
 50 560 l 1,12,-1
 50 396 l 1,13,-1
 90 356 l 1,14,-1
 50 316 l 1,15,-1
 50 196 l 1,16,-1
 130 116 l 1,17,-1
 332 116 l 1,18,-1
 332 32 l 1,19,-1
 50 32 l 1,20,-1
 50 -4 l 1,21,-1
 130 -84 l 1,22,-1
 368 -84 l 1,23,-1
 448 -4 l 1,0,-1
332 227 m 1,24,-1
 166 227 l 1,25,-1
 166 321 l 1,26,-1
 332 321 l 1,27,-1
 332 227 l 1,24,-1
EndSplineSet
EndChar

StartChar: bullet
Encoding: 8226 8226 132
Width: 354
GlyphClass: 1
Flags: W
LayerCount: 2
Fore
SplineSet
294 164 m 1,0,-1
 294 398 l 1,1,-1
 60 398 l 1,2,-1
 60 164 l 1,3,-1
 294 164 l 1,0,-1
EndSplineSet
EndChar

StartChar: paragraph
Encoding: 182 182 133
Width: 467
GlyphClass: 1
Flags: W
LayerCount: 2
Fore
SplineSet
404 -160 m 1,0,-1
 404 640 l 1,1,-1
 140 640 l 1,2,-1
 60 560 l 1,3,-1
 60 329 l 1,4,-1
 140 249 l 1,5,-1
 312 249 l 1,6,-1
 312 -160 l 1,7,-1
 404 -160 l 1,0,-1
EndSplineSet
EndChar

StartChar: germandbls
Encoding: 223 223 134
Width: 498
GlyphClass: 1
Flags: W
LayerCount: 2
Fore
SplineSet
448 80 m 1,0,-1
 448 277 l 1,1,-1
 398 327 l 1,2,-1
 448 377 l 1,3,-1
 448 560 l 1,4,-1
 368 640 l 1,5,-1
 130 640 l 1,6,-1
 50 560 l 1,7,-1
 50 0 l 1,8,-1
 166 0 l 1,9,-1
 166 529 l 1,10,-1
 332 529 l 1,11,-1
 332 383 l 1,12,-1
 246 383 l 1,13,-1
 246 271 l 1,14,-1
 332 271 l 1,15,-1
 332 111 l 1,16,-1
 246 111 l 1,17,-1
 246 0 l 1,18,-1
 368 0 l 1,19,-1
 448 80 l 1,0,-1
EndSplineSet
EndChar

StartChar: acute
Encoding: 180 180 135
Width: 406
GlyphClass: 1
Flags: W
LayerCount: 2
Fore
SplineSet
361 704 m 1,0,-1
 331 816 l 1,1,-1
 111 727 l 1,2,-1
 133 643 l 1,3,-1
 361 704 l 1,0,-1
EndSplineSet
EndChar

StartChar: dieresis
Encoding: 168 168 136
Width: 502
GlyphClass: 1
Flags: W
LayerCount: 2
Fore
SplineSet
433 684 m 1,0,-1
 433 800 l 1,1,-1
 317 800 l 1,2,-1
 317 684 l 1,3,-1
 433 684 l 1,0,-1
201 684 m 1,4,-1
 201 800 l 1,5,-1
 85 800 l 1,6,-1
 85 684 l 1,7,-1
 201 684 l 1,4,-1
EndSplineSet
EndChar

StartChar: AE
Encoding: 198 198 137
Width: 740
GlyphClass: 1
Flags: W
LayerCount: 2
Fore
SplineSet
478 376 m 1,0,-1
 478 529 l 1,1,-1
 699 529 l 1,2,-1
 699 640 l 1,3,-1
 313 640 l 1,4,-1
 32 0 l 1,5,-1
 159 0 l 1,6,-1
 226 157 l 1,7,-1
 367 157 l 1,8,-1
 366 0 l 1,9,-1
 699 0 l 1,10,-1
 699 111 l 1,11,-1
 478 111 l 1,12,-1
 478 264 l 1,13,-1
 623 264 l 1,14,-1
 623 376 l 1,15,-1
 478 376 l 1,0,-1
367 262 m 1,16,-1
 271 262 l 1,17,-1
 367 497 l 1,18,-1
 367 262 l 1,16,-1
EndSplineSet
EndChar

StartChar: Oslash
Encoding: 216 216 138
Width: 586
GlyphClass: 1
Flags: W
LayerCount: 2
Fore
SplineSet
536 624 m 1,0,-1
 488 656 l 1,1,-1
 451 601 l 1,2,-1
 412 640 l 1,3,-1
 174 640 l 1,4,-1
 94 560 l 1,5,-1
 94 81 l 1,6,-1
 50 16 l 1,7,-1
 98 -16 l 1,8,-1
 135 39 l 1,9,-1
 174 0 l 1,10,-1
 412 0 l 1,11,-1
 492 80 l 1,12,-1
 492 559 l 1,13,-1
 536 624 l 1,0,-1
376 493 m 1,14,-1
 210 250 l 1,15,-1
 210 529 l 1,16,-1
 376 529 l 1,17,-1
 376 493 l 1,14,-1
376 111 m 1,18,-1
 210 111 l 1,19,-1
 210 147 l 1,20,-1
 376 390 l 1,21,-1
 376 111 l 1,18,-1
EndSplineSet
EndChar

StartChar: plusminus
Encoding: 177 177 139
Width: 488
GlyphClass: 1
Flags: W
LayerCount: 2
Fore
SplineSet
428 282 m 1,0,-1
 428 398 l 1,1,-1
 302 398 l 1,2,-1
 302 523 l 1,3,-1
 186 523 l 1,4,-1
 186 398 l 1,5,-1
 60 398 l 1,6,-1
 60 282 l 1,7,-1
 186 282 l 1,8,-1
 186 156 l 1,9,-1
 302 156 l 1,10,-1
 302 282 l 1,11,-1
 428 282 l 1,0,-1
428 0 m 1,12,-1
 428 111 l 1,13,-1
 60 111 l 1,14,-1
 60 0 l 1,15,-1
 428 0 l 1,12,-1
EndSplineSet
EndChar

StartChar: yen
Encoding: 165 165 140
Width: 477
GlyphClass: 1
Flags: W
LayerCount: 2
Fore
SplineSet
477 640 m 1,0,-1
 345 640 l 1,1,-1
 242 387 l 1,2,-1
 135 640 l 1,3,-1
 0 640 l 1,4,-1
 127 378 l 1,5,-1
 39 378 l 1,6,-1
 39 320 l 1,7,-1
 155 320 l 1,8,-1
 183 262 l 1,9,-1
 39 262 l 1,10,-1
 39 204 l 1,11,-1
 183 204 l 1,12,-1
 184 0 l 1,13,-1
 299 0 l 1,14,-1
 299 204 l 1,15,-1
 443 204 l 1,16,-1
 443 262 l 1,17,-1
 299 262 l 1,18,-1
 327 320 l 1,19,-1
 443 320 l 1,20,-1
 443 378 l 1,21,-1
 353 378 l 1,22,-1
 477 640 l 1,0,-1
EndSplineSet
EndChar

StartChar: ae
Encoding: 230 230 141
Width: 705
GlyphClass: 1
Flags: W
LayerCount: 2
Fore
SplineSet
660 80 m 1,0,-1
 660 106 l 1,1,-1
 408 106 l 1,2,-1
 408 197 l 1,3,-1
 580 197 l 1,4,-1
 660 277 l 1,5,-1
 660 429 l 1,6,-1
 580 509 l 1,7,-1
 400 509 l 1,8,-1
 350 459 l 1,9,-1
 300 509 l 1,10,-1
 130 509 l 1,11,-1
 50 429 l 1,12,-1
 50 398 l 1,13,-1
 292 398 l 1,14,-1
 292 308 l 1,15,-1
 130 308 l 1,16,-1
 40 218 l 1,17,-1
 40 80 l 1,18,-1
 120 0 l 1,19,-1
 300 0 l 1,20,-1
 350 50 l 1,21,-1
 400 0 l 1,22,-1
 580 0 l 1,23,-1
 660 80 l 1,0,-1
292 106 m 1,24,-1
 156 106 l 1,25,-1
 156 202 l 1,26,-1
 292 202 l 1,27,-1
 292 106 l 1,24,-1
544 303 m 1,28,-1
 408 303 l 1,29,-1
 408 398 l 1,30,-1
 544 398 l 1,31,-1
 544 303 l 1,28,-1
EndSplineSet
EndChar

StartChar: oslash
Encoding: 248 248 142
Width: 498
GlyphClass: 1
Flags: W
LayerCount: 2
Fore
SplineSet
503 489 m 1,0,-1
 461 529 l 1,1,-1
 406 470 l 1,2,-1
 367 509 l 1,3,-1
 129 509 l 1,4,-1
 49 429 l 1,5,-1
 49 80 l 1,6,-1
 -6 20 l 1,7,-1
 36 -20 l 1,8,-1
 90 39 l 1,9,-1
 129 0 l 1,10,-1
 367 0 l 1,11,-1
 447 80 l 1,12,-1
 447 428 l 1,13,-1
 503 489 l 1,0,-1
331 387 m 1,14,-1
 165 206 l 1,15,-1
 165 398 l 1,16,-1
 331 398 l 1,17,-1
 331 387 l 1,14,-1
331 111 m 1,18,-1
 165 111 l 1,19,-1
 165 121 l 1,20,-1
 331 302 l 1,21,-1
 331 111 l 1,18,-1
EndSplineSet
EndChar

StartChar: questiondown
Encoding: 191 191 143
Width: 416
GlyphClass: 1
Flags: W
LayerCount: 2
Fore
SplineSet
458 -51 m 1,0,-1
 458 -15 l 1,1,-1
 176 -15 l 1,2,-1
 176 131 l 1,3,-1
 262 131 l 1,4,-1
 342 211 l 1,5,-1
 342 326 l 1,6,-1
 226 326 l 1,7,-1
 226 247 l 1,8,-1
 140 247 l 1,9,-1
 60 167 l 1,10,-1
 60 -51 l 1,11,-1
 140 -131 l 1,12,-1
 378 -131 l 1,13,-1
 458 -51 l 1,0,-1
344 389 m 1,14,-1
 344 509 l 1,15,-1
 224 509 l 1,16,-1
 224 389 l 1,17,-1
 344 389 l 1,14,-1
EndSplineSet
EndChar

StartChar: exclamdown
Encoding: 161 161 144
Width: 236
GlyphClass: 1
Flags: W
LayerCount: 2
Fore
SplineSet
178 388 m 1,0,-1
 178 508 l 1,1,-1
 58 508 l 1,2,-1
 58 388 l 1,3,-1
 178 388 l 1,0,-1
196 -132 m 1,4,-1
 162 325 l 1,5,-1
 75 325 l 1,6,-1
 40 -132 l 1,7,-1
 196 -132 l 1,4,-1
EndSplineSet
EndChar

StartChar: florin
Encoding: 402 402 145
Width: 280
GlyphClass: 1
Flags: W
LayerCount: 2
Fore
SplineSet
280 564 m 1,0,-1
 280 680 l 1,1,-1
 160 680 l 1,2,-1
 80 600 l 1,3,-1
 80 398 l 1,4,-1
 30 398 l 1,5,-1
 30 282 l 1,6,-1
 80 282 l 1,7,-1
 80 -44 l 1,8,-1
 0 -44 l 1,9,-1
 0 -160 l 1,10,-1
 116 -160 l 1,11,-1
 196 -80 l 1,12,-1
 196 282 l 1,13,-1
 246 282 l 1,14,-1
 246 398 l 1,15,-1
 196 398 l 1,16,-1
 196 564 l 1,17,-1
 280 564 l 1,0,-1
EndSplineSet
EndChar

StartChar: guillemotleft
Encoding: 171 171 146
Width: 598
GlyphClass: 1
Flags: W
LayerCount: 2
Fore
SplineSet
558 163 m 1,0,-1
 421 300 l 1,1,-1
 558 437 l 1,2,-1
 486 509 l 1,3,-1
 277 300 l 1,4,-1
 486 91 l 1,5,-1
 558 163 l 1,0,-1
321 163 m 1,6,-1
 184 300 l 1,7,-1
 321 437 l 1,8,-1
 249 509 l 1,9,-1
 40 300 l 1,10,-1
 249 91 l 1,11,-1
 321 163 l 1,6,-1
EndSplineSet
EndChar

StartChar: guillemotright
Encoding: 187 187 147
Width: 598
GlyphClass: 1
Flags: W
LayerCount: 2
Fore
SplineSet
558 300 m 1,0,-1
 349 509 l 1,1,-1
 277 437 l 1,2,-1
 414 300 l 1,3,-1
 277 163 l 1,4,-1
 349 91 l 1,5,-1
 558 300 l 1,0,-1
321 300 m 1,6,-1
 112 509 l 1,7,-1
 40 437 l 1,8,-1
 177 300 l 1,9,-1
 40 163 l 1,10,-1
 112 91 l 1,11,-1
 321 300 l 1,6,-1
EndSplineSet
EndChar

StartChar: ellipsis
Encoding: 8230 8230 148
Width: 700
GlyphClass: 1
Flags: W
LayerCount: 2
Fore
SplineSet
658 0 m 1,0,-1
 658 120 l 1,1,-1
 538 120 l 1,2,-1
 538 0 l 1,3,-1
 658 0 l 1,0,-1
418 0 m 1,4,-1
 418 120 l 1,5,-1
 298 120 l 1,6,-1
 298 0 l 1,7,-1
 418 0 l 1,4,-1
178 0 m 1,8,-1
 178 120 l 1,9,-1
 58 120 l 1,10,-1
 58 0 l 1,11,-1
 178 0 l 1,8,-1
EndSplineSet
EndChar

StartChar: Agrave
Encoding: 192 192 149
Width: 473
GlyphClass: 1
Flags: W
LayerCount: 2
Fore
SplineSet
355 769 m 1,0,-1
 135 858 l 1,1,-1
 105 746 l 1,2,-1
 333 685 l 1,3,-1
 355 769 l 1,0,-1
473 0 m 1,4,-1
 289 640 l 1,5,-1
 183 640 l 1,6,-1
 0 0 l 1,7,-1
 116 0 l 1,8,-1
 156 157 l 1,9,-1
 316 157 l 1,10,-1
 361 0 l 1,11,-1
 473 0 l 1,4,-1
285 262 m 1,12,-1
 186 262 l 1,13,-1
 236 454 l 1,14,-1
 285 262 l 1,12,-1
EndSplineSet
EndChar

StartChar: Atilde
Encoding: 195 195 150
Width: 473
GlyphClass: 1
Flags: W
LayerCount: 2
Fore
SplineSet
427 754 m 1,0,-1
 340 840 l 1,1,-1
 235 840 l 1,2,-1
 166 771 l 1,3,-1
 95 842 l 1,4,-1
 24 771 l 1,5,-1
 111 685 l 1,6,-1
 216 685 l 1,7,-1
 285 754 l 1,8,-1
 356 683 l 1,9,-1
 427 754 l 1,0,-1
473 0 m 1,10,-1
 289 640 l 1,11,-1
 183 640 l 1,12,-1
 0 0 l 1,13,-1
 116 0 l 1,14,-1
 156 157 l 1,15,-1
 316 157 l 1,16,-1
 361 0 l 1,17,-1
 473 0 l 1,10,-1
285 262 m 1,18,-1
 186 262 l 1,19,-1
 236 454 l 1,20,-1
 285 262 l 1,18,-1
EndSplineSet
EndChar

StartChar: Otilde
Encoding: 213 213 151
Width: 507
GlyphClass: 1
Flags: W
LayerCount: 2
Fore
SplineSet
453 754 m 1,0,-1
 366 840 l 1,1,-1
 261 840 l 1,2,-1
 192 771 l 1,3,-1
 121 842 l 1,4,-1
 50 771 l 1,5,-1
 137 685 l 1,6,-1
 242 685 l 1,7,-1
 311 754 l 1,8,-1
 382 683 l 1,9,-1
 453 754 l 1,0,-1
457 80 m 1,10,-1
 457 560 l 1,11,-1
 377 640 l 1,12,-1
 139 640 l 1,13,-1
 59 560 l 1,14,-1
 59 80 l 1,15,-1
 139 0 l 1,16,-1
 377 0 l 1,17,-1
 457 80 l 1,10,-1
341 111 m 1,18,-1
 175 111 l 1,19,-1
 175 529 l 1,20,-1
 341 529 l 1,21,-1
 341 111 l 1,18,-1
EndSplineSet
EndChar

StartChar: OE
Encoding: 338 338 152
Width: 720
GlyphClass: 1
Flags: W
LayerCount: 2
Fore
SplineSet
458 376 m 1,0,-1
 458 529 l 1,1,-1
 690 529 l 1,2,-1
 690 640 l 1,3,-1
 422 640 l 1,4,-1
 372 590 l 1,5,-1
 322 640 l 1,6,-1
 130 640 l 1,7,-1
 50 560 l 1,8,-1
 50 80 l 1,9,-1
 130 0 l 1,10,-1
 322 0 l 1,11,-1
 372 50 l 1,12,-1
 422 0 l 1,13,-1
 690 0 l 1,14,-1
 690 111 l 1,15,-1
 458 111 l 1,16,-1
 458 264 l 1,17,-1
 619 264 l 1,18,-1
 619 376 l 1,19,-1
 458 376 l 1,0,-1
302 111 m 1,20,-1
 166 111 l 1,21,-1
 166 529 l 1,22,-1
 302 529 l 1,23,-1
 302 111 l 1,20,-1
EndSplineSet
EndChar

StartChar: oe
Encoding: 339 339 153
Width: 715
GlyphClass: 1
Flags: W
LayerCount: 2
Fore
SplineSet
670 80 m 1,0,-1
 670 111 l 1,1,-1
 418 111 l 1,2,-1
 418 202 l 1,3,-1
 590 202 l 1,4,-1
 670 282 l 1,5,-1
 670 429 l 1,6,-1
 590 509 l 1,7,-1
 410 509 l 1,8,-1
 360 459 l 1,9,-1
 310 509 l 1,10,-1
 130 509 l 1,11,-1
 50 429 l 1,12,-1
 50 80 l 1,13,-1
 130 0 l 1,14,-1
 310 0 l 1,15,-1
 360 50 l 1,16,-1
 410 0 l 1,17,-1
 590 0 l 1,18,-1
 670 80 l 1,0,-1
302 111 m 1,19,-1
 166 111 l 1,20,-1
 166 398 l 1,21,-1
 302 398 l 1,22,-1
 302 111 l 1,19,-1
554 303 m 1,23,-1
 418 303 l 1,24,-1
 418 398 l 1,25,-1
 554 398 l 1,26,-1
 554 303 l 1,23,-1
EndSplineSet
EndChar

StartChar: endash
Encoding: 8211 8211 154
Width: 425
GlyphClass: 1
Flags: W
LayerCount: 2
Fore
SplineSet
400 237 m 1,0,-1
 400 343 l 1,1,-1
 25 343 l 1,2,-1
 25 237 l 1,3,-1
 400 237 l 1,0,-1
EndSplineSet
EndChar

StartChar: emdash
Encoding: 8212 8212 155
Width: 575
GlyphClass: 1
Flags: W
LayerCount: 2
Fore
SplineSet
550 237 m 1,0,-1
 550 343 l 1,1,-1
 25 343 l 1,2,-1
 25 237 l 1,3,-1
 550 237 l 1,0,-1
EndSplineSet
EndChar

StartChar: quotedblleft
Encoding: 8220 8220 156
Width: 397
GlyphClass: 1
Flags: W
LayerCount: 2
Fore
SplineSet
347 368 m 1,0,-1
 347 640 l 1,1,-1
 211 640 l 1,2,-1
 281 368 l 1,3,-1
 347 368 l 1,0,-1
186 368 m 1,4,-1
 186 640 l 1,5,-1
 50 640 l 1,6,-1
 120 368 l 1,7,-1
 186 368 l 1,4,-1
EndSplineSet
EndChar

StartChar: quotedblright
Encoding: 8221 8221 157
Width: 397
GlyphClass: 1
Flags: W
LayerCount: 2
Fore
SplineSet
347 640 m 1,0,-1
 211 640 l 1,1,-1
 211 368 l 1,2,-1
 277 368 l 1,3,-1
 347 640 l 1,0,-1
186 640 m 1,4,-1
 50 640 l 1,5,-1
 50 368 l 1,6,-1
 116 368 l 1,7,-1
 186 640 l 1,4,-1
EndSplineSet
EndChar

StartChar: quoteleft
Encoding: 8216 8216 158
Width: 236
GlyphClass: 1
Flags: W
LayerCount: 2
Fore
SplineSet
186 368 m 1,0,-1
 186 640 l 1,1,-1
 50 640 l 1,2,-1
 120 368 l 1,3,-1
 186 368 l 1,0,-1
EndSplineSet
EndChar

StartChar: quoteright
Encoding: 8217 8217 159
Width: 236
GlyphClass: 1
Flags: W
LayerCount: 2
Fore
SplineSet
186 640 m 1,0,-1
 50 640 l 1,1,-1
 50 368 l 1,2,-1
 116 368 l 1,3,-1
 186 640 l 1,0,-1
EndSplineSet
EndChar

StartChar: divide
Encoding: 247 247 160
Width: 495
GlyphClass: 1
Flags: W
LayerCount: 2
Fore
SplineSet
311 393 m 1,0,-1
 311 524 l 1,1,-1
 185 524 l 1,2,-1
 185 393 l 1,3,-1
 311 393 l 1,0,-1
460 237 m 1,4,-1
 460 343 l 1,5,-1
 35 343 l 1,6,-1
 35 237 l 1,7,-1
 460 237 l 1,4,-1
311 55 m 1,8,-1
 311 186 l 1,9,-1
 185 186 l 1,10,-1
 185 55 l 1,11,-1
 311 55 l 1,8,-1
EndSplineSet
EndChar

StartChar: ydieresis
Encoding: 255 255 161
Width: 467
GlyphClass: 1
Flags: W
LayerCount: 2
Fore
SplineSet
433 569 m 1,0,-1
 433 685 l 1,1,-1
 317 685 l 1,2,-1
 317 569 l 1,3,-1
 433 569 l 1,0,-1
201 569 m 1,4,-1
 201 685 l 1,5,-1
 85 685 l 1,6,-1
 85 569 l 1,7,-1
 201 569 l 1,4,-1
467 509 m 1,8,-1
 344 509 l 1,9,-1
 241 206 l 1,10,-1
 124 509 l 1,11,-1
 0 509 l 1,12,-1
 183 50 l 1,13,-1
 112 -136 l 1,14,-1
 233 -136 l 1,15,-1
 467 509 l 1,8,-1
EndSplineSet
EndChar

StartChar: Ydieresis
Encoding: 376 376 162
Width: 477
GlyphClass: 1
Flags: W
LayerCount: 2
Fore
SplineSet
435 684 m 1,0,-1
 435 800 l 1,1,-1
 319 800 l 1,2,-1
 319 684 l 1,3,-1
 435 684 l 1,0,-1
203 684 m 1,4,-1
 203 800 l 1,5,-1
 87 800 l 1,6,-1
 87 684 l 1,7,-1
 203 684 l 1,4,-1
477 640 m 1,8,-1
 345 640 l 1,9,-1
 242 387 l 1,10,-1
 135 640 l 1,11,-1
 0 640 l 1,12,-1
 183 262 l 1,13,-1
 184 0 l 1,14,-1
 299 0 l 1,15,-1
 299 262 l 1,16,-1
 477 640 l 1,8,-1
EndSplineSet
EndChar

StartChar: fraction
Encoding: 8260 8260 163
AltUni2: 002215.ffffffff.0
Width: 572
GlyphClass: 1
Flags: W
LayerCount: 2
Fore
SplineSet
512 628 m 1,0,-1
 449 664 l 1,1,-1
 74 11 l 1,2,-1
 137 -25 l 1,3,-1
 512 628 l 1,0,-1
EndSplineSet
EndChar

StartChar: currency
Encoding: 164 164 164
Width: 486
GlyphClass: 1
Flags: W
LayerCount: 2
Fore
SplineSet
458 80 m 1,0,-1
 458 111 l 1,1,-1
 176 111 l 1,2,-1
 176 220 l 1,3,-1
 384 220 l 1,4,-1
 384 278 l 1,5,-1
 176 278 l 1,6,-1
 176 356 l 1,7,-1
 384 356 l 1,8,-1
 384 414 l 1,9,-1
 176 414 l 1,10,-1
 176 529 l 1,11,-1
 458 529 l 1,12,-1
 458 560 l 1,13,-1
 378 640 l 1,14,-1
 140 640 l 1,15,-1
 60 560 l 1,16,-1
 60 414 l 1,17,-1
 0 414 l 1,18,-1
 0 356 l 1,19,-1
 60 356 l 1,20,-1
 60 278 l 1,21,-1
 0 278 l 1,22,-1
 0 220 l 1,23,-1
 60 220 l 1,24,-1
 60 80 l 1,25,-1
 140 0 l 1,26,-1
 378 0 l 1,27,-1
 458 80 l 1,0,-1
EndSplineSet
EndChar

StartChar: guilsinglleft
Encoding: 8249 8249 165
Width: 361
GlyphClass: 1
Flags: W
LayerCount: 2
Fore
SplineSet
321 161 m 1,0,-1
 184 298 l 1,1,-1
 321 435 l 1,2,-1
 249 507 l 1,3,-1
 40 298 l 1,4,-1
 249 89 l 1,5,-1
 321 161 l 1,0,-1
EndSplineSet
EndChar

StartChar: guilsinglright
Encoding: 8250 8250 166
Width: 361
GlyphClass: 1
Flags: W
LayerCount: 2
Fore
SplineSet
321 298 m 1,0,-1
 112 507 l 1,1,-1
 40 435 l 1,2,-1
 177 298 l 1,3,-1
 40 161 l 1,4,-1
 112 89 l 1,5,-1
 321 298 l 1,0,-1
EndSplineSet
EndChar

StartChar: daggerdbl
Encoding: 8225 8225 167
Width: 414
GlyphClass: 1
Flags: W
LayerCount: 2
Fore
SplineSet
354 558 m 1,0,-1
 354 640 l 1,1,-1
 248 640 l 1,2,-1
 248 746 l 1,3,-1
 166 746 l 1,4,-1
 166 640 l 1,5,-1
 60 640 l 1,6,-1
 60 558 l 1,7,-1
 166 558 l 1,8,-1
 166 452 l 1,9,-1
 248 452 l 1,10,-1
 248 558 l 1,11,-1
 354 558 l 1,0,-1
354 316 m 1,12,-1
 354 398 l 1,13,-1
 60 398 l 1,14,-1
 60 316 l 1,15,-1
 166 316 l 1,16,-1
 166 126 l 1,17,-1
 248 126 l 1,18,-1
 248 316 l 1,19,-1
 354 316 l 1,12,-1
EndSplineSet
EndChar

StartChar: periodcentered
Encoding: 183 183 168
AltUni2: 002219.ffffffff.0
Width: 246
GlyphClass: 1
Flags: W
LayerCount: 2
Fore
SplineSet
186 267 m 1,0,-1
 186 398 l 1,1,-1
 60 398 l 1,2,-1
 60 267 l 1,3,-1
 186 267 l 1,0,-1
EndSplineSet
EndChar

StartChar: quotesinglbase
Encoding: 8218 8218 169
Width: 236
GlyphClass: 1
Flags: W
LayerCount: 2
Fore
SplineSet
186 131 m 1,0,-1
 50 131 l 1,1,-1
 50 -141 l 1,2,-1
 116 -141 l 1,3,-1
 186 131 l 1,0,-1
EndSplineSet
EndChar

StartChar: quotedblbase
Encoding: 8222 8222 170
Width: 397
GlyphClass: 1
Flags: W
LayerCount: 2
Fore
SplineSet
347 131 m 1,0,-1
 211 131 l 1,1,-1
 211 -141 l 1,2,-1
 277 -141 l 1,3,-1
 347 131 l 1,0,-1
186 131 m 1,4,-1
 50 131 l 1,5,-1
 50 -141 l 1,6,-1
 116 -141 l 1,7,-1
 186 131 l 1,4,-1
EndSplineSet
EndChar

StartChar: perthousand
Encoding: 8240 8240 171
Width: 971
GlyphClass: 1
Flags: W
LayerCount: 2
Fore
SplineSet
292 400 m 1,0,-1
 292 574 l 1,1,-1
 228 638 l 1,2,-1
 103 638 l 1,3,-1
 39 574 l 1,4,-1
 39 400 l 1,5,-1
 103 336 l 1,6,-1
 228 336 l 1,7,-1
 292 400 l 1,0,-1
622 63 m 1,8,-1
 622 237 l 1,9,-1
 558 301 l 1,10,-1
 433 301 l 1,11,-1
 369 237 l 1,12,-1
 369 63 l 1,13,-1
 433 -1 l 1,14,-1
 558 -1 l 1,15,-1
 622 63 l 1,8,-1
925 63 m 1,16,-1
 925 237 l 1,17,-1
 861 301 l 1,18,-1
 736 301 l 1,19,-1
 672 237 l 1,20,-1
 672 63 l 1,21,-1
 736 -1 l 1,22,-1
 861 -1 l 1,23,-1
 925 63 l 1,16,-1
872 357 m 1,24,-1
 872 433 l 1,25,-1
 385 433 l 1,26,-1
 385 432 l 1,27,-1
 108 141 l 1,28,-1
 163 94 l 1,29,-1
 414 357 l 1,30,-1
 872 357 l 1,24,-1
833 87 m 1,31,-1
 764 87 l 1,32,-1
 764 213 l 1,33,-1
 833 213 l 1,34,-1
 833 87 l 1,31,-1
200 424 m 1,35,-1
 131 424 l 1,36,-1
 131 550 l 1,37,-1
 200 550 l 1,38,-1
 200 424 l 1,35,-1
530 87 m 1,39,-1
 461 87 l 1,40,-1
 461 213 l 1,41,-1
 530 213 l 1,42,-1
 530 87 l 1,39,-1
EndSplineSet
EndChar

StartChar: Acircumflex
Encoding: 194 194 172
Width: 473
GlyphClass: 1
Flags: W
LayerCount: 2
Fore
SplineSet
403 734 m 1,0,-1
 297 840 l 1,1,-1
 181 840 l 1,2,-1
 75 734 l 1,3,-1
 131 678 l 1,4,-1
 239 744 l 1,5,-1
 347 678 l 1,6,-1
 403 734 l 1,0,-1
473 0 m 1,7,-1
 289 640 l 1,8,-1
 183 640 l 1,9,-1
 0 0 l 1,10,-1
 116 0 l 1,11,-1
 156 157 l 1,12,-1
 316 157 l 1,13,-1
 361 0 l 1,14,-1
 473 0 l 1,7,-1
285 262 m 1,15,-1
 186 262 l 1,16,-1
 236 454 l 1,17,-1
 285 262 l 1,15,-1
EndSplineSet
EndChar

StartChar: Ecircumflex
Encoding: 202 202 173
Width: 479
GlyphClass: 1
Flags: W
LayerCount: 2
Fore
SplineSet
443 734 m 1,0,-1
 337 840 l 1,1,-1
 221 840 l 1,2,-1
 115 734 l 1,3,-1
 171 678 l 1,4,-1
 279 744 l 1,5,-1
 387 678 l 1,6,-1
 443 734 l 1,0,-1
449 0 m 1,7,-1
 449 111 l 1,8,-1
 167 111 l 1,9,-1
 167 262 l 1,10,-1
 358 262 l 1,11,-1
 358 378 l 1,12,-1
 167 378 l 1,13,-1
 167 529 l 1,14,-1
 449 529 l 1,15,-1
 449 640 l 1,16,-1
 50 640 l 1,17,-1
 50 0 l 1,18,-1
 449 0 l 1,7,-1
EndSplineSet
EndChar

StartChar: Aacute
Encoding: 193 193 174
Width: 473
GlyphClass: 1
Flags: W
LayerCount: 2
Fore
SplineSet
365 746 m 1,0,-1
 335 858 l 1,1,-1
 115 769 l 1,2,-1
 137 685 l 1,3,-1
 365 746 l 1,0,-1
473 0 m 1,4,-1
 289 640 l 1,5,-1
 183 640 l 1,6,-1
 0 0 l 1,7,-1
 116 0 l 1,8,-1
 156 157 l 1,9,-1
 316 157 l 1,10,-1
 361 0 l 1,11,-1
 473 0 l 1,4,-1
285 262 m 1,12,-1
 186 262 l 1,13,-1
 236 454 l 1,14,-1
 285 262 l 1,12,-1
EndSplineSet
EndChar

StartChar: Edieresis
Encoding: 203 203 175
Width: 479
GlyphClass: 1
Flags: W
LayerCount: 2
Fore
SplineSet
433 684 m 1,0,-1
 433 800 l 1,1,-1
 317 800 l 1,2,-1
 317 684 l 1,3,-1
 433 684 l 1,0,-1
201 684 m 1,4,-1
 201 800 l 1,5,-1
 85 800 l 1,6,-1
 85 684 l 1,7,-1
 201 684 l 1,4,-1
449 0 m 1,8,-1
 449 111 l 1,9,-1
 167 111 l 1,10,-1
 167 262 l 1,11,-1
 358 262 l 1,12,-1
 358 378 l 1,13,-1
 167 378 l 1,14,-1
 167 529 l 1,15,-1
 449 529 l 1,16,-1
 449 640 l 1,17,-1
 50 640 l 1,18,-1
 50 0 l 1,19,-1
 449 0 l 1,8,-1
EndSplineSet
EndChar

StartChar: Egrave
Encoding: 200 200 176
Width: 479
GlyphClass: 1
Flags: W
LayerCount: 2
Fore
SplineSet
415 769 m 1,0,-1
 195 858 l 1,1,-1
 165 746 l 1,2,-1
 393 685 l 1,3,-1
 415 769 l 1,0,-1
449 0 m 1,4,-1
 449 111 l 1,5,-1
 167 111 l 1,6,-1
 167 262 l 1,7,-1
 358 262 l 1,8,-1
 358 378 l 1,9,-1
 167 378 l 1,10,-1
 167 529 l 1,11,-1
 449 529 l 1,12,-1
 449 640 l 1,13,-1
 50 640 l 1,14,-1
 50 0 l 1,15,-1
 449 0 l 1,4,-1
EndSplineSet
EndChar

StartChar: Iacute
Encoding: 205 205 177
Width: 216
GlyphClass: 1
Flags: W
LayerCount: 2
Fore
SplineSet
231 746 m 1,0,-1
 201 858 l 1,1,-1
 -19 769 l 1,2,-1
 3 685 l 1,3,-1
 231 746 l 1,0,-1
166 640 m 1,4,-1
 50 640 l 1,5,-1
 50 0 l 1,6,-1
 166 0 l 1,7,-1
 166 640 l 1,4,-1
EndSplineSet
EndChar

StartChar: Icircumflex
Encoding: 206 206 178
Width: 216
GlyphClass: 1
Flags: W
LayerCount: 2
Fore
SplineSet
269 734 m 1,0,-1
 162 840 l 1,1,-1
 47 840 l 1,2,-1
 -59 734 l 1,3,-1
 -3 678 l 1,4,-1
 105 744 l 1,5,-1
 212 678 l 1,6,-1
 269 734 l 1,0,-1
166 640 m 1,7,-1
 50 640 l 1,8,-1
 50 0 l 1,9,-1
 166 0 l 1,10,-1
 166 640 l 1,7,-1
EndSplineSet
EndChar

StartChar: Idieresis
Encoding: 207 207 179
Width: 216
GlyphClass: 1
Flags: W
LayerCount: 2
Fore
SplineSet
281 684 m 1,0,-1
 281 800 l 1,1,-1
 165 800 l 1,2,-1
 165 684 l 1,3,-1
 281 684 l 1,0,-1
49 684 m 1,4,-1
 49 800 l 1,5,-1
 -67 800 l 1,6,-1
 -67 684 l 1,7,-1
 49 684 l 1,4,-1
166 640 m 1,8,-1
 50 640 l 1,9,-1
 50 0 l 1,10,-1
 166 0 l 1,11,-1
 166 640 l 1,8,-1
EndSplineSet
EndChar

StartChar: Igrave
Encoding: 204 204 180
Width: 216
GlyphClass: 1
Flags: W
LayerCount: 2
Fore
SplineSet
256 769 m 1,0,-1
 36 858 l 1,1,-1
 6 746 l 1,2,-1
 234 685 l 1,3,-1
 256 769 l 1,0,-1
166 640 m 1,4,-1
 50 640 l 1,5,-1
 50 0 l 1,6,-1
 166 0 l 1,7,-1
 166 640 l 1,4,-1
EndSplineSet
EndChar

StartChar: Oacute
Encoding: 211 211 181
Width: 498
GlyphClass: 1
Flags: W
LayerCount: 2
Fore
SplineSet
358 746 m 1,0,-1
 328 858 l 1,1,-1
 108 769 l 1,2,-1
 130 685 l 1,3,-1
 358 746 l 1,0,-1
448 80 m 1,4,-1
 448 560 l 1,5,-1
 368 640 l 1,6,-1
 130 640 l 1,7,-1
 50 560 l 1,8,-1
 50 80 l 1,9,-1
 130 0 l 1,10,-1
 368 0 l 1,11,-1
 448 80 l 1,4,-1
332 111 m 1,12,-1
 166 111 l 1,13,-1
 166 529 l 1,14,-1
 332 529 l 1,15,-1
 332 111 l 1,12,-1
EndSplineSet
EndChar

StartChar: Ocircumflex
Encoding: 212 212 182
Width: 498
GlyphClass: 1
Flags: W
LayerCount: 2
Fore
SplineSet
415 734 m 1,0,-1
 309 840 l 1,1,-1
 193 840 l 1,2,-1
 87 734 l 1,3,-1
 143 678 l 1,4,-1
 251 744 l 1,5,-1
 359 678 l 1,6,-1
 415 734 l 1,0,-1
448 80 m 1,7,-1
 448 560 l 1,8,-1
 368 640 l 1,9,-1
 130 640 l 1,10,-1
 50 560 l 1,11,-1
 50 80 l 1,12,-1
 130 0 l 1,13,-1
 368 0 l 1,14,-1
 448 80 l 1,7,-1
332 111 m 1,15,-1
 166 111 l 1,16,-1
 166 529 l 1,17,-1
 332 529 l 1,18,-1
 332 111 l 1,15,-1
EndSplineSet
EndChar

StartChar: Ograve
Encoding: 210 210 183
Width: 498
GlyphClass: 1
Flags: W
LayerCount: 2
Fore
SplineSet
385 769 m 1,0,-1
 165 858 l 1,1,-1
 135 746 l 1,2,-1
 363 685 l 1,3,-1
 385 769 l 1,0,-1
448 80 m 1,4,-1
 448 560 l 1,5,-1
 368 640 l 1,6,-1
 130 640 l 1,7,-1
 50 560 l 1,8,-1
 50 80 l 1,9,-1
 130 0 l 1,10,-1
 368 0 l 1,11,-1
 448 80 l 1,4,-1
332 111 m 1,12,-1
 166 111 l 1,13,-1
 166 529 l 1,14,-1
 332 529 l 1,15,-1
 332 111 l 1,12,-1
EndSplineSet
EndChar

StartChar: Uacute
Encoding: 218 218 184
Width: 498
GlyphClass: 1
Flags: W
LayerCount: 2
Fore
SplineSet
401 746 m 1,0,-1
 371 858 l 1,1,-1
 151 769 l 1,2,-1
 173 685 l 1,3,-1
 401 746 l 1,0,-1
448 80 m 1,4,-1
 448 640 l 1,5,-1
 332 640 l 1,6,-1
 332 111 l 1,7,-1
 166 111 l 1,8,-1
 166 640 l 1,9,-1
 50 640 l 1,10,-1
 50 80 l 1,11,-1
 130 0 l 1,12,-1
 368 0 l 1,13,-1
 448 80 l 1,4,-1
EndSplineSet
EndChar

StartChar: Ucircumflex
Encoding: 219 219 185
Width: 498
GlyphClass: 1
Flags: W
LayerCount: 2
Fore
SplineSet
412 734 m 1,0,-1
 306 840 l 1,1,-1
 190 840 l 1,2,-1
 84 734 l 1,3,-1
 140 678 l 1,4,-1
 248 744 l 1,5,-1
 356 678 l 1,6,-1
 412 734 l 1,0,-1
448 80 m 1,7,-1
 448 640 l 1,8,-1
 332 640 l 1,9,-1
 332 111 l 1,10,-1
 166 111 l 1,11,-1
 166 640 l 1,12,-1
 50 640 l 1,13,-1
 50 80 l 1,14,-1
 130 0 l 1,15,-1
 368 0 l 1,16,-1
 448 80 l 1,7,-1
EndSplineSet
EndChar

StartChar: Ugrave
Encoding: 217 217 186
Width: 498
GlyphClass: 1
Flags: W
LayerCount: 2
Fore
SplineSet
345 769 m 1,0,-1
 125 858 l 1,1,-1
 95 746 l 1,2,-1
 323 685 l 1,3,-1
 345 769 l 1,0,-1
448 80 m 1,4,-1
 448 640 l 1,5,-1
 332 640 l 1,6,-1
 332 111 l 1,7,-1
 166 111 l 1,8,-1
 166 640 l 1,9,-1
 50 640 l 1,10,-1
 50 80 l 1,11,-1
 130 0 l 1,12,-1
 368 0 l 1,13,-1
 448 80 l 1,4,-1
EndSplineSet
EndChar

StartChar: circumflex
Encoding: 710 710 187
Width: 510
GlyphClass: 1
Flags: W
LayerCount: 2
Fore
SplineSet
419 734 m 1,0,-1
 313 840 l 1,1,-1
 197 840 l 1,2,-1
 91 734 l 1,3,-1
 147 678 l 1,4,-1
 255 744 l 1,5,-1
 363 678 l 1,6,-1
 419 734 l 1,0,-1
EndSplineSet
EndChar

StartChar: tilde
Encoding: 732 732 188
Width: 510
GlyphClass: 1
Flags: W
LayerCount: 2
Fore
SplineSet
456 754 m 1,0,-1
 370 840 l 1,1,-1
 265 840 l 1,2,-1
 196 771 l 1,3,-1
 125 842 l 1,4,-1
 54 771 l 1,5,-1
 140 685 l 1,6,-1
 245 685 l 1,7,-1
 314 754 l 1,8,-1
 385 683 l 1,9,-1
 456 754 l 1,0,-1
EndSplineSet
EndChar

StartChar: macron
Encoding: 175 175 189
AltUni2: 0002c9.ffffffff.0
Width: 510
GlyphClass: 1
Flags: W
LayerCount: 2
Fore
SplineSet
381 684 m 1,0,-1
 381 800 l 1,1,-1
 129 800 l 1,2,-1
 129 684 l 1,3,-1
 381 684 l 1,0,-1
EndSplineSet
EndChar

StartChar: breve
Encoding: 728 728 190
Width: 510
GlyphClass: 1
Flags: W
LayerCount: 2
Fore
SplineSet
439 702 m 1,0,-1
 376 799 l 1,1,-1
 255 735 l 1,2,-1
 134 800 l 1,3,-1
 71 702 l 1,4,-1
 255 604 l 1,5,-1
 439 702 l 1,0,-1
EndSplineSet
EndChar

StartChar: dotaccent
Encoding: 729 729 191
Width: 510
GlyphClass: 1
Flags: W
LayerCount: 2
Fore
SplineSet
313 684 m 1,0,-1
 313 800 l 1,1,-1
 197 800 l 1,2,-1
 197 684 l 1,3,-1
 313 684 l 1,0,-1
EndSplineSet
EndChar

StartChar: ring
Encoding: 730 730 192
Width: 510
GlyphClass: 1
Flags: W
LayerCount: 2
Fore
SplineSet
355 680 m 1,0,-1
 355 799 l 1,1,-1
 314 839 l 1,2,-1
 195 839 l 1,3,-1
 155 799 l 1,4,-1
 155 680 l 1,5,-1
 196 640 l 1,6,-1
 315 640 l 1,7,-1
 355 680 l 1,0,-1
296 698 m 1,8,-1
 213 698 l 1,9,-1
 213 781 l 1,10,-1
 297 781 l 1,11,-1
 296 698 l 1,8,-1
EndSplineSet
EndChar

StartChar: cedilla
Encoding: 184 184 193
Width: 510
GlyphClass: 1
Flags: W
LayerCount: 2
Fore
SplineSet
342 -160 m 1,0,-1
 342 -66 l 1,1,-1
 302 -26 l 1,2,-1
 284 -26 l 1,3,-1
 284 0 l 1,4,-1
 226 0 l 1,5,-1
 226 -81 l 1,6,-1
 284 -81 l 1,7,-1
 284 -145 l 1,8,-1
 226 -145 l 1,9,-1
 226 -108 l 1,10,-1
 168 -108 l 1,11,-1
 168 -160 l 1,12,-1
 208 -200 l 1,13,-1
 302 -200 l 1,14,-1
 342 -160 l 1,0,-1
EndSplineSet
EndChar

StartChar: hungarumlaut
Encoding: 733 733 194
Width: 510
GlyphClass: 1
Flags: W
LayerCount: 2
Fore
SplineSet
432 840 m 1,0,-1
 305 840 l 1,1,-1
 264 640 l 1,2,-1
 381 640 l 1,3,-1
 432 840 l 1,0,-1
245 840 m 1,4,-1
 119 840 l 1,5,-1
 78 640 l 1,6,-1
 195 640 l 1,7,-1
 245 840 l 1,4,-1
EndSplineSet
EndChar

StartChar: ogonek
Encoding: 731 731 195
Width: 510
GlyphClass: 1
Flags: W
LayerCount: 2
Fore
SplineSet
484 -174 m 1,0,-1
 484 -119 l 1,1,-1
 368 -119 l 1,2,-1
 368 -55 l 1,3,-1
 426 -55 l 1,4,-1
 426 0 l 1,5,-1
 350 0 l 1,6,-1
 310 -40 l 1,7,-1
 310 -134 l 1,8,-1
 350 -174 l 1,9,-1
 484 -174 l 1,0,-1
EndSplineSet
EndChar

StartChar: caron
Encoding: 711 711 196
Width: 510
GlyphClass: 1
Flags: W
LayerCount: 2
Fore
SplineSet
388 748 m 1,0,-1
 388 840 l 1,1,-1
 309 840 l 1,2,-1
 309 796 l 1,3,-1
 255 740 l 1,4,-1
 201 796 l 1,5,-1
 201 840 l 1,6,-1
 122 840 l 1,7,-1
 122 748 l 1,8,-1
 190 680 l 1,9,-1
 320 680 l 1,10,-1
 388 748 l 1,0,-1
EndSplineSet
EndChar

StartChar: dotlessi
Encoding: 305 305 197
Width: 216
GlyphClass: 1
Flags: W
LayerCount: 2
Fore
SplineSet
166 509 m 1,0,-1
 50 509 l 1,1,-1
 50 0 l 1,2,-1
 166 0 l 1,3,-1
 166 509 l 1,0,-1
EndSplineSet
EndChar

StartChar: sterling
Encoding: 163 163 198
Width: 468
GlyphClass: 1
Flags: W
LayerCount: 2
Fore
SplineSet
381 0 m 1,0,-1
 461 80 l 1,1,-1
 461 111 l 1,2,-1
 199 111 l 1,3,-1
 199 220 l 1,4,-1
 357 220 l 1,5,-1
 357 278 l 1,6,-1
 199 278 l 1,7,-1
 199 356 l 1,8,-1
 357 356 l 1,9,-1
 357 414 l 1,10,-1
 199 414 l 1,11,-1
 199 529 l 1,12,-1
 408 529 l 1,13,-1
 408 560 l 1,14,-1
 328 640 l 1,15,-1
 163 640 l 1,16,-1
 83 560 l 1,17,-1
 83 414 l 1,18,-1
 13 414 l 1,19,-1
 13 356 l 1,20,-1
 83 356 l 1,21,-1
 83 278 l 1,22,-1
 13 278 l 1,23,-1
 13 220 l 1,24,-1
 83 220 l 1,25,-1
 83 111 l 1,26,-1
 1 21 l 1,27,-1
 1 -1 l 1,28,-1
 381 0 l 1,0,-1
EndSplineSet
EndChar

StartChar: ampersand
Encoding: 38 38 199
Width: 509
GlyphClass: 1
Flags: W
LayerCount: 2
Fore
SplineSet
446 489 m 1,0,1
 429 491 429 491 425 490.5 c 128,-1,2
 421 490 421 490 334 388 c 1,3,-1
 166 388 l 1,4,-1
 166 529 l 1,5,-1
 332 529 l 1,6,-1
 332 560 l 1,7,-1
 252 640 l 1,8,-1
 130 640 l 1,9,-1
 50 560 l 1,10,-1
 50 380 l 1,11,-1
 100 330 l 1,12,-1
 50 280 l 1,13,-1
 50 80 l 1,14,-1
 130 0 l 1,15,-1
 368 0 l 1,16,-1
 446 80 l 1,17,-1
 446 272 l 1,18,-1
 499 272 l 1,19,-1
 499 388 l 1,20,-1
 446 388 l 1,21,-1
 446 489 l 1,0,1
166 272 m 1,22,-1
 330 272 l 1,23,-1
 330 111 l 1,24,-1
 166 111 l 1,25,-1
 166 272 l 1,22,-1
EndSplineSet
EndChar

StartChar: copyright
Encoding: 169 169 200
Width: 748
GlyphClass: 1
Flags: W
LayerCount: 2
Fore
SplineSet
698 80 m 1,0,-1
 698 599 l 1,1,-1
 618 679 l 1,2,-1
 130 679 l 1,3,-1
 50 599 l 1,4,-1
 50 80 l 1,5,-1
 130 0 l 1,6,-1
 618 0 l 1,7,-1
 698 80 l 1,0,-1
582 111 m 1,8,-1
 166 111 l 1,9,-1
 166 568 l 1,10,-1
 582 568 l 1,11,-1
 582 111 l 1,8,-1
529 241 m 1,12,-1
 529 272 l 1,13,-1
 342 272 l 1,14,-1
 342 403 l 1,15,-1
 529 403 l 1,16,-1
 529 434 l 1,17,-1
 449 514 l 1,18,-1
 306 514 l 1,19,-1
 226 434 l 1,20,-1
 226 241 l 1,21,-1
 306 161 l 1,22,-1
 449 161 l 1,23,-1
 529 241 l 1,12,-1
EndSplineSet
EndChar

StartChar: registered
Encoding: 174 174 201
Width: 551
GlyphClass: 1
Flags: W
LayerCount: 2
Fore
SplineSet
501 263 m 1,0,-1
 501 623 l 1,1,-1
 445 679 l 1,2,-1
 106 679 l 1,3,-1
 50 623 l 1,4,-1
 50 263 l 1,5,-1
 106 207 l 1,6,-1
 445 207 l 1,7,-1
 501 263 l 1,0,-1
420 284 m 1,8,-1
 131 284 l 1,9,-1
 131 602 l 1,10,-1
 420 602 l 1,11,-1
 420 284 l 1,8,-1
365 319 m 1,12,-1
 334 387 l 1,13,-1
 383 436 l 1,14,-1
 383 522 l 1,15,-1
 334 571 l 1,16,-1
 183 571 l 1,17,-1
 183 316 l 1,18,-1
 254 316 l 1,19,-1
 254 387 l 1,20,-1
 258 387 l 1,21,-1
 287 319 l 1,22,-1
 365 319 l 1,12,-1
312 458 m 1,23,-1
 254 458 l 1,24,-1
 254 503 l 1,25,-1
 312 503 l 1,26,-1
 312 458 l 1,23,-1
EndSplineSet
EndChar

StartChar: trademark
Encoding: 8482 8482 202
Width: 833
GlyphClass: 1
Flags: W
LayerCount: 2
Fore
SplineSet
323 680 m 1,0,-1
 15 680 l 1,1,-1
 15 568 l 1,2,-1
 111 569 l 1,3,-1
 111 240 l 1,4,-1
 227 240 l 1,5,-1
 227 569 l 1,6,-1
 323 569 l 1,7,-1
 323 680 l 1,0,-1
793 683 m 1,8,-1
 687 683 l 1,9,-1
 579 474 l 1,10,-1
 471 683 l 1,11,-1
 365 683 l 1,12,-1
 365 241 l 1,13,-1
 478 241 l 1,14,-1
 478 466 l 1,15,-1
 570 347 l 1,16,-1
 588 347 l 1,17,-1
 681 466 l 1,18,-1
 681 241 l 1,19,-1
 793 241 l 1,20,-1
 793 683 l 1,8,-1
EndSplineSet
EndChar

StartChar: at
Encoding: 64 64 203
Width: 683
GlyphClass: 1
Flags: W
LayerCount: 2
Fore
SplineSet
517 -49 m 1,0,-1
 -20 -48 l 1,1,-1
 75 -160 l 1,2,-1
 553 -160 l 1,3,-1
 633 -80 l 1,4,-1
 633 600 l 1,5,-1
 553 680 l 1,6,-1
 135 680 l 1,7,-1
 55 600 l 1,8,-1
 55 378 l 1,9,-1
 337 378 l 1,10,-1
 337 298 l 1,11,-1
 145 298 l 1,12,-1
 55 208 l 1,13,-1
 55 80 l 1,14,-1
 135 0 l 1,15,-1
 279 0 l 1,16,-1
 337 58 l 1,17,-1
 427 0 l 1,18,-1
 453 0 l 1,19,-1
 453 409 l 1,20,-1
 373 489 l 1,21,-1
 171 489 l 1,22,-1
 171 569 l 1,23,-1
 517 569 l 1,24,-1
 517 -49 l 1,0,-1
337 106 m 1,25,-1
 171 106 l 1,26,-1
 171 192 l 1,27,-1
 337 192 l 1,28,-1
 337 106 l 1,25,-1
EndSplineSet
EndChar

StartChar: fi
Encoding: 64257 64257 204
Width: 504
GlyphClass: 1
Flags: W
LayerCount: 2
Fore
SplineSet
454 509 m 1,0,-1
 181 509 l 1,1,-1
 181 569 l 1,2,-1
 281 569 l 1,3,-1
 281 680 l 1,4,-1
 145 680 l 1,5,-1
 65 600 l 1,6,-1
 65 509 l 1,7,-1
 15 509 l 1,8,-1
 15 398 l 1,9,-1
 65 398 l 1,10,-1
 65 0 l 1,11,-1
 181 0 l 1,12,-1
 181 398 l 1,13,-1
 338 398 l 1,14,-1
 338 0 l 1,15,-1
 454 0 l 1,16,-1
 454 509 l 1,0,-1
454 560 m 1,17,-1
 454 680 l 1,18,-1
 338 680 l 1,19,-1
 338 560 l 1,20,-1
 454 560 l 1,17,-1
EndSplineSet
EndChar

StartChar: fl
Encoding: 64258 64258 205
Width: 507
GlyphClass: 1
Flags: W
LayerCount: 2
Fore
SplineSet
457 680 m 1,0,-1
 145 680 l 1,1,-1
 65 600 l 1,2,-1
 65 509 l 1,3,-1
 15 509 l 1,4,-1
 15 398 l 1,5,-1
 65 398 l 1,6,-1
 65 0 l 1,7,-1
 181 0 l 1,8,-1
 181 398 l 1,9,-1
 281 398 l 1,10,-1
 281 509 l 1,11,-1
 181 509 l 1,12,-1
 181 569 l 1,13,-1
 340 569 l 1,14,-1
 340 0 l 1,15,-1
 457 0 l 1,16,-1
 457 680 l 1,0,-1
EndSplineSet
EndChar

StartChar: yacute
Encoding: 253 253 206
Width: 467
GlyphClass: 1
Flags: W
LayerCount: 2
Fore
SplineSet
396 615 m 1,0,-1
 366 727 l 1,1,-1
 146 638 l 1,2,-1
 168 554 l 1,3,-1
 396 615 l 1,0,-1
467 509 m 1,4,-1
 344 509 l 1,5,-1
 241 206 l 1,6,-1
 124 509 l 1,7,-1
 0 509 l 1,8,-1
 183 50 l 1,9,-1
 112 -136 l 1,10,-1
 233 -136 l 1,11,-1
 467 509 l 1,4,-1
EndSplineSet
EndChar

StartChar: Thorn
Encoding: 222 222 207
Width: 498
GlyphClass: 1
Flags: W
LayerCount: 2
Fore
SplineSet
448 160 m 1,0,-1
 448 529 l 1,1,-1
 368 609 l 1,2,-1
 224 609 l 1,3,-1
 166 551 l 1,4,-1
 166 681 l 1,5,-1
 50 681 l 1,6,-1
 50 0 l 1,7,-1
 166 0 l 1,8,-1
 166 138 l 1,9,-1
 224 80 l 1,10,-1
 368 80 l 1,11,-1
 448 160 l 1,0,-1
332 191 m 1,12,-1
 166 191 l 1,13,-1
 166 498 l 1,14,-1
 332 498 l 1,15,-1
 332 191 l 1,12,-1
EndSplineSet
EndChar

StartChar: thorn
Encoding: 254 254 208
Width: 498
GlyphClass: 1
Flags: W
LayerCount: 2
Fore
SplineSet
448 80 m 1,0,-1
 448 429 l 1,1,-1
 368 509 l 1,2,-1
 224 509 l 1,3,-1
 166 451 l 1,4,-1
 166 679 l 1,5,-1
 50 640 l 1,6,-1
 50 -160 l 1,7,-1
 166 -160 l 1,8,-1
 166 58 l 1,9,-1
 224 0 l 1,10,-1
 368 0 l 1,11,-1
 448 80 l 1,0,-1
332 111 m 1,12,-1
 166 111 l 1,13,-1
 166 398 l 1,14,-1
 332 398 l 1,15,-1
 332 111 l 1,12,-1
EndSplineSet
EndChar

StartChar: Zcaron
Encoding: 381 381 209
Width: 458
GlyphClass: 1
Flags: W
LayerCount: 2
Fore
SplineSet
359 748 m 1,0,-1
 359 840 l 1,1,-1
 280 840 l 1,2,-1
 280 796 l 1,3,-1
 226 740 l 1,4,-1
 172 796 l 1,5,-1
 172 840 l 1,6,-1
 93 840 l 1,7,-1
 93 748 l 1,8,-1
 161 680 l 1,9,-1
 291 680 l 1,10,-1
 359 748 l 1,0,-1
428 0 m 1,11,-1
 428 110 l 1,12,-1
 166 111 l 1,13,-1
 428 524 l 1,14,-1
 428 640 l 1,15,-1
 30 640 l 1,16,-1
 30 528 l 1,17,-1
 292 529 l 1,18,-1
 30 116 l 1,19,-1
 30 0 l 1,20,-1
 428 0 l 1,11,-1
EndSplineSet
EndChar

StartChar: zcaron
Encoding: 382 382 210
Width: 423
GlyphClass: 1
Flags: W
LayerCount: 2
Fore
SplineSet
363 622 m 1,0,-1
 363 714 l 1,1,-1
 284 714 l 1,2,-1
 284 670 l 1,3,-1
 230 614 l 1,4,-1
 176 670 l 1,5,-1
 176 714 l 1,6,-1
 97 714 l 1,7,-1
 97 622 l 1,8,-1
 165 554 l 1,9,-1
 295 554 l 1,10,-1
 363 622 l 1,0,-1
398 0 m 1,11,-1
 398 108 l 1,12,-1
 169 106 l 1,13,-1
 398 403 l 1,14,-1
 398 509 l 1,15,-1
 25 509 l 1,16,-1
 25 403 l 1,17,-1
 254 403 l 1,18,-1
 25 106 l 1,19,-1
 25 0 l 1,20,-1
 398 0 l 1,11,-1
EndSplineSet
EndChar

StartChar: brokenbar
Encoding: 166 166 211
Width: 226
GlyphClass: 1
Flags: W
LayerCount: 2
Fore
SplineSet
166 -160 m 1,0,-1
 166 222 l 1,1,-1
 60 222 l 1,2,-1
 60 -160 l 1,3,-1
 166 -160 l 1,0,-1
166 338 m 1,4,-1
 166 679 l 1,5,-1
 60 679 l 1,6,-1
 60 338 l 1,7,-1
 166 338 l 1,4,-1
EndSplineSet
EndChar

StartChar: minus
Encoding: 8722 8722 212
Width: 380
GlyphClass: 1
Flags: W
LayerCount: 2
Fore
SplineSet
340 237 m 1,0,-1
 340 343 l 1,1,-1
 40 343 l 1,2,-1
 40 237 l 1,3,-1
 340 237 l 1,0,-1
EndSplineSet
EndChar

StartChar: multiply
Encoding: 215 215 213
Width: 461
GlyphClass: 1
Flags: W
LayerCount: 2
Fore
SplineSet
411 189 m 1,0,-1
 308 291 l 1,1,-1
 411 393 l 1,2,-1
 333 471 l 1,3,-1
 231 369 l 1,4,-1
 129 471 l 1,5,-1
 51 393 l 1,6,-1
 153 291 l 1,7,-1
 51 189 l 1,8,-1
 128 111 l 1,9,-1
 231 213 l 1,10,-1
 333 111 l 1,11,-1
 411 189 l 1,0,-1
EndSplineSet
EndChar

StartChar: lslash
Encoding: 322 322 214
Width: 266
GlyphClass: 1
Flags: W
LayerCount: 2
Fore
SplineSet
192 680 m 1,0,-1
 75 641 l 1,1,-1
 75 367 l 1,2,-1
 0 350 l 1,3,-1
 0 264 l 1,4,-1
 75 280 l 1,5,-1
 75 0 l 1,6,-1
 192 0 l 1,7,-1
 192 306 l 1,8,-1
 266 322 l 1,9,-1
 266 408 l 1,10,-1
 192 392 l 1,11,-1
 192 680 l 1,0,-1
EndSplineSet
EndChar

StartChar: Euro
Encoding: 8364 8364 215
Width: 508
GlyphClass: 1
Flags: W
LayerCount: 2
Fore
SplineSet
458 80 m 1,0,-1
 458 111 l 1,1,-1
 176 111 l 1,2,-1
 176 220 l 1,3,-1
 384 220 l 1,4,-1
 384 278 l 1,5,-1
 176 278 l 1,6,-1
 176 356 l 1,7,-1
 384 356 l 1,8,-1
 384 414 l 1,9,-1
 176 414 l 1,10,-1
 176 529 l 1,11,-1
 458 529 l 1,12,-1
 458 560 l 1,13,-1
 378 640 l 1,14,-1
 140 640 l 1,15,-1
 60 560 l 1,16,-1
 60 414 l 1,17,-1
 0 414 l 1,18,-1
 0 356 l 1,19,-1
 60 356 l 1,20,-1
 60 278 l 1,21,-1
 0 278 l 1,22,-1
 0 220 l 1,23,-1
 60 220 l 1,24,-1
 60 80 l 1,25,-1
 140 0 l 1,26,-1
 378 0 l 1,27,-1
 458 80 l 1,0,-1
EndSplineSet
EndChar

StartChar: Eth
Encoding: 208 208 216
Width: 518
GlyphClass: 1
Flags: W
LayerCount: 2
Fore
SplineSet
458 80 m 1,0,-1
 458 560 l 1,1,-1
 378 640 l 1,2,-1
 60 640 l 1,3,-1
 60 368 l 1,4,-1
 0 368 l 1,5,-1
 0 296 l 1,6,-1
 60 296 l 1,7,-1
 60 0 l 1,8,-1
 378 0 l 1,9,-1
 458 80 l 1,0,-1
342 111 m 1,10,-1
 176 111 l 1,11,-1
 176 296 l 1,12,-1
 277 296 l 1,13,-1
 277 368 l 1,14,-1
 176 368 l 1,15,-1
 176 529 l 1,16,-1
 342 529 l 1,17,-1
 342 111 l 1,10,-1
EndSplineSet
EndChar

StartChar: eth
Encoding: 240 240 217
Width: 508
GlyphClass: 1
Flags: W
LayerCount: 2
Fore
SplineSet
458 630 m 1,0,-1
 417 671 l 1,1,-1
 339 593 l 1,2,-1
 280 652 l 1,3,-1
 116 652 l 1,4,-1
 116 540 l 1,5,-1
 241 540 l 1,6,-1
 263 517 l 1,7,-1
 217 471 l 1,8,-1
 258 430 l 1,9,-1
 304 476 l 1,10,-1
 332 448 l 1,11,-1
 332 358 l 1,12,-1
 292 398 l 1,13,-1
 130 398 l 1,14,-1
 50 318 l 1,15,-1
 50 80 l 1,16,-1
 130 0 l 1,17,-1
 368 0 l 1,18,-1
 448 80 l 1,19,-1
 448 484 l 1,20,-1
 380 552 l 1,21,-1
 458 630 l 1,0,-1
332 111 m 1,22,-1
 166 111 l 1,23,-1
 166 287 l 1,24,-1
 332 287 l 1,25,-1
 332 111 l 1,22,-1
EndSplineSet
EndChar

StartChar: Lslash
Encoding: 321 321 218
Width: 466
GlyphClass: 1
Flags: W
LayerCount: 2
Fore
SplineSet
457 0 m 1,0,-1
 457 111 l 1,1,-1
 200 111 l 1,2,-1
 200 308 l 1,3,-1
 201 308 l 1,4,-1
 276 324 l 1,5,-1
 276 410 l 1,6,-1
 201 394 l 1,7,-1
 200 394 l 1,8,-1
 200 640 l 1,9,-1
 83 640 l 1,10,-1
 83 367 l 1,11,-1
 10 352 l 1,12,-1
 10 266 l 1,13,-1
 83 281 l 1,14,-1
 83 0 l 1,15,-1
 457 0 l 1,0,-1
EndSplineSet
EndChar

StartChar: fi.sc
Encoding: 57344 57344 219
Width: 618
GlyphClass: 1
Flags: W
LayerCount: 2
Fore
SplineSet
411 510 m 1,0,-1
 50 510 l 1,1,-1
 50 0 l 1,2,-1
 166 0 l 1,3,-1
 166 201 l 1,4,-1
 320 201 l 1,5,-1
 320 317 l 1,6,-1
 166 317 l 1,7,-1
 166 399 l 1,8,-1
 411 399 l 1,9,-1
 411 510 l 1,0,-1
568 509 m 1,10,-1
 452 509 l 1,11,-1
 452 0 l 1,12,-1
 568 0 l 1,13,-1
 568 509 l 1,10,-1
EndSplineSet
EndChar

StartChar: fl.sc
Encoding: 57345 57345 220
Width: 777
GlyphClass: 1
Flags: W
LayerCount: 2
Fore
SplineSet
411 510 m 1,0,-1
 50 510 l 1,1,-1
 50 0 l 1,2,-1
 166 0 l 1,3,-1
 166 201 l 1,4,-1
 320 201 l 1,5,-1
 320 317 l 1,6,-1
 166 317 l 1,7,-1
 166 399 l 1,8,-1
 411 399 l 1,9,-1
 411 510 l 1,0,-1
757 0 m 1,10,-1
 757 111 l 1,11,-1
 570 111 l 1,12,-1
 570 510 l 1,13,-1
 454 510 l 1,14,-1
 454 0 l 1,15,-1
 757 0 l 1,10,-1
EndSplineSet
EndChar

StartChar: lslash.sc
Encoding: 57346 57346 221
Width: 398
GlyphClass: 1
Flags: W
LayerCount: 2
Fore
SplineSet
389 0 m 1,0,-1
 389 111 l 1,1,-1
 202 111 l 1,2,-1
 202 239 l 1,3,-1
 276 255 l 1,4,-1
 276 341 l 1,5,-1
 202 325 l 1,6,-1
 202 510 l 1,7,-1
 86 510 l 1,8,-1
 86 300 l 1,9,-1
 85 300 l 1,10,-1
 10 283 l 1,11,-1
 10 197 l 1,12,-1
 85 213 l 1,13,-1
 86 213 l 1,14,-1
 86 0 l 1,15,-1
 389 0 l 1,0,-1
EndSplineSet
EndChar

StartChar: zcaron.sc
Encoding: 57347 57347 222
Width: 423
GlyphClass: 1
Flags: W
LayerCount: 2
Fore
SplineSet
398 0 m 1,0,-1
 398 108 l 1,1,-1
 169 106 l 1,2,-1
 398 403 l 1,3,-1
 398 509 l 1,4,-1
 25 509 l 1,5,-1
 25 403 l 1,6,-1
 254 403 l 1,7,-1
 25 106 l 1,8,-1
 25 0 l 1,9,-1
 398 0 l 1,0,-1
363 622 m 1,10,-1
 363 714 l 1,11,-1
 284 714 l 1,12,-1
 284 670 l 1,13,-1
 230 614 l 1,14,-1
 176 670 l 1,15,-1
 176 714 l 1,16,-1
 97 714 l 1,17,-1
 97 622 l 1,18,-1
 165 554 l 1,19,-1
 295 554 l 1,20,-1
 363 622 l 1,10,-1
EndSplineSet
EndChar

StartChar: exclam.sc
Encoding: 57348 57348 223
Width: 236
GlyphClass: 1
Flags: W
LayerCount: 2
Fore
SplineSet
197 511 m 1,0,-1
 41 511 l 1,1,-1
 74 183 l 1,2,-1
 161 183 l 1,3,-1
 197 511 l 1,0,-1
178 0 m 1,4,-1
 178 120 l 1,5,-1
 58 120 l 1,6,-1
 58 0 l 1,7,-1
 178 0 l 1,4,-1
EndSplineSet
EndChar

StartChar: dollar.sc
Encoding: 57349 57349 224
Width: 468
GlyphClass: 1
Flags: W
LayerCount: 2
Fore
SplineSet
378 119 m 1,0,-1
 378 231 l 1,1,-1
 298 311 l 1,2,-1
 166 311 l 1,3,-1
 166 372 l 1,4,-1
 378 372 l 1,5,-1
 378 398 l 1,6,-1
 298 478 l 1,7,-1
 258 478 l 1,8,-1
 258 520 l 1,9,-1
 170 519 l 1,10,-1
 170 478 l 1,11,-1
 130 478 l 1,12,-1
 50 398 l 1,13,-1
 50 281 l 1,14,-1
 130 201 l 1,15,-1
 262 201 l 1,16,-1
 262 145 l 1,17,-1
 50 145 l 1,18,-1
 50 119 l 1,19,-1
 130 39 l 1,20,-1
 170 39 l 1,21,-1
 170 -5 l 1,22,-1
 258 -5 l 1,23,-1
 258 39 l 1,24,-1
 298 39 l 1,25,-1
 378 119 l 1,0,-1
EndSplineSet
EndChar

StartChar: ampersand.sc
Encoding: 57350 57350 225
Width: 509
GlyphClass: 1
Flags: W
LayerCount: 2
Fore
SplineSet
406 409 m 1,0,1
 389 411 389 411 385 410.5 c 128,-1,2
 381 410 381 410 294 308 c 1,3,-1
 166 308 l 1,4,-1
 166 399 l 1,5,-1
 292 399 l 1,6,-1
 292 430 l 1,7,-1
 212 510 l 1,8,-1
 130 510 l 1,9,-1
 50 430 l 1,10,-1
 50 300 l 1,11,-1
 100 250 l 1,12,-1
 50 200 l 1,13,-1
 50 80 l 1,14,-1
 130 0 l 1,15,-1
 328 0 l 1,16,-1
 406 80 l 1,17,-1
 406 192 l 1,18,-1
 440 192 l 1,19,-1
 440 308 l 1,20,-1
 406 308 l 1,21,-1
 406 409 l 1,0,1
166 192 m 1,22,-1
 290 192 l 1,23,-1
 290 111 l 1,24,-1
 166 111 l 1,25,-1
 166 192 l 1,22,-1
EndSplineSet
EndChar

StartChar: zero.sc
Encoding: 57351 57351 226
Width: 498
GlyphClass: 1
Flags: W
LayerCount: 2
Fore
SplineSet
448 80 m 1,0,-1
 448 428 l 1,1,-1
 368 508 l 1,2,-1
 130 508 l 1,3,-1
 50 428 l 1,4,-1
 50 80 l 1,5,-1
 130 0 l 1,6,-1
 368 0 l 1,7,-1
 448 80 l 1,0,-1
332 111 m 1,8,-1
 166 111 l 1,9,-1
 166 397 l 1,10,-1
 332 397 l 1,11,-1
 332 111 l 1,8,-1
EndSplineSet
EndChar

StartChar: one.sc
Encoding: 57352 57352 227
Width: 241
GlyphClass: 1
Flags: W
LayerCount: 2
Fore
SplineSet
191 510 m 1,0,-1
 73 510 l 1,1,-1
 15 452 l 1,2,-1
 15 419 l 1,3,-1
 75 419 l 1,4,-1
 75 0 l 1,5,-1
 191 0 l 1,6,-1
 191 510 l 1,0,-1
EndSplineSet
EndChar

StartChar: two.sc
Encoding: 57353 57353 228
Width: 424
GlyphClass: 1
Flags: W
LayerCount: 2
Fore
SplineSet
374 0 m 1,0,-1
 374 111 l 1,1,-1
 168 111 l 1,2,-1
 168 143 l 1,3,-1
 374 304 l 1,4,-1
 374 430 l 1,5,-1
 294 510 l 1,6,-1
 130 510 l 1,7,-1
 50 430 l 1,8,-1
 50 398 l 1,9,-1
 258 399 l 1,10,-1
 258 356 l 1,11,-1
 52 195 l 1,12,-1
 52 0 l 1,13,-1
 374 0 l 1,0,-1
EndSplineSet
EndChar

StartChar: three.sc
Encoding: 57354 57354 229
Width: 423
GlyphClass: 1
Flags: W
LayerCount: 2
Fore
SplineSet
373 80 m 1,0,-1
 373 203 l 1,1,-1
 323 253 l 1,2,-1
 373 303 l 1,3,-1
 373 430 l 1,4,-1
 293 510 l 1,5,-1
 105 510 l 1,6,-1
 25 430 l 1,7,-1
 25 399 l 1,8,-1
 257 399 l 1,9,-1
 257 311 l 1,10,-1
 114 311 l 1,11,-1
 114 195 l 1,12,-1
 257 195 l 1,13,-1
 257 111 l 1,14,-1
 25 111 l 1,15,-1
 25 80 l 1,16,-1
 105 0 l 1,17,-1
 293 0 l 1,18,-1
 373 80 l 1,0,-1
EndSplineSet
EndChar

StartChar: four.sc
Encoding: 57355 57355 230
Width: 444
GlyphClass: 1
Flags: W
LayerCount: 2
Fore
SplineSet
429 89 m 1,0,-1
 429 202 l 1,1,-1
 382 202 l 1,2,-1
 382 510 l 1,3,-1
 269 510 l 1,4,-1
 0 188 l 1,5,-1
 69 89 l 1,6,-1
 267 89 l 1,7,-1
 267 0 l 1,8,-1
 382 0 l 1,9,-1
 382 89 l 1,10,-1
 429 89 l 1,0,-1
267 202 m 1,11,-1
 143 202 l 1,12,-1
 267 341 l 1,13,-1
 267 202 l 1,11,-1
EndSplineSet
EndChar

StartChar: five.sc
Encoding: 57356 57356 231
Width: 458
GlyphClass: 1
Flags: W
LayerCount: 2
Fore
SplineSet
408 80 m 1,0,-1
 408 233 l 1,1,-1
 328 313 l 1,2,-1
 166 313 l 1,3,-1
 166 399 l 1,4,-1
 408 399 l 1,5,-1
 408 510 l 1,6,-1
 50 510 l 1,7,-1
 50 277 l 1,8,-1
 130 197 l 1,9,-1
 292 197 l 1,10,-1
 292 111 l 1,11,-1
 50 111 l 1,12,-1
 50 80 l 1,13,-1
 130 0 l 1,14,-1
 328 0 l 1,15,-1
 408 80 l 1,0,-1
EndSplineSet
EndChar

StartChar: six.sc
Encoding: 57357 57357 232
Width: 468
GlyphClass: 1
Flags: W
LayerCount: 2
Fore
SplineSet
418 80 m 1,0,-1
 418 237 l 1,1,-1
 338 317 l 1,2,-1
 166 317 l 1,3,-1
 166 398 l 1,4,-1
 418 398 l 1,5,-1
 418 429 l 1,6,-1
 338 509 l 1,7,-1
 130 509 l 1,8,-1
 50 429 l 1,9,-1
 50 80 l 1,10,-1
 130 0 l 1,11,-1
 338 0 l 1,12,-1
 418 80 l 1,0,-1
302 111 m 1,13,-1
 166 111 l 1,14,-1
 166 201 l 1,15,-1
 302 201 l 1,16,-1
 302 111 l 1,13,-1
EndSplineSet
EndChar

StartChar: seven.sc
Encoding: 57358 57358 233
Width: 335
GlyphClass: 1
Flags: W
LayerCount: 2
Fore
SplineSet
325 379 m 1,0,-1
 325 510 l 1,1,-1
 5 510 l 1,2,-1
 5 399 l 1,3,-1
 211 399 l 1,4,-1
 26 0 l 1,5,-1
 146 0 l 1,6,-1
 325 379 l 1,0,-1
EndSplineSet
EndChar

StartChar: eight.sc
Encoding: 57359 57359 234
Width: 468
GlyphClass: 1
Flags: W
LayerCount: 2
Fore
SplineSet
418 80 m 1,0,-1
 418 205 l 1,1,-1
 368 255 l 1,2,-1
 418 305 l 1,3,-1
 418 430 l 1,4,-1
 338 510 l 1,5,-1
 130 510 l 1,6,-1
 50 430 l 1,7,-1
 50 305 l 1,8,-1
 100 255 l 1,9,-1
 50 205 l 1,10,-1
 50 80 l 1,11,-1
 130 0 l 1,12,-1
 338 0 l 1,13,-1
 418 80 l 1,0,-1
302 111 m 1,14,-1
 166 111 l 1,15,-1
 166 199 l 1,16,-1
 302 199 l 1,17,-1
 302 111 l 1,14,-1
302 311 m 1,18,-1
 166 311 l 1,19,-1
 166 399 l 1,20,-1
 302 399 l 1,21,-1
 302 311 l 1,18,-1
EndSplineSet
EndChar

StartChar: nine.sc
Encoding: 57360 57360 235
Width: 468
GlyphClass: 1
Flags: W
LayerCount: 2
Fore
SplineSet
50 428 m 1,0,-1
 50 271 l 1,1,-1
 130 191 l 1,2,-1
 302 191 l 1,3,-1
 302 110 l 1,4,-1
 50 110 l 1,5,-1
 50 79 l 1,6,-1
 130 -1 l 1,7,-1
 338 -1 l 1,8,-1
 418 79 l 1,9,-1
 418 428 l 1,10,-1
 338 508 l 1,11,-1
 130 508 l 1,12,-1
 50 428 l 1,0,-1
166 397 m 1,13,-1
 302 397 l 1,14,-1
 302 307 l 1,15,-1
 166 307 l 1,16,-1
 166 397 l 1,13,-1
EndSplineSet
EndChar

StartChar: question.sc
Encoding: 57361 57361 236
Width: 401
GlyphClass: 1
Flags: W
LayerCount: 2
Fore
SplineSet
361 292 m 1,0,-1
 361 428 l 1,1,-1
 281 508 l 1,2,-1
 103 508 l 1,3,-1
 23 428 l 1,4,-1
 23 396 l 1,5,-1
 245 397 l 1,6,-1
 245 328 l 1,7,-1
 159 328 l 1,8,-1
 79 248 l 1,9,-1
 79 173 l 1,10,-1
 195 173 l 1,11,-1
 195 212 l 1,12,-1
 281 212 l 1,13,-1
 361 292 l 1,0,-1
197 0 m 1,14,-1
 197 120 l 1,15,-1
 77 120 l 1,16,-1
 77 0 l 1,17,-1
 197 0 l 1,14,-1
EndSplineSet
EndChar

StartChar: a.sc
Encoding: 57362 57362 237
Width: 402
GlyphClass: 1
Flags: W
LayerCount: 2
Fore
SplineSet
402 0 m 1,0,-1
 255 510 l 1,1,-1
 149 510 l 1,2,-1
 0 0 l 1,3,-1
 116 0 l 1,4,-1
 142 100 l 1,5,-1
 262 100 l 1,6,-1
 290 0 l 1,7,-1
 402 0 l 1,0,-1
231 205 m 1,8,-1
 172 205 l 1,9,-1
 202 324 l 1,10,-1
 231 205 l 1,8,-1
EndSplineSet
EndChar

StartChar: b.sc
Encoding: 57363 57363 238
Width: 498
GlyphClass: 1
Flags: W
LayerCount: 2
Fore
SplineSet
448 80 m 1,0,-1
 448 209 l 1,1,-1
 398 259 l 1,2,-1
 448 309 l 1,3,-1
 448 428 l 1,4,-1
 368 508 l 1,5,-1
 50 508 l 1,6,-1
 50 0 l 1,7,-1
 368 0 l 1,8,-1
 448 80 l 1,0,-1
332 111 m 1,9,-1
 166 111 l 1,10,-1
 166 204 l 1,11,-1
 332 204 l 1,12,-1
 332 111 l 1,9,-1
332 314 m 1,13,-1
 166 314 l 1,14,-1
 166 397 l 1,15,-1
 332 397 l 1,16,-1
 332 314 l 1,13,-1
EndSplineSet
EndChar

StartChar: c.sc
Encoding: 57364 57364 239
Width: 458
GlyphClass: 1
Flags: W
LayerCount: 2
Fore
SplineSet
433 80 m 1,0,-1
 433 111 l 1,1,-1
 166 111 l 1,2,-1
 166 398 l 1,3,-1
 433 398 l 1,4,-1
 433 429 l 1,5,-1
 353 509 l 1,6,-1
 130 509 l 1,7,-1
 50 429 l 1,8,-1
 50 80 l 1,9,-1
 130 0 l 1,10,-1
 353 0 l 1,11,-1
 433 80 l 1,0,-1
EndSplineSet
EndChar

StartChar: d.sc
Encoding: 57365 57365 240
Width: 499
GlyphClass: 1
Flags: W
LayerCount: 2
Fore
SplineSet
449 80 m 1,0,-1
 449 428 l 1,1,-1
 369 508 l 1,2,-1
 50 508 l 1,3,-1
 50 0 l 1,4,-1
 369 0 l 1,5,-1
 449 80 l 1,0,-1
333 111 m 1,6,-1
 167 111 l 1,7,-1
 167 397 l 1,8,-1
 333 397 l 1,9,-1
 333 111 l 1,6,-1
EndSplineSet
EndChar

StartChar: e.sc
Encoding: 57366 57366 241
Width: 446
GlyphClass: 1
Flags: W
LayerCount: 2
Fore
SplineSet
416 0 m 1,0,-1
 416 111 l 1,1,-1
 166 111 l 1,2,-1
 166 197 l 1,3,-1
 320 197 l 1,4,-1
 320 313 l 1,5,-1
 166 313 l 1,6,-1
 166 399 l 1,7,-1
 411 399 l 1,8,-1
 411 510 l 1,9,-1
 50 510 l 1,10,-1
 50 0 l 1,11,-1
 416 0 l 1,0,-1
EndSplineSet
EndChar

StartChar: f.sc
Encoding: 57367 57367 242
Width: 426
GlyphClass: 1
Flags: W
LayerCount: 2
Fore
SplineSet
411 510 m 1,0,-1
 50 510 l 1,1,-1
 50 0 l 1,2,-1
 166 0 l 1,3,-1
 166 201 l 1,4,-1
 320 201 l 1,5,-1
 320 317 l 1,6,-1
 166 317 l 1,7,-1
 166 399 l 1,8,-1
 411 399 l 1,9,-1
 411 510 l 1,0,-1
EndSplineSet
EndChar

StartChar: g.sc
Encoding: 57368 57368 243
Width: 488
GlyphClass: 1
Flags: W
LayerCount: 2
Fore
SplineSet
438 430 m 1,0,-1
 358 510 l 1,1,-1
 130 510 l 1,2,-1
 50 430 l 1,3,-1
 50 80 l 1,4,-1
 130 0 l 1,5,-1
 271 0 l 1,6,-1
 327 56 l 1,7,-1
 413 0 l 1,8,-1
 438 0 l 1,9,-1
 438 248 l 1,10,-1
 327 248 l 1,11,-1
 327 118 l 1,12,-1
 166 118 l 1,13,-1
 166 399 l 1,14,-1
 438 399 l 1,15,-1
 438 430 l 1,0,-1
EndSplineSet
EndChar

StartChar: h.sc
Encoding: 57369 57369 244
Width: 499
GlyphClass: 1
Flags: W
LayerCount: 2
Fore
SplineSet
449 510 m 1,0,-1
 333 510 l 1,1,-1
 333 311 l 1,2,-1
 167 311 l 1,3,-1
 167 510 l 1,4,-1
 51 510 l 1,5,-1
 51 0 l 1,6,-1
 167 0 l 1,7,-1
 167 195 l 1,8,-1
 333 195 l 1,9,-1
 333 0 l 1,10,-1
 449 0 l 1,11,-1
 449 510 l 1,0,-1
EndSplineSet
EndChar

StartChar: i.sc
Encoding: 57370 57370 245
Width: 216
GlyphClass: 1
Flags: W
LayerCount: 2
Fore
SplineSet
166 509 m 1,0,-1
 50 509 l 1,1,-1
 50 0 l 1,2,-1
 166 0 l 1,3,-1
 166 509 l 1,0,-1
EndSplineSet
EndChar

StartChar: j.sc
Encoding: 57371 57371 246
Width: 388
GlyphClass: 1
Flags: W
LayerCount: 2
Fore
SplineSet
338 80 m 1,0,-1
 338 510 l 1,1,-1
 222 510 l 1,2,-1
 222 111 l 1,3,-1
 5 111 l 1,4,-1
 5 80 l 1,5,-1
 85 0 l 1,6,-1
 258 0 l 1,7,-1
 338 80 l 1,0,-1
EndSplineSet
EndChar

StartChar: k.sc
Encoding: 57372 57372 247
Width: 495
GlyphClass: 1
Flags: W
LayerCount: 2
Fore
SplineSet
495 0 m 1,0,-1
 325 315 l 1,1,-1
 471 509 l 1,2,-1
 335 509 l 1,3,-1
 166 278 l 1,4,-1
 166 509 l 1,5,-1
 50 509 l 1,6,-1
 50 0 l 1,7,-1
 166 0 l 1,8,-1
 166 106 l 1,9,-1
 240 211 l 1,10,-1
 355 0 l 1,11,-1
 495 0 l 1,0,-1
EndSplineSet
EndChar

StartChar: l.sc
Encoding: 57373 57373 248
Width: 373
GlyphClass: 1
Flags: W
LayerCount: 2
Fore
SplineSet
353 0 m 1,0,-1
 353 111 l 1,1,-1
 166 111 l 1,2,-1
 166 510 l 1,3,-1
 50 510 l 1,4,-1
 50 0 l 1,5,-1
 353 0 l 1,0,-1
EndSplineSet
EndChar

StartChar: m.sc
Encoding: 57374 57374 249
Width: 547
GlyphClass: 1
Flags: W
LayerCount: 2
Fore
SplineSet
497 511 m 1,0,-1
 391 511 l 1,1,-1
 274 274 l 1,2,-1
 156 511 l 1,3,-1
 50 511 l 1,4,-1
 50 0 l 1,5,-1
 163 0 l 1,6,-1
 163 286 l 1,7,-1
 245 97 l 1,8,-1
 303 97 l 1,9,-1
 384 286 l 1,10,-1
 385 0 l 1,11,-1
 497 0 l 1,12,-1
 497 511 l 1,0,-1
EndSplineSet
EndChar

StartChar: n.sc
Encoding: 57375 57375 250
Width: 468
GlyphClass: 1
Flags: W
LayerCount: 2
Fore
SplineSet
418 0 m 1,0,-1
 418 509 l 1,1,-1
 304 509 l 1,2,-1
 304 236 l 1,3,-1
 151 509 l 1,4,-1
 50 509 l 1,5,-1
 50 0 l 1,6,-1
 164 0 l 1,7,-1
 164 272 l 1,8,-1
 317 0 l 1,9,-1
 418 0 l 1,0,-1
EndSplineSet
EndChar

StartChar: o.sc
Encoding: 57376 57376 251
Width: 498
GlyphClass: 1
Flags: W
LayerCount: 2
Fore
SplineSet
448 80 m 1,0,-1
 448 429 l 1,1,-1
 368 509 l 1,2,-1
 130 509 l 1,3,-1
 50 429 l 1,4,-1
 50 80 l 1,5,-1
 130 0 l 1,6,-1
 368 0 l 1,7,-1
 448 80 l 1,0,-1
332 111 m 1,8,-1
 166 111 l 1,9,-1
 166 398 l 1,10,-1
 332 398 l 1,11,-1
 332 111 l 1,8,-1
EndSplineSet
EndChar

StartChar: p.sc
Encoding: 57377 57377 252
Width: 498
GlyphClass: 1
Flags: W
LayerCount: 2
Fore
SplineSet
448 282 m 1,0,-1
 448 428 l 1,1,-1
 368 508 l 1,2,-1
 50 508 l 1,3,-1
 50 0 l 1,4,-1
 166 0 l 1,5,-1
 166 202 l 1,6,-1
 368 202 l 1,7,-1
 448 282 l 1,0,-1
332 313 m 1,8,-1
 166 313 l 1,9,-1
 166 397 l 1,10,-1
 332 397 l 1,11,-1
 332 313 l 1,8,-1
EndSplineSet
EndChar

StartChar: q.sc
Encoding: 57378 57378 253
Width: 498
GlyphClass: 1
Flags: W
LayerCount: 2
Fore
SplineSet
448 80 m 1,0,-1
 448 430 l 1,1,-1
 368 510 l 1,2,-1
 130 510 l 1,3,-1
 50 430 l 1,4,-1
 50 80 l 1,5,-1
 130 0 l 1,6,-1
 204 0 l 1,7,-1
 217 -110 l 1,8,-1
 290 -110 l 1,9,-1
 302 0 l 1,10,-1
 371 0 l 1,11,-1
 448 80 l 1,0,-1
332 111 m 1,12,-1
 166 111 l 1,13,-1
 166 399 l 1,14,-1
 332 399 l 1,15,-1
 332 111 l 1,12,-1
EndSplineSet
EndChar

StartChar: r.sc
Encoding: 57379 57379 254
Width: 463
GlyphClass: 1
Flags: W
LayerCount: 2
Fore
SplineSet
448 282 m 1,0,-1
 448 428 l 1,1,-1
 368 508 l 1,2,-1
 50 508 l 1,3,-1
 50 0 l 1,4,-1
 166 0 l 1,5,-1
 166 202 l 1,6,-1
 216 202 l 1,7,-1
 295 0 l 1,8,-1
 424 0 l 1,9,-1
 342 202 l 1,10,-1
 368 202 l 1,11,-1
 448 282 l 1,0,-1
332 313 m 1,12,-1
 166 313 l 1,13,-1
 166 397 l 1,14,-1
 332 397 l 1,15,-1
 332 313 l 1,12,-1
EndSplineSet
EndChar

StartChar: s.sc
Encoding: 57380 57380 255
Width: 468
GlyphClass: 1
Flags: W
LayerCount: 2
Fore
SplineSet
418 80 m 1,0,-1
 418 232 l 1,1,-1
 338 312 l 1,2,-1
 166 312 l 1,3,-1
 166 403 l 1,4,-1
 418 403 l 1,5,-1
 418 429 l 1,6,-1
 338 509 l 1,7,-1
 130 509 l 1,8,-1
 50 429 l 1,9,-1
 50 282 l 1,10,-1
 130 202 l 1,11,-1
 302 202 l 1,12,-1
 302 106 l 1,13,-1
 50 106 l 1,14,-1
 50 80 l 1,15,-1
 130 0 l 1,16,-1
 338 0 l 1,17,-1
 418 80 l 1,0,-1
EndSplineSet
EndChar

StartChar: t.sc
Encoding: 57381 57381 256
Width: 408
GlyphClass: 1
Flags: W
LayerCount: 2
Fore
SplineSet
398 509 m 1,0,-1
 10 509 l 1,1,-1
 10 397 l 1,2,-1
 146 398 l 1,3,-1
 146 0 l 1,4,-1
 262 0 l 1,5,-1
 262 398 l 1,6,-1
 398 398 l 1,7,-1
 398 509 l 1,0,-1
EndSplineSet
EndChar

StartChar: u.sc
Encoding: 57382 57382 257
Width: 489
GlyphClass: 1
Flags: W
LayerCount: 2
Fore
SplineSet
439 509 m 1,0,-1
 322 509 l 1,1,-1
 322 111 l 1,2,-1
 166 111 l 1,3,-1
 166 509 l 1,4,-1
 50 509 l 1,5,-1
 50 80 l 1,6,-1
 130 0 l 1,7,-1
 381 0 l 1,8,-1
 439 58 l 1,9,-1
 439 509 l 1,0,-1
EndSplineSet
EndChar

StartChar: v.sc
Encoding: 57383 57383 258
Width: 454
GlyphClass: 1
Flags: W
LayerCount: 2
Fore
SplineSet
454 509 m 1,0,-1
 334 509 l 1,1,-1
 228 188 l 1,2,-1
 126 509 l 1,3,-1
 0 509 l 1,4,-1
 171 0 l 1,5,-1
 283 0 l 1,6,-1
 454 509 l 1,0,-1
EndSplineSet
EndChar

StartChar: w.sc
Encoding: 57384 57384 259
Width: 601
GlyphClass: 1
Flags: W
LayerCount: 2
Fore
SplineSet
601 509 m 1,0,-1
 477 509 l 1,1,-1
 414 213 l 1,2,-1
 327 457 l 1,3,-1
 268 457 l 1,4,-1
 184 213 l 1,5,-1
 124 509 l 1,6,-1
 0 509 l 1,7,-1
 124 0 l 1,8,-1
 232 0 l 1,9,-1
 299 228 l 1,10,-1
 366 0 l 1,11,-1
 473 0 l 1,12,-1
 601 509 l 1,0,-1
EndSplineSet
EndChar

StartChar: x.sc
Encoding: 57385 57385 260
Width: 458
GlyphClass: 1
Flags: W
LayerCount: 2
Fore
SplineSet
458 0 m 1,0,-1
 303 257 l 1,1,-1
 457 509 l 1,2,-1
 336 509 l 1,3,-1
 231 330 l 1,4,-1
 131 509 l 1,5,-1
 5 509 l 1,6,-1
 160 257 l 1,7,-1
 0 0 l 1,8,-1
 122 0 l 1,9,-1
 231 184 l 1,10,-1
 344 0 l 1,11,-1
 458 0 l 1,0,-1
EndSplineSet
EndChar

StartChar: y.sc
Encoding: 57386 57386 261
Width: 424
GlyphClass: 1
Flags: W
LayerCount: 2
Fore
SplineSet
424 509 m 1,0,-1
 292 509 l 1,1,-1
 214 317 l 1,2,-1
 135 509 l 1,3,-1
 0 509 l 1,4,-1
 155 192 l 1,5,-1
 155 0 l 1,6,-1
 271 0 l 1,7,-1
 271 192 l 1,8,-1
 424 509 l 1,0,-1
EndSplineSet
EndChar

StartChar: z.sc
Encoding: 57387 57387 262
Width: 433
GlyphClass: 1
Flags: W
LayerCount: 2
Fore
SplineSet
403 0 m 1,0,-1
 403 108 l 1,1,-1
 174 106 l 1,2,-1
 403 403 l 1,3,-1
 403 509 l 1,4,-1
 30 509 l 1,5,-1
 30 403 l 1,6,-1
 259 403 l 1,7,-1
 30 106 l 1,8,-1
 30 0 l 1,9,-1
 403 0 l 1,0,-1
EndSplineSet
EndChar

StartChar: Euro.sc
Encoding: 57388 57388 263
Width: 493
GlyphClass: 1
Flags: W
LayerCount: 2
Fore
SplineSet
0 170 m 1,0,-1
 60 170 l 1,1,-1
 60 80 l 1,2,-1
 140 0 l 1,3,-1
 363 0 l 1,4,-1
 443 80 l 1,5,-1
 443 111 l 1,6,-1
 176 111 l 1,7,-1
 176 170 l 1,8,-1
 384 170 l 1,9,-1
 384 228 l 1,10,-1
 176 228 l 1,11,-1
 176 286 l 1,12,-1
 384 286 l 1,13,-1
 384 344 l 1,14,-1
 176 344 l 1,15,-1
 176 398 l 1,16,-1
 443 398 l 1,17,-1
 443 429 l 1,18,-1
 363 509 l 1,19,-1
 140 509 l 1,20,-1
 60 429 l 1,21,-1
 60 344 l 1,22,-1
 0 344 l 1,23,-1
 0 286 l 1,24,-1
 60 286 l 1,25,-1
 60 228 l 1,26,-1
 0 228 l 1,27,-1
 0 170 l 1,0,-1
EndSplineSet
EndChar

StartChar: scaron.sc
Encoding: 57389 57389 264
Width: 468
GlyphClass: 1
Flags: W
LayerCount: 2
Fore
SplineSet
418 80 m 1,0,-1
 418 232 l 1,1,-1
 338 312 l 1,2,-1
 166 312 l 1,3,-1
 166 403 l 1,4,-1
 302 403 l 1,5,-1
 302 363 l 1,6,-1
 418 363 l 1,7,-1
 418 429 l 1,8,-1
 338 509 l 1,9,-1
 130 509 l 1,10,-1
 50 429 l 1,11,-1
 50 282 l 1,12,-1
 130 202 l 1,13,-1
 302 202 l 1,14,-1
 302 106 l 1,15,-1
 166 106 l 1,16,-1
 166 146 l 1,17,-1
 50 146 l 1,18,-1
 50 80 l 1,19,-1
 130 0 l 1,20,-1
 338 0 l 1,21,-1
 418 80 l 1,0,-1
368 622 m 1,22,-1
 368 714 l 1,23,-1
 289 714 l 1,24,-1
 289 670 l 1,25,-1
 235 614 l 1,26,-1
 181 670 l 1,27,-1
 181 714 l 1,28,-1
 102 714 l 1,29,-1
 102 622 l 1,30,-1
 170 554 l 1,31,-1
 300 554 l 1,32,-1
 368 622 l 1,22,-1
EndSplineSet
EndChar

StartChar: oe.sc
Encoding: 57390 57390 265
Width: 728
GlyphClass: 1
Flags: W
LayerCount: 2
Fore
SplineSet
698 0 m 1,0,-1
 698 111 l 1,1,-1
 448 111 l 1,2,-1
 448 197 l 1,3,-1
 602 197 l 1,4,-1
 602 313 l 1,5,-1
 448 313 l 1,6,-1
 448 399 l 1,7,-1
 693 399 l 1,8,-1
 693 510 l 1,9,-1
 130 509 l 1,10,-1
 50 429 l 1,11,-1
 50 80 l 1,12,-1
 130 0 l 1,13,-1
 698 0 l 1,0,-1
332 111 m 1,14,-1
 166 111 l 1,15,-1
 166 398 l 1,16,-1
 332 398 l 1,17,-1
 332 111 l 1,14,-1
EndSplineSet
EndChar

StartChar: exclamdown.sc
Encoding: 57391 57391 266
Width: 236
GlyphClass: 1
Flags: W
LayerCount: 2
Fore
SplineSet
197 0 m 1,0,-1
 162 325 l 1,1,-1
 75 325 l 1,2,-1
 41 0 l 1,3,-1
 197 0 l 1,0,-1
178 388 m 1,4,-1
 178 508 l 1,5,-1
 58 508 l 1,6,-1
 58 388 l 1,7,-1
 178 388 l 1,4,-1
EndSplineSet
EndChar

StartChar: cent.sc
Encoding: 57392 57392 267
Width: 475
GlyphClass: 1
Flags: W
LayerCount: 2
Fore
SplineSet
383 157 m 1,0,-1
 383 188 l 1,1,-1
 161 188 l 1,2,-1
 161 307 l 1,3,-1
 383 307 l 1,4,-1
 383 338 l 1,5,-1
 303 418 l 1,6,-1
 259 418 l 1,7,-1
 259 509 l 1,8,-1
 171 509 l 1,9,-1
 171 418 l 1,10,-1
 125 418 l 1,11,-1
 45 338 l 1,12,-1
 45 157 l 1,13,-1
 125 77 l 1,14,-1
 171 77 l 1,15,-1
 171 1 l 1,16,-1
 259 1 l 1,17,-1
 259 77 l 1,18,-1
 303 77 l 1,19,-1
 383 157 l 1,0,-1
EndSplineSet
EndChar

StartChar: sterling.sc
Encoding: 57393 57393 268
Width: 436
GlyphClass: 1
Flags: W
LayerCount: 2
Fore
SplineSet
344 0 m 1,0,-1
 424 80 l 1,1,-1
 424 111 l 1,2,-1
 199 111 l 1,3,-1
 199 180 l 1,4,-1
 320 180 l 1,5,-1
 320 238 l 1,6,-1
 199 238 l 1,7,-1
 199 286 l 1,8,-1
 320 286 l 1,9,-1
 320 344 l 1,10,-1
 199 344 l 1,11,-1
 199 399 l 1,12,-1
 371 399 l 1,13,-1
 371 430 l 1,14,-1
 291 510 l 1,15,-1
 163 510 l 1,16,-1
 83 430 l 1,17,-1
 83 344 l 1,18,-1
 13 344 l 1,19,-1
 13 286 l 1,20,-1
 83 286 l 1,21,-1
 83 238 l 1,22,-1
 13 238 l 1,23,-1
 13 180 l 1,24,-1
 83 180 l 1,25,-1
 83 111 l 1,26,-1
 1 21 l 1,27,-1
 1 -1 l 1,28,-1
 344 0 l 1,0,-1
EndSplineSet
EndChar

StartChar: currency.sc
Encoding: 57394 57394 269
Width: 493
GlyphClass: 1
Flags: W
LayerCount: 2
Fore
SplineSet
0 170 m 1,0,-1
 60 170 l 1,1,-1
 60 80 l 1,2,-1
 140 0 l 1,3,-1
 363 0 l 1,4,-1
 443 80 l 1,5,-1
 443 111 l 1,6,-1
 176 111 l 1,7,-1
 176 170 l 1,8,-1
 384 170 l 1,9,-1
 384 228 l 1,10,-1
 176 228 l 1,11,-1
 176 286 l 1,12,-1
 384 286 l 1,13,-1
 384 344 l 1,14,-1
 176 344 l 1,15,-1
 176 398 l 1,16,-1
 443 398 l 1,17,-1
 443 429 l 1,18,-1
 363 509 l 1,19,-1
 140 509 l 1,20,-1
 60 429 l 1,21,-1
 60 344 l 1,22,-1
 0 344 l 1,23,-1
 0 286 l 1,24,-1
 60 286 l 1,25,-1
 60 228 l 1,26,-1
 0 228 l 1,27,-1
 0 170 l 1,0,-1
EndSplineSet
EndChar

StartChar: yen.sc
Encoding: 57395 57395 270
Width: 477
GlyphClass: 1
Flags: W
LayerCount: 2
Fore
SplineSet
424 509 m 1,0,-1
 292 509 l 1,1,-1
 214 317 l 1,2,-1
 135 509 l 1,3,-1
 0 509 l 1,4,-1
 107 290 l 1,5,-1
 13 290 l 1,6,-1
 13 232 l 1,7,-1
 135 232 l 1,8,-1
 155 192 l 1,9,-1
 155 174 l 1,10,-1
 13 174 l 1,11,-1
 13 116 l 1,12,-1
 155 116 l 1,13,-1
 155 0 l 1,14,-1
 271 0 l 1,15,-1
 271 116 l 1,16,-1
 417 116 l 1,17,-1
 417 174 l 1,18,-1
 271 174 l 1,19,-1
 271 192 l 1,20,-1
 290 232 l 1,21,-1
 417 232 l 1,22,-1
 417 290 l 1,23,-1
 318 290 l 1,24,-1
 424 509 l 1,0,-1
EndSplineSet
EndChar

StartChar: questiondown.sc
Encoding: 57396 57396 271
Width: 401
GlyphClass: 1
Flags: W
LayerCount: 2
Fore
SplineSet
35 216 m 1,0,-1
 35 80 l 1,1,-1
 115 0 l 1,2,-1
 293 0 l 1,3,-1
 373 80 l 1,4,-1
 373 111 l 1,5,-1
 151 111 l 1,6,-1
 151 180 l 1,7,-1
 237 180 l 1,8,-1
 317 260 l 1,9,-1
 317 335 l 1,10,-1
 201 335 l 1,11,-1
 201 296 l 1,12,-1
 115 296 l 1,13,-1
 35 216 l 1,0,-1
199 508 m 1,14,-1
 199 388 l 1,15,-1
 319 388 l 1,16,-1
 319 508 l 1,17,-1
 199 508 l 1,14,-1
EndSplineSet
EndChar

StartChar: germandbls.sc
Encoding: 57397 57397 272
Width: 915
GlyphClass: 1
Flags: W
LayerCount: 2
Fore
SplineSet
865 80 m 1,0,-1
 865 232 l 1,1,-1
 785 312 l 1,2,-1
 613 312 l 1,3,-1
 613 403 l 1,4,-1
 865 403 l 1,5,-1
 865 429 l 1,6,-1
 785 509 l 1,7,-1
 577 509 l 1,8,-1
 497 429 l 1,9,-1
 497 282 l 1,10,-1
 577 202 l 1,11,-1
 749 202 l 1,12,-1
 749 106 l 1,13,-1
 497 106 l 1,14,-1
 497 80 l 1,15,-1
 577 0 l 1,16,-1
 785 0 l 1,17,-1
 865 80 l 1,0,-1
418 80 m 1,18,-1
 418 232 l 1,19,-1
 338 312 l 1,20,-1
 166 312 l 1,21,-1
 166 403 l 1,22,-1
 418 403 l 1,23,-1
 418 429 l 1,24,-1
 338 509 l 1,25,-1
 130 509 l 1,26,-1
 50 429 l 1,27,-1
 50 282 l 1,28,-1
 130 202 l 1,29,-1
 302 202 l 1,30,-1
 302 106 l 1,31,-1
 50 106 l 1,32,-1
 50 80 l 1,33,-1
 130 0 l 1,34,-1
 338 0 l 1,35,-1
 418 80 l 1,18,-1
EndSplineSet
EndChar

StartChar: agrave.sc
Encoding: 57398 57398 273
Width: 402
GlyphClass: 1
Flags: W
LayerCount: 2
Fore
SplineSet
402 0 m 1,0,-1
 255 510 l 1,1,-1
 149 510 l 1,2,-1
 0 0 l 1,3,-1
 116 0 l 1,4,-1
 142 100 l 1,5,-1
 262 100 l 1,6,-1
 290 0 l 1,7,-1
 402 0 l 1,0,-1
326 627 m 1,8,-1
 106 716 l 1,9,-1
 76 604 l 1,10,-1
 304 543 l 1,11,-1
 326 627 l 1,8,-1
231 205 m 1,12,-1
 172 205 l 1,13,-1
 202 324 l 1,14,-1
 231 205 l 1,12,-1
EndSplineSet
EndChar

StartChar: aacute.sc
Encoding: 57399 57399 274
Width: 402
GlyphClass: 1
Flags: W
LayerCount: 2
Fore
SplineSet
402 0 m 1,0,-1
 255 510 l 1,1,-1
 149 510 l 1,2,-1
 0 0 l 1,3,-1
 116 0 l 1,4,-1
 142 100 l 1,5,-1
 262 100 l 1,6,-1
 290 0 l 1,7,-1
 402 0 l 1,0,-1
326 608 m 1,8,-1
 296 720 l 1,9,-1
 76 631 l 1,10,-1
 98 547 l 1,11,-1
 326 608 l 1,8,-1
231 205 m 1,12,-1
 172 205 l 1,13,-1
 202 324 l 1,14,-1
 231 205 l 1,12,-1
EndSplineSet
EndChar

StartChar: acircumflex.sc
Encoding: 57400 57400 275
Width: 402
GlyphClass: 1
Flags: W
LayerCount: 2
Fore
SplineSet
402 0 m 1,0,-1
 255 510 l 1,1,-1
 149 510 l 1,2,-1
 0 0 l 1,3,-1
 116 0 l 1,4,-1
 142 100 l 1,5,-1
 262 100 l 1,6,-1
 290 0 l 1,7,-1
 402 0 l 1,0,-1
365 594 m 1,8,-1
 259 700 l 1,9,-1
 143 700 l 1,10,-1
 37 594 l 1,11,-1
 93 538 l 1,12,-1
 201 604 l 1,13,-1
 309 538 l 1,14,-1
 365 594 l 1,8,-1
231 205 m 1,15,-1
 172 205 l 1,16,-1
 202 324 l 1,17,-1
 231 205 l 1,15,-1
EndSplineSet
EndChar

StartChar: atilde.sc
Encoding: 57401 57401 276
Width: 402
GlyphClass: 1
Flags: W
LayerCount: 2
Fore
SplineSet
402 0 m 1,0,-1
 255 510 l 1,1,-1
 149 510 l 1,2,-1
 0 0 l 1,3,-1
 116 0 l 1,4,-1
 142 100 l 1,5,-1
 262 100 l 1,6,-1
 290 0 l 1,7,-1
 402 0 l 1,0,-1
402 621 m 1,8,-1
 316 707 l 1,9,-1
 211 707 l 1,10,-1
 142 638 l 1,11,-1
 71 709 l 1,12,-1
 0 638 l 1,13,-1
 86 552 l 1,14,-1
 191 552 l 1,15,-1
 260 621 l 1,16,-1
 331 550 l 1,17,-1
 402 621 l 1,8,-1
231 205 m 1,18,-1
 172 205 l 1,19,-1
 202 324 l 1,20,-1
 231 205 l 1,18,-1
EndSplineSet
EndChar

StartChar: adieresis.sc
Encoding: 57402 57402 277
Width: 402
GlyphClass: 1
Flags: W
LayerCount: 2
Fore
SplineSet
402 0 m 1,0,-1
 255 510 l 1,1,-1
 149 510 l 1,2,-1
 0 0 l 1,3,-1
 116 0 l 1,4,-1
 142 100 l 1,5,-1
 262 100 l 1,6,-1
 290 0 l 1,7,-1
 402 0 l 1,0,-1
143 554 m 1,8,-1
 143 670 l 1,9,-1
 27 670 l 1,10,-1
 27 554 l 1,11,-1
 143 554 l 1,8,-1
375 554 m 1,12,-1
 375 670 l 1,13,-1
 259 670 l 1,14,-1
 259 554 l 1,15,-1
 375 554 l 1,12,-1
231 205 m 1,16,-1
 172 205 l 1,17,-1
 202 324 l 1,18,-1
 231 205 l 1,16,-1
EndSplineSet
EndChar

StartChar: arind.sc
Encoding: 57403 57403 278
Width: 402
GlyphClass: 1
Flags: W
LayerCount: 2
Fore
SplineSet
302 546 m 1,0,-1
 302 665 l 1,1,-1
 261 705 l 1,2,-1
 142 705 l 1,3,-1
 102 665 l 1,4,-1
 102 546 l 1,5,-1
 143 506 l 1,6,-1
 148 506 l 1,7,-1
 0 0 l 1,8,-1
 116 0 l 1,9,-1
 142 100 l 1,10,-1
 262 100 l 1,11,-1
 290 0 l 1,12,-1
 402 0 l 1,13,-1
 256 506 l 1,14,-1
 262 506 l 1,15,-1
 302 546 l 1,0,-1
243 564 m 1,16,-1
 160 564 l 1,17,-1
 160 647 l 1,18,-1
 244 647 l 1,19,-1
 243 564 l 1,16,-1
231 205 m 1,20,-1
 172 205 l 1,21,-1
 202 324 l 1,22,-1
 231 205 l 1,20,-1
EndSplineSet
EndChar

StartChar: ae.sc
Encoding: 57404 57404 279
Width: 625
GlyphClass: 1
Flags: W
LayerCount: 2
Fore
SplineSet
584 0 m 1,0,-1
 584 111 l 1,1,-1
 394 111 l 1,2,-1
 394 197 l 1,3,-1
 508 197 l 1,4,-1
 508 313 l 1,5,-1
 394 313 l 1,6,-1
 394 399 l 1,7,-1
 579 399 l 1,8,-1
 579 510 l 1,9,-1
 224 510 l 1,10,-1
 0 0 l 1,11,-1
 125 0 l 1,12,-1
 168 95 l 1,13,-1
 278 95 l 1,14,-1
 278 0 l 1,15,-1
 584 0 l 1,0,-1
278 200 m 1,16,-1
 213 200 l 1,17,-1
 278 367 l 1,18,-1
 278 200 l 1,16,-1
EndSplineSet
EndChar

StartChar: ccedilla.sc
Encoding: 57405 57405 280
Width: 473
GlyphClass: 1
Flags: W
LayerCount: 2
Fore
SplineSet
448 80 m 1,0,-1
 448 111 l 1,1,-1
 166 111 l 1,2,-1
 166 398 l 1,3,-1
 448 398 l 1,4,-1
 448 429 l 1,5,-1
 368 509 l 1,6,-1
 130 509 l 1,7,-1
 50 429 l 1,8,-1
 50 80 l 1,9,-1
 130 0 l 1,10,-1
 216 0 l 1,11,-1
 216 -84 l 1,12,-1
 274 -84 l 1,13,-1
 274 -142 l 1,14,-1
 216 -142 l 1,15,-1
 216 -108 l 1,16,-1
 158 -108 l 1,17,-1
 158 -160 l 1,18,-1
 198 -200 l 1,19,-1
 292 -200 l 1,20,-1
 332 -160 l 1,21,-1
 332 -66 l 1,22,-1
 292 -26 l 1,23,-1
 274 -26 l 1,24,-1
 274 0 l 1,25,-1
 368 0 l 1,26,-1
 448 80 l 1,0,-1
EndSplineSet
EndChar

StartChar: egrave.sc
Encoding: 57406 57406 281
Width: 446
GlyphClass: 1
Flags: W
LayerCount: 2
Fore
SplineSet
416 0 m 1,0,-1
 416 111 l 1,1,-1
 166 111 l 1,2,-1
 166 197 l 1,3,-1
 320 197 l 1,4,-1
 320 313 l 1,5,-1
 166 313 l 1,6,-1
 166 399 l 1,7,-1
 411 399 l 1,8,-1
 411 510 l 1,9,-1
 50 510 l 1,10,-1
 50 0 l 1,11,-1
 416 0 l 1,0,-1
350 645 m 1,12,-1
 130 734 l 1,13,-1
 100 622 l 1,14,-1
 328 561 l 1,15,-1
 350 645 l 1,12,-1
EndSplineSet
EndChar

StartChar: eacute.sc
Encoding: 57407 57407 282
Width: 446
GlyphClass: 1
Flags: W
LayerCount: 2
Fore
SplineSet
416 0 m 1,0,-1
 416 111 l 1,1,-1
 166 111 l 1,2,-1
 166 197 l 1,3,-1
 320 197 l 1,4,-1
 320 313 l 1,5,-1
 166 313 l 1,6,-1
 166 399 l 1,7,-1
 411 399 l 1,8,-1
 411 510 l 1,9,-1
 50 510 l 1,10,-1
 50 0 l 1,11,-1
 416 0 l 1,0,-1
364 612 m 1,12,-1
 334 724 l 1,13,-1
 114 635 l 1,14,-1
 136 551 l 1,15,-1
 364 612 l 1,12,-1
EndSplineSet
EndChar

StartChar: ecircumflex.sc
Encoding: 57408 57408 283
Width: 446
GlyphClass: 1
Flags: W
LayerCount: 2
Fore
SplineSet
416 0 m 1,0,-1
 416 111 l 1,1,-1
 166 111 l 1,2,-1
 166 197 l 1,3,-1
 320 197 l 1,4,-1
 320 313 l 1,5,-1
 166 313 l 1,6,-1
 166 399 l 1,7,-1
 411 399 l 1,8,-1
 411 510 l 1,9,-1
 50 510 l 1,10,-1
 50 0 l 1,11,-1
 416 0 l 1,0,-1
391 615 m 1,12,-1
 285 721 l 1,13,-1
 169 721 l 1,14,-1
 63 615 l 1,15,-1
 119 559 l 1,16,-1
 227 625 l 1,17,-1
 335 559 l 1,18,-1
 391 615 l 1,12,-1
EndSplineSet
EndChar

StartChar: edieresis.sc
Encoding: 57409 57409 284
Width: 446
GlyphClass: 1
Flags: W
LayerCount: 2
Fore
SplineSet
416 0 m 1,0,-1
 416 111 l 1,1,-1
 166 111 l 1,2,-1
 166 197 l 1,3,-1
 320 197 l 1,4,-1
 320 313 l 1,5,-1
 166 313 l 1,6,-1
 166 399 l 1,7,-1
 411 399 l 1,8,-1
 411 510 l 1,9,-1
 50 510 l 1,10,-1
 50 0 l 1,11,-1
 416 0 l 1,0,-1
171 571 m 1,12,-1
 171 687 l 1,13,-1
 55 687 l 1,14,-1
 55 571 l 1,15,-1
 171 571 l 1,12,-1
403 571 m 1,16,-1
 403 687 l 1,17,-1
 287 687 l 1,18,-1
 287 571 l 1,19,-1
 403 571 l 1,16,-1
EndSplineSet
EndChar

StartChar: igrave.sc
Encoding: 57410 57410 285
Width: 216
GlyphClass: 1
Flags: W
LayerCount: 2
Fore
SplineSet
166 509 m 1,0,-1
 50 509 l 1,1,-1
 50 0 l 1,2,-1
 166 0 l 1,3,-1
 166 509 l 1,0,-1
230 637 m 1,4,-1
 10 726 l 1,5,-1
 -20 614 l 1,6,-1
 208 553 l 1,7,-1
 230 637 l 1,4,-1
EndSplineSet
EndChar

StartChar: iacute.sc
Encoding: 57411 57411 286
Width: 216
GlyphClass: 1
Flags: W
LayerCount: 2
Fore
SplineSet
166 509 m 1,0,-1
 50 509 l 1,1,-1
 50 0 l 1,2,-1
 166 0 l 1,3,-1
 166 509 l 1,0,-1
226 614 m 1,4,-1
 196 726 l 1,5,-1
 -24 637 l 1,6,-1
 -2 553 l 1,7,-1
 226 614 l 1,4,-1
EndSplineSet
EndChar

StartChar: icircumflex.sc
Encoding: 57412 57412 287
Width: 216
GlyphClass: 1
Flags: W
LayerCount: 2
Fore
SplineSet
166 509 m 1,0,-1
 50 509 l 1,1,-1
 50 0 l 1,2,-1
 166 0 l 1,3,-1
 166 509 l 1,0,-1
272 610 m 1,4,-1
 166 716 l 1,5,-1
 50 716 l 1,6,-1
 -56 610 l 1,7,-1
 0 554 l 1,8,-1
 108 620 l 1,9,-1
 216 554 l 1,10,-1
 272 610 l 1,4,-1
EndSplineSet
EndChar

StartChar: idieresis.sc
Encoding: 57413 57413 288
Width: 216
GlyphClass: 1
Flags: W
LayerCount: 2
Fore
SplineSet
166 509 m 1,0,-1
 50 509 l 1,1,-1
 50 0 l 1,2,-1
 166 0 l 1,3,-1
 166 509 l 1,0,-1
261 569 m 1,4,-1
 261 685 l 1,5,-1
 145 685 l 1,6,-1
 145 569 l 1,7,-1
 261 569 l 1,4,-1
74 569 m 1,8,-1
 74 685 l 1,9,-1
 -42 685 l 1,10,-1
 -42 569 l 1,11,-1
 74 569 l 1,8,-1
EndSplineSet
EndChar

StartChar: eth.sc
Encoding: 57414 57414 289
Width: 499
GlyphClass: 1
Flags: W
LayerCount: 2
Fore
SplineSet
449 80 m 1,0,-1
 449 428 l 1,1,-1
 369 508 l 1,2,-1
 50 508 l 1,3,-1
 50 299 l 1,4,-1
 1 299 l 1,5,-1
 1 227 l 1,6,-1
 50 227 l 1,7,-1
 50 0 l 1,8,-1
 369 0 l 1,9,-1
 449 80 l 1,0,-1
333 111 m 1,10,-1
 167 111 l 1,11,-1
 167 227 l 1,12,-1
 267 227 l 1,13,-1
 267 299 l 1,14,-1
 167 299 l 1,15,-1
 167 397 l 1,16,-1
 333 397 l 1,17,-1
 333 111 l 1,10,-1
EndSplineSet
EndChar

StartChar: ntilde.sc
Encoding: 57415 57415 290
Width: 468
GlyphClass: 1
Flags: W
LayerCount: 2
Fore
SplineSet
418 0 m 1,0,-1
 418 509 l 1,1,-1
 304 509 l 1,2,-1
 304 236 l 1,3,-1
 151 509 l 1,4,-1
 50 509 l 1,5,-1
 50 0 l 1,6,-1
 164 0 l 1,7,-1
 164 272 l 1,8,-1
 317 0 l 1,9,-1
 418 0 l 1,0,-1
440 636 m 1,10,-1
 354 722 l 1,11,-1
 249 722 l 1,12,-1
 180 653 l 1,13,-1
 109 724 l 1,14,-1
 38 653 l 1,15,-1
 124 567 l 1,16,-1
 229 567 l 1,17,-1
 298 636 l 1,18,-1
 369 565 l 1,19,-1
 440 636 l 1,10,-1
EndSplineSet
EndChar

StartChar: ograve.sc
Encoding: 57416 57416 291
Width: 498
GlyphClass: 1
Flags: W
LayerCount: 2
Fore
SplineSet
448 80 m 1,0,-1
 448 429 l 1,1,-1
 368 509 l 1,2,-1
 130 509 l 1,3,-1
 50 429 l 1,4,-1
 50 80 l 1,5,-1
 130 0 l 1,6,-1
 368 0 l 1,7,-1
 448 80 l 1,0,-1
332 111 m 1,8,-1
 166 111 l 1,9,-1
 166 398 l 1,10,-1
 332 398 l 1,11,-1
 332 111 l 1,8,-1
385 637 m 1,12,-1
 165 726 l 1,13,-1
 135 614 l 1,14,-1
 363 553 l 1,15,-1
 385 637 l 1,12,-1
EndSplineSet
EndChar

StartChar: oacute.sc
Encoding: 57417 57417 292
Width: 498
GlyphClass: 1
Flags: W
LayerCount: 2
Fore
SplineSet
448 80 m 1,0,-1
 448 429 l 1,1,-1
 368 509 l 1,2,-1
 130 509 l 1,3,-1
 50 429 l 1,4,-1
 50 80 l 1,5,-1
 130 0 l 1,6,-1
 368 0 l 1,7,-1
 448 80 l 1,0,-1
332 111 m 1,8,-1
 166 111 l 1,9,-1
 166 398 l 1,10,-1
 332 398 l 1,11,-1
 332 111 l 1,8,-1
385 614 m 1,12,-1
 355 726 l 1,13,-1
 135 637 l 1,14,-1
 157 553 l 1,15,-1
 385 614 l 1,12,-1
EndSplineSet
EndChar

StartChar: ocircumflex.sc
Encoding: 57418 57418 293
Width: 498
GlyphClass: 1
Flags: W
LayerCount: 2
Fore
SplineSet
448 80 m 1,0,-1
 448 429 l 1,1,-1
 368 509 l 1,2,-1
 130 509 l 1,3,-1
 50 429 l 1,4,-1
 50 80 l 1,5,-1
 130 0 l 1,6,-1
 368 0 l 1,7,-1
 448 80 l 1,0,-1
332 111 m 1,8,-1
 166 111 l 1,9,-1
 166 398 l 1,10,-1
 332 398 l 1,11,-1
 332 111 l 1,8,-1
413 610 m 1,12,-1
 307 716 l 1,13,-1
 191 716 l 1,14,-1
 85 610 l 1,15,-1
 141 554 l 1,16,-1
 249 620 l 1,17,-1
 357 554 l 1,18,-1
 413 610 l 1,12,-1
EndSplineSet
EndChar

StartChar: otilde.sc
Encoding: 57419 57419 294
Width: 498
GlyphClass: 1
Flags: W
LayerCount: 2
Fore
SplineSet
450 80 m 1,0,-1
 450 429 l 1,1,-1
 370 509 l 1,2,-1
 132 509 l 1,3,-1
 52 429 l 1,4,-1
 52 80 l 1,5,-1
 132 0 l 1,6,-1
 370 0 l 1,7,-1
 450 80 l 1,0,-1
334 111 m 1,8,-1
 168 111 l 1,9,-1
 168 398 l 1,10,-1
 334 398 l 1,11,-1
 334 111 l 1,8,-1
453 632 m 1,12,-1
 366 718 l 1,13,-1
 261 718 l 1,14,-1
 192 649 l 1,15,-1
 121 720 l 1,16,-1
 50 650 l 1,17,-1
 137 563 l 1,18,-1
 242 563 l 1,19,-1
 311 632 l 1,20,-1
 382 561 l 1,21,-1
 453 632 l 1,12,-1
EndSplineSet
EndChar

StartChar: odieresis.sc
Encoding: 57420 57420 295
Width: 498
GlyphClass: 1
Flags: W
LayerCount: 2
Fore
SplineSet
448 80 m 1,0,-1
 448 429 l 1,1,-1
 368 509 l 1,2,-1
 130 509 l 1,3,-1
 50 429 l 1,4,-1
 50 80 l 1,5,-1
 130 0 l 1,6,-1
 368 0 l 1,7,-1
 448 80 l 1,0,-1
332 111 m 1,8,-1
 166 111 l 1,9,-1
 166 398 l 1,10,-1
 332 398 l 1,11,-1
 332 111 l 1,8,-1
423 569 m 1,12,-1
 423 685 l 1,13,-1
 307 685 l 1,14,-1
 307 569 l 1,15,-1
 423 569 l 1,12,-1
191 569 m 1,16,-1
 191 685 l 1,17,-1
 75 685 l 1,18,-1
 75 569 l 1,19,-1
 191 569 l 1,16,-1
EndSplineSet
EndChar

StartChar: oslash.sc
Encoding: 57421 57421 296
Width: 498
GlyphClass: 1
Flags: W
LayerCount: 2
Fore
SplineSet
503 489 m 1,0,-1
 461 529 l 1,1,-1
 406 470 l 1,2,-1
 367 509 l 1,3,-1
 129 509 l 1,4,-1
 49 429 l 1,5,-1
 49 80 l 1,6,-1
 -6 20 l 1,7,-1
 36 -20 l 1,8,-1
 90 39 l 1,9,-1
 129 0 l 1,10,-1
 367 0 l 1,11,-1
 447 80 l 1,12,-1
 447 428 l 1,13,-1
 503 489 l 1,0,-1
331 387 m 1,14,-1
 165 206 l 1,15,-1
 165 398 l 1,16,-1
 331 398 l 1,17,-1
 331 387 l 1,14,-1
331 111 m 1,18,-1
 165 111 l 1,19,-1
 165 121 l 1,20,-1
 331 302 l 1,21,-1
 331 111 l 1,18,-1
EndSplineSet
EndChar

StartChar: ugrave.sc
Encoding: 57422 57422 297
Width: 488
GlyphClass: 1
Flags: W
LayerCount: 2
Fore
SplineSet
439 509 m 1,0,-1
 322 509 l 1,1,-1
 322 111 l 1,2,-1
 166 111 l 1,3,-1
 166 509 l 1,4,-1
 50 509 l 1,5,-1
 50 80 l 1,6,-1
 130 0 l 1,7,-1
 381 0 l 1,8,-1
 439 58 l 1,9,-1
 439 509 l 1,0,-1
375 637 m 1,10,-1
 155 726 l 1,11,-1
 125 614 l 1,12,-1
 353 553 l 1,13,-1
 375 637 l 1,10,-1
EndSplineSet
EndChar

StartChar: uacute.sc
Encoding: 57423 57423 298
Width: 488
GlyphClass: 1
Flags: W
LayerCount: 2
Fore
SplineSet
439 509 m 1,0,-1
 322 509 l 1,1,-1
 322 111 l 1,2,-1
 166 111 l 1,3,-1
 166 509 l 1,4,-1
 50 509 l 1,5,-1
 50 80 l 1,6,-1
 130 0 l 1,7,-1
 381 0 l 1,8,-1
 439 58 l 1,9,-1
 439 509 l 1,0,-1
400 614 m 1,10,-1
 370 726 l 1,11,-1
 150 637 l 1,12,-1
 172 553 l 1,13,-1
 400 614 l 1,10,-1
EndSplineSet
EndChar

StartChar: ucircumflex.sc
Encoding: 57424 57424 299
Width: 488
GlyphClass: 1
Flags: W
LayerCount: 2
Fore
SplineSet
439 509 m 1,0,-1
 322 509 l 1,1,-1
 322 111 l 1,2,-1
 166 111 l 1,3,-1
 166 509 l 1,4,-1
 50 509 l 1,5,-1
 50 80 l 1,6,-1
 130 0 l 1,7,-1
 381 0 l 1,8,-1
 439 58 l 1,9,-1
 439 509 l 1,0,-1
411 610 m 1,10,-1
 305 716 l 1,11,-1
 189 716 l 1,12,-1
 83 610 l 1,13,-1
 139 554 l 1,14,-1
 247 620 l 1,15,-1
 355 554 l 1,16,-1
 411 610 l 1,10,-1
EndSplineSet
EndChar

StartChar: udieresis.sc
Encoding: 57425 57425 300
Width: 488
GlyphClass: 1
Flags: W
LayerCount: 2
Fore
SplineSet
439 509 m 1,0,-1
 322 509 l 1,1,-1
 322 111 l 1,2,-1
 166 111 l 1,3,-1
 166 509 l 1,4,-1
 50 509 l 1,5,-1
 50 80 l 1,6,-1
 130 0 l 1,7,-1
 381 0 l 1,8,-1
 439 58 l 1,9,-1
 439 509 l 1,0,-1
411 569 m 1,10,-1
 411 685 l 1,11,-1
 295 685 l 1,12,-1
 295 569 l 1,13,-1
 411 569 l 1,10,-1
179 569 m 1,14,-1
 179 685 l 1,15,-1
 63 685 l 1,16,-1
 63 569 l 1,17,-1
 179 569 l 1,14,-1
EndSplineSet
EndChar

StartChar: yacute.sc
Encoding: 57426 57426 301
Width: 424
GlyphClass: 1
Flags: W
LayerCount: 2
Fore
SplineSet
424 509 m 1,0,-1
 292 509 l 1,1,-1
 214 317 l 1,2,-1
 135 509 l 1,3,-1
 0 509 l 1,4,-1
 155 192 l 1,5,-1
 155 0 l 1,6,-1
 271 0 l 1,7,-1
 271 192 l 1,8,-1
 424 509 l 1,0,-1
396 615 m 1,9,-1
 366 727 l 1,10,-1
 146 638 l 1,11,-1
 168 554 l 1,12,-1
 396 615 l 1,9,-1
EndSplineSet
EndChar

StartChar: thorn.sc
Encoding: 57427 57427 302
Width: 478
GlyphClass: 1
Flags: W
LayerCount: 2
Fore
SplineSet
428 140 m 1,0,-1
 428 369 l 1,1,-1
 348 449 l 1,2,-1
 224 449 l 1,3,-1
 166 391 l 1,4,-1
 166 511 l 1,5,-1
 50 511 l 1,6,-1
 50 0 l 1,7,-1
 166 0 l 1,8,-1
 166 118 l 1,9,-1
 224 60 l 1,10,-1
 348 60 l 1,11,-1
 428 140 l 1,0,-1
312 171 m 1,12,-1
 166 171 l 1,13,-1
 166 338 l 1,14,-1
 312 338 l 1,15,-1
 312 171 l 1,12,-1
EndSplineSet
EndChar

StartChar: ydieresis.sc
Encoding: 57428 57428 303
Width: 424
GlyphClass: 1
Flags: W
LayerCount: 2
Fore
SplineSet
424 509 m 1,0,-1
 292 509 l 1,1,-1
 214 317 l 1,2,-1
 135 509 l 1,3,-1
 0 509 l 1,4,-1
 155 192 l 1,5,-1
 155 0 l 1,6,-1
 271 0 l 1,7,-1
 271 192 l 1,8,-1
 424 509 l 1,0,-1
387 569 m 1,9,-1
 387 685 l 1,10,-1
 271 685 l 1,11,-1
 271 569 l 1,12,-1
 387 569 l 1,9,-1
155 569 m 1,13,-1
 155 685 l 1,14,-1
 39 685 l 1,15,-1
 39 569 l 1,16,-1
 155 569 l 1,13,-1
EndSplineSet
EndChar

StartChar: Yacute
Encoding: 221 221 307
Width: 477
GlyphClass: 1
Flags: W
LayerCount: 2
Fore
SplineSet
378 746 m 1,0,-1
 348 858 l 1,1,-1
 128 769 l 1,2,-1
 150 685 l 1,3,-1
 378 746 l 1,0,-1
477 640 m 1,4,-1
 345 640 l 1,5,-1
 242 387 l 1,6,-1
 135 640 l 1,7,-1
 0 640 l 1,8,-1
 183 262 l 1,9,-1
 184 0 l 1,10,-1
 299 0 l 1,11,-1
 299 262 l 1,12,-1
 477 640 l 1,4,-1
EndSplineSet
EndChar

StartChar: Scaron
Encoding: 352 352 308
Width: 498
GlyphClass: 1
Flags: W
LayerCount: 2
Fore
SplineSet
399 748 m 1,0,-1
 399 840 l 1,1,-1
 320 840 l 1,2,-1
 320 796 l 1,3,-1
 266 740 l 1,4,-1
 212 796 l 1,5,-1
 212 840 l 1,6,-1
 133 840 l 1,7,-1
 133 748 l 1,8,-1
 201 680 l 1,9,-1
 331 680 l 1,10,-1
 399 748 l 1,0,-1
448 80 m 1,11,-1
 448 303 l 1,12,-1
 368 384 l 1,13,-1
 171 384 l 1,14,-1
 171 522 l 1,15,-1
 446 522 l 1,16,-1
 446 589 l 1,17,-1
 395 640 l 1,18,-1
 130 640 l 1,19,-1
 50 560 l 1,20,-1
 50 346 l 1,21,-1
 130 266 l 1,22,-1
 327 266 l 1,23,-1
 327 118 l 1,24,-1
 52 118 l 1,25,-1
 52 51 l 1,26,-1
 103 0 l 1,27,-1
 368 0 l 1,28,-1
 448 80 l 1,11,-1
EndSplineSet
EndChar

StartChar: scaron
Encoding: 353 353 309
Width: 468
GlyphClass: 1
Flags: W
LayerCount: 2
Fore
SplineSet
368 622 m 1,0,-1
 368 714 l 1,1,-1
 289 714 l 1,2,-1
 289 670 l 1,3,-1
 235 614 l 1,4,-1
 181 670 l 1,5,-1
 181 714 l 1,6,-1
 102 714 l 1,7,-1
 102 622 l 1,8,-1
 170 554 l 1,9,-1
 300 554 l 1,10,-1
 368 622 l 1,0,-1
418 80 m 1,11,-1
 418 232 l 1,12,-1
 338 312 l 1,13,-1
 166 312 l 1,14,-1
 166 403 l 1,15,-1
 302 403 l 1,16,-1
 302 363 l 1,17,-1
 418 363 l 1,18,-1
 418 429 l 1,19,-1
 338 509 l 1,20,-1
 130 509 l 1,21,-1
 50 429 l 1,22,-1
 50 282 l 1,23,-1
 130 202 l 1,24,-1
 302 202 l 1,25,-1
 302 106 l 1,26,-1
 166 106 l 1,27,-1
 166 146 l 1,28,-1
 50 146 l 1,29,-1
 50 80 l 1,30,-1
 130 0 l 1,31,-1
 338 0 l 1,32,-1
 418 80 l 1,11,-1
EndSplineSet
EndChar

StartChar: uni0430
Encoding: 1072 1072 310
Width: 488
Flags: W
LayerCount: 2
Fore
SplineSet
438 429 m 1,0,-1
 358 509 l 1,1,-1
 130 509 l 1,2,-1
 50 429 l 1,3,-1
 50 398 l 1,4,-1
 322 398 l 1,5,-1
 322 308 l 1,6,-1
 130 308 l 1,7,-1
 40 218 l 1,8,-1
 40 80 l 1,9,-1
 120 0 l 1,10,-1
 264 0 l 1,11,-1
 322 58 l 1,12,-1
 412 0 l 1,13,-1
 438 0 l 1,14,-1
 438 429 l 1,0,-1
322 106 m 1,15,-1
 156 106 l 1,16,-1
 156 202 l 1,17,-1
 322 202 l 1,18,-1
 322 106 l 1,15,-1
EndSplineSet
EndChar

StartChar: uni0410
Encoding: 1040 1040 311
Width: 473
Flags: W
LayerCount: 2
Fore
SplineSet
473 0 m 1,0,-1
 289 640 l 1,1,-1
 183 640 l 1,2,-1
 0 0 l 1,3,-1
 116 0 l 1,4,-1
 156 157 l 1,5,-1
 316 157 l 1,6,-1
 361 0 l 1,7,-1
 473 0 l 1,0,-1
285 262 m 1,8,-1
 186 262 l 1,9,-1
 236 454 l 1,10,-1
 285 262 l 1,8,-1
EndSplineSet
EndChar

StartChar: uni0412
Encoding: 1042 1042 312
Width: 498
Flags: W
LayerCount: 2
Fore
SplineSet
448 80 m 1,0,-1
 448 275 l 1,1,-1
 398 325 l 1,2,-1
 448 375 l 1,3,-1
 448 560 l 1,4,-1
 368 640 l 1,5,-1
 50 640 l 1,6,-1
 50 0 l 1,7,-1
 368 0 l 1,8,-1
 448 80 l 1,0,-1
332 111 m 1,9,-1
 166 111 l 1,10,-1
 166 270 l 1,11,-1
 332 270 l 1,12,-1
 332 111 l 1,9,-1
332 380 m 1,13,-1
 166 380 l 1,14,-1
 166 529 l 1,15,-1
 332 529 l 1,16,-1
 332 380 l 1,13,-1
EndSplineSet
EndChar

StartChar: uni042F
Encoding: 1071 1071 313
Width: 483
Flags: W
LayerCount: 2
Fore
SplineSet
46 0 m 1,0,-1
 146 247 l 1,1,-1
 66 327 l 1,2,-1
 66 560 l 1,3,-1
 146 640 l 1,4,-1
 464 640 l 1,5,-1
 464 0 l 1,6,-1
 348 0 l 1,7,-1
 348 247 l 1,8,-1
 271 247 l 1,9,-1
 175 0 l 1,10,-1
 46 0 l 1,0,-1
182 363 m 1,11,-1
 348 363 l 1,12,-1
 348 529 l 1,13,-1
 182 529 l 1,14,-1
 182 363 l 1,11,-1
EndSplineSet
EndChar

StartChar: uni0425
Encoding: 1061 1061 314
Width: 503
Flags: W
LayerCount: 2
Fore
SplineSet
503 0 m 1,0,-1
 321 320 l 1,1,-1
 503 640 l 1,2,-1
 373 640 l 1,3,-1
 253 420 l 1,4,-1
 129 640 l 1,5,-1
 0 640 l 1,6,-1
 185 319 l 1,7,-1
 1 0 l 1,8,-1
 130 0 l 1,9,-1
 253 219 l 1,10,-1
 379 0 l 1,11,-1
 503 0 l 1,0,-1
EndSplineSet
EndChar

StartChar: uni0445
Encoding: 1093 1093 315
Width: 457
Flags: W
LayerCount: 2
Fore
SplineSet
458 0 m 1,0,-1
 303 257 l 1,1,-1
 457 509 l 1,2,-1
 336 509 l 1,3,-1
 231 330 l 1,4,-1
 131 509 l 1,5,-1
 5 509 l 1,6,-1
 160 257 l 1,7,-1
 0 0 l 1,8,-1
 122 0 l 1,9,-1
 231 184 l 1,10,-1
 344 0 l 1,11,-1
 458 0 l 1,0,-1
EndSplineSet
EndChar

StartChar: uni0441
Encoding: 1089 1089 316
Width: 458
Flags: W
LayerCount: 2
Fore
SplineSet
433 80 m 1,0,-1
 433 111 l 1,1,-1
 166 111 l 1,2,-1
 166 398 l 1,3,-1
 433 398 l 1,4,-1
 433 429 l 1,5,-1
 353 509 l 1,6,-1
 130 509 l 1,7,-1
 50 429 l 1,8,-1
 50 80 l 1,9,-1
 130 0 l 1,10,-1
 353 0 l 1,11,-1
 433 80 l 1,0,-1
EndSplineSet
EndChar

StartChar: uni0421
Encoding: 1057 1057 317
Width: 461
Flags: W
LayerCount: 2
Fore
SplineSet
436 80 m 1,0,-1
 436 111 l 1,1,-1
 166 111 l 1,2,-1
 166 529 l 1,3,-1
 436 529 l 1,4,-1
 436 560 l 1,5,-1
 356 640 l 1,6,-1
 130 640 l 1,7,-1
 50 560 l 1,8,-1
 50 80 l 1,9,-1
 130 0 l 1,10,-1
 356 0 l 1,11,-1
 436 80 l 1,0,-1
EndSplineSet
EndChar

StartChar: uni0422
Encoding: 1058 1058 318
Width: 468
Flags: W
LayerCount: 2
Fore
SplineSet
458 640 m 1,0,-1
 10 640 l 1,1,-1
 10 528 l 1,2,-1
 176 529 l 1,3,-1
 176 0 l 1,4,-1
 292 0 l 1,5,-1
 292 529 l 1,6,-1
 458 529 l 1,7,-1
 458 640 l 1,0,-1
EndSplineSet
EndChar

StartChar: uni0443
Encoding: 1091 1091 319
Width: 467
Flags: W
LayerCount: 2
Fore
SplineSet
467 509 m 1,0,-1
 344 509 l 1,1,-1
 241 206 l 1,2,-1
 124 509 l 1,3,-1
 0 509 l 1,4,-1
 183 50 l 1,5,-1
 112 -136 l 1,6,-1
 233 -136 l 1,7,-1
 467 509 l 1,0,-1
EndSplineSet
EndChar

StartChar: uni0435
Encoding: 1077 1077 320
Width: 493
Flags: W
LayerCount: 2
Fore
SplineSet
448 80 m 1,0,-1
 448 106 l 1,1,-1
 166 106 l 1,2,-1
 166 197 l 1,3,-1
 368 197 l 1,4,-1
 448 277 l 1,5,-1
 448 429 l 1,6,-1
 368 509 l 1,7,-1
 130 509 l 1,8,-1
 50 429 l 1,9,-1
 50 80 l 1,10,-1
 130 0 l 1,11,-1
 368 0 l 1,12,-1
 448 80 l 1,0,-1
332 303 m 1,13,-1
 166 303 l 1,14,-1
 166 398 l 1,15,-1
 332 398 l 1,16,-1
 332 303 l 1,13,-1
EndSplineSet
EndChar

StartChar: uni0415
Encoding: 1045 1045 321
Width: 479
Flags: W
LayerCount: 2
Fore
SplineSet
449 0 m 1,0,-1
 449 111 l 1,1,-1
 167 111 l 1,2,-1
 167 262 l 1,3,-1
 358 262 l 1,4,-1
 358 378 l 1,5,-1
 167 378 l 1,6,-1
 167 529 l 1,7,-1
 449 529 l 1,8,-1
 449 640 l 1,9,-1
 50 640 l 1,10,-1
 50 0 l 1,11,-1
 449 0 l 1,0,-1
EndSplineSet
EndChar

StartChar: uni041E
Encoding: 1054 1054 322
Width: 498
Flags: W
LayerCount: 2
Fore
SplineSet
448 80 m 1,0,-1
 448 560 l 1,1,-1
 368 640 l 1,2,-1
 130 640 l 1,3,-1
 50 560 l 1,4,-1
 50 80 l 1,5,-1
 130 0 l 1,6,-1
 368 0 l 1,7,-1
 448 80 l 1,0,-1
332 111 m 1,8,-1
 166 111 l 1,9,-1
 166 529 l 1,10,-1
 332 529 l 1,11,-1
 332 111 l 1,8,-1
EndSplineSet
EndChar

StartChar: uni043E
Encoding: 1086 1086 323
Width: 498
Flags: W
LayerCount: 2
Fore
SplineSet
448 80 m 1,0,-1
 448 429 l 1,1,-1
 368 509 l 1,2,-1
 130 509 l 1,3,-1
 50 429 l 1,4,-1
 50 80 l 1,5,-1
 130 0 l 1,6,-1
 368 0 l 1,7,-1
 448 80 l 1,0,-1
332 111 m 1,8,-1
 166 111 l 1,9,-1
 166 398 l 1,10,-1
 332 398 l 1,11,-1
 332 111 l 1,8,-1
EndSplineSet
EndChar

StartChar: uni0440
Encoding: 1088 1088 324
Width: 488
Flags: W
LayerCount: 2
Fore
SplineSet
438 80 m 1,0,-1
 438 429 l 1,1,-1
 358 509 l 1,2,-1
 224 509 l 1,3,-1
 166 451 l 1,4,-1
 76 509 l 1,5,-1
 50 509 l 1,6,-1
 51 -160 l 1,7,-1
 166 -160 l 1,8,-1
 166 58 l 1,9,-1
 224 0 l 1,10,-1
 358 0 l 1,11,-1
 438 80 l 1,0,-1
322 111 m 1,12,-1
 166 111 l 1,13,-1
 166 398 l 1,14,-1
 322 398 l 1,15,-1
 322 111 l 1,12,-1
EndSplineSet
EndChar

StartChar: uni041C
Encoding: 1052 1052 325
Width: 568
Flags: W
LayerCount: 2
Fore
SplineSet
518 640 m 1,0,-1
 412 640 l 1,1,-1
 284 323 l 1,2,-1
 156 640 l 1,3,-1
 50 640 l 1,4,-1
 50 0 l 1,5,-1
 163 0 l 1,6,-1
 163 335 l 1,7,-1
 255 106 l 1,8,-1
 313 106 l 1,9,-1
 405 335 l 1,10,-1
 406 0 l 1,11,-1
 518 0 l 1,12,-1
 518 640 l 1,0,-1
EndSplineSet
EndChar

StartChar: uni041D
Encoding: 1053 1053 326
Width: 499
Flags: W
LayerCount: 2
Fore
SplineSet
449 640 m 1,0,-1
 333 640 l 1,1,-1
 333 378 l 1,2,-1
 167 378 l 1,3,-1
 167 640 l 1,4,-1
 51 640 l 1,5,-1
 51 0 l 1,6,-1
 167 0 l 1,7,-1
 167 262 l 1,8,-1
 333 262 l 1,9,-1
 333 0 l 1,10,-1
 449 0 l 1,11,-1
 449 640 l 1,0,-1
EndSplineSet
EndChar

StartChar: uni041F
Encoding: 1055 1055 327
Width: 498
Flags: W
LayerCount: 2
Fore
SplineSet
448 0 m 1,0,-1
 448 640 l 1,1,-1
 368 640 l 1,2,-1
 151 640 l 1,3,-1
 50 640 l 1,4,-1
 50 0 l 1,5,-1
 170 0 l 1,6,-1
 169 530 l 1,7,-1
 342 530 l 1,8,-1
 342 0 l 1,9,-1
 448 0 l 1,0,-1
EndSplineSet
EndChar

StartChar: uni0456
Encoding: 1110 1110 328
Width: 216
Flags: W
LayerCount: 2
Fore
SplineSet
166 509 m 1,0,-1
 50 509 l 1,1,-1
 50 0 l 1,2,-1
 166 0 l 1,3,-1
 166 509 l 1,0,-1
166 560 m 1,4,-1
 166 680 l 1,5,-1
 50 680 l 1,6,-1
 50 560 l 1,7,-1
 166 560 l 1,4,-1
EndSplineSet
EndChar

StartChar: uni0457
Encoding: 1111 1111 329
Width: 216
Flags: W
LayerCount: 2
Fore
SplineSet
261 569 m 1,0,-1
 261 685 l 1,1,-1
 145 685 l 1,2,-1
 145 569 l 1,3,-1
 261 569 l 1,0,-1
74 569 m 1,4,-1
 74 685 l 1,5,-1
 -42 685 l 1,6,-1
 -42 569 l 1,7,-1
 74 569 l 1,4,-1
166 509 m 1,8,-1
 50 509 l 1,9,-1
 50 0 l 1,10,-1
 166 0 l 1,11,-1
 166 509 l 1,8,-1
EndSplineSet
EndChar

StartChar: uni0407
Encoding: 1031 1031 330
Width: 216
Flags: W
LayerCount: 2
Fore
SplineSet
281 684 m 1,0,-1
 281 800 l 1,1,-1
 165 800 l 1,2,-1
 165 684 l 1,3,-1
 281 684 l 1,0,-1
49 684 m 1,4,-1
 49 800 l 1,5,-1
 -67 800 l 1,6,-1
 -67 684 l 1,7,-1
 49 684 l 1,4,-1
166 640 m 1,8,-1
 50 640 l 1,9,-1
 50 0 l 1,10,-1
 166 0 l 1,11,-1
 166 640 l 1,8,-1
EndSplineSet
EndChar

StartChar: uni0406
Encoding: 1030 1030 331
Width: 216
Flags: W
LayerCount: 2
Fore
SplineSet
166 640 m 1,0,-1
 50 640 l 1,1,-1
 50 0 l 1,2,-1
 166 0 l 1,3,-1
 166 640 l 1,0,-1
EndSplineSet
EndChar

StartChar: uni0413
Encoding: 1043 1043 332
Width: 498
Flags: W
LayerCount: 2
Fore
SplineSet
448 540 m 5,0,-1
 448 640 l 1,1,-1
 334 640 l 1,2,-1
 130 640 l 1,3,-1
 50 560 l 1,4,-1
 50 0 l 1,5,-1
 165 0 l 1,6,-1
 164 540 l 1,7,-1
 347 540 l 1,8,-1
 347 540 l 1,9,-1
 448 540 l 5,0,-1
EndSplineSet
EndChar

StartChar: uni0417
Encoding: 1047 1047 333
Width: 473
Flags: W
LayerCount: 2
Fore
SplineSet
423 80 m 1,0,-1
 423 280 l 1,1,-1
 373 330 l 1,2,-1
 423 380 l 1,3,-1
 423 560 l 1,4,-1
 343 640 l 1,5,-1
 105 640 l 1,6,-1
 25 560 l 1,7,-1
 25 529 l 1,8,-1
 307 529 l 1,9,-1
 307 388 l 1,10,-1
 112 388 l 5,11,-1
 112 272 l 5,12,-1
 307 272 l 1,13,-1
 307 111 l 1,14,-1
 25 111 l 1,15,-1
 25 80 l 1,16,-1
 105 0 l 1,17,-1
 343 0 l 1,18,-1
 423 80 l 1,0,-1
EndSplineSet
EndChar

StartChar: uni0418
Encoding: 1048 1048 334
Width: 498
Flags: W
LayerCount: 2
Fore
SplineSet
448 640 m 5,0,-1
 448 0 l 5,1,-1
 334 0 l 5,2,-1
 334 363 l 5,3,-1
 151 0 l 5,4,-1
 50 0 l 5,5,-1
 50 640 l 5,6,-1
 165 640 l 5,7,-1
 164 277 l 5,8,-1
 347 640 l 5,9,-1
 448 640 l 5,0,-1
EndSplineSet
EndChar

StartChar: uni0419
Encoding: 1049 1049 335
Width: 498
InSpiro: 1
Flags: W
LayerCount: 2
Fore
SplineSet
193 647 m 1,0,-1
 114.960784314 736 l 1,1,-1
 115 800 l 1,2,-1
 199 800 l 1,3,-1
 237 737 l 1,4,-1
 275 737 l 1,5,-1
 313 800 l 1,6,-1
 397 800 l 1,7,-1
 397 736 l 1,8,-1
 319 647 l 1,9,-1
 193 647 l 1,0,-1
  Spiro
    193 647 v
    114.961 736 v
    115 800 v
    199 800 v
    237 737 v
    275 737 v
    313 800 v
    397 800 v
    397 736 v
    319 647 v
    0 0 z
  EndSpiro
448 640 m 1,10,-1
 448 0 l 1,11,-1
 334 0 l 1,12,-1
 334 363 l 1,13,-1
 151 0 l 1,14,-1
 50 0 l 1,15,-1
 50 640 l 1,16,-1
 165 640 l 1,17,-1
 164 277 l 1,18,-1
 347 640 l 1,19,-1
 448 640 l 1,10,-1
  Spiro
    448 640 v
    448 0 v
    334 0 v
    334 363 v
    151 0 v
    50 0 v
    50 640 v
    165 640 v
    164 277 v
    347 640 v
    0 0 z
  EndSpiro
EndSplineSet
EndChar

StartChar: uni0442
Encoding: 1090 1090 336
Width: 458
InSpiro: 1
Flags: W
LayerCount: 2
Fore
SplineSet
300 0 m 1,0,-1
 300 398 l 1,1,-1
 433 398 l 1,2,-1
 433 429 l 1,3,-1
 433 509 l 1,4,-1
 51 509 l 1,5,-1
 51 398 l 1,6,-1
 184 398 l 1,7,-1
 184 0 l 1,8,-1
 300 0 l 1,0,-1
  Spiro
    300 0 v
    300 398 v
    433 398 v
    433 429 v
    433 509 v
    51 509 v
    51 398 v
    184 398 v
    184 0 v
    0 0 z
  EndSpiro
EndSplineSet
EndChar

StartChar: uni0454
Encoding: 1108 1108 337
Width: 458
Flags: W
LayerCount: 2
Fore
SplineSet
166 308 m 1,0,-1
 334 308 l 5,1,-1
 334 201 l 5,2,-1
 166 201 l 1,3,-1
 166 308 l 1,0,-1
433 80 m 1,4,-1
 433 111 l 1,5,-1
 166 111 l 1,6,-1
 166 398 l 1,7,-1
 433 398 l 1,8,-1
 433 429 l 1,9,-1
 353 509 l 1,10,-1
 130 509 l 1,11,-1
 50 429 l 1,12,-1
 50 80 l 1,13,-1
 130 0 l 1,14,-1
 353 0 l 1,15,-1
 433 80 l 1,4,-1
EndSplineSet
EndChar

StartChar: uni0420
Encoding: 1056 1056 338
Width: 498
Flags: W
LayerCount: 2
Fore
SplineSet
448 327 m 1,0,-1
 448 560 l 1,1,-1
 368 640 l 1,2,-1
 50 640 l 1,3,-1
 50 0 l 1,4,-1
 166 0 l 1,5,-1
 166 247 l 1,6,-1
 368 247 l 1,7,-1
 448 327 l 1,0,-1
332 358 m 1,8,-1
 166 358 l 1,9,-1
 166 529 l 1,10,-1
 332 529 l 1,11,-1
 332 358 l 1,8,-1
EndSplineSet
EndChar

StartChar: uni0424
Encoding: 1060 1060 339
Width: 708
InSpiro: 1
Flags: W
LayerCount: 2
Fore
SplineSet
130 247 m 1,0,-1
 296 247 l 1,1,-1
 296 0 l 1,2,-1
 412 0 l 1,3,-1
 412 640 l 1,4,-1
 130 640 l 1,5,-1
 50 560 l 1,6,-1
 50 327 l 1,7,-1
 130 247 l 1,0,-1
  Spiro
    130 247 v
    296 247 v
    296 0 v
    412 0 v
    412 640 v
    130 640 v
    50 560 v
    50 327 v
    0 0 z
  EndSpiro
166 529 m 1,8,-1
 296 529 l 1,9,-1
 296 358 l 1,10,-1
 166 358 l 1,11,-1
 166 529 l 1,8,-1
  Spiro
    166 529 v
    296 529 v
    296 358 v
    166 358 v
    0 0 z
  EndSpiro
658 327 m 1,12,-1
 658 560 l 1,13,-1
 578 640 l 1,14,-1
 296 640 l 1,15,-1
 296 0 l 1,16,-1
 412 0 l 1,17,-1
 412 247 l 1,18,-1
 578 247 l 1,19,-1
 658 327 l 1,12,-1
  Spiro
    658 327 v
    658 560 v
    578 640 v
    296 640 v
    296 0 v
    412 0 v
    412 247 v
    578 247 v
    0 0 z
  EndSpiro
542 358 m 1,20,-1
 412 358 l 1,21,-1
 412 529 l 1,22,-1
 542 529 l 1,23,-1
 542 358 l 1,20,-1
  Spiro
    542 358 v
    412 358 v
    412 529 v
    542 529 v
    0 0 z
  EndSpiro
EndSplineSet
EndChar

StartChar: uni042C
Encoding: 1068 1068 340
Width: 498
InSpiro: 1
Flags: W
LayerCount: 2
Fore
SplineSet
448 289 m 1,0,-1
 448 80 l 1,1,-1
 368 0 l 1,2,-1
 130 0 l 1,3,-1
 50 80 l 1,4,-1
 50 640 l 1,5,-1
 166 640 l 1,6,-1
 166 369 l 1,7,-1
 368 369 l 1,8,-1
 448 289 l 1,0,-1
  Spiro
    448 289 v
    448 80 v
    368 0 v
    130 0 v
    50 80 v
    50 640 v
    166 640 v
    166 369 v
    368 369 v
    0 0 z
  EndSpiro
332 258 m 1,9,-1
 166 258 l 1,10,-1
 166 111 l 1,11,-1
 332 111 l 1,12,-1
 332 258 l 1,9,-1
  Spiro
    332 258 v
    166 258 v
    166 111 v
    332 111 v
    0 0 z
  EndSpiro
EndSplineSet
EndChar

StartChar: uni0426
Encoding: 1062 1062 341
Width: 548
InSpiro: 1
Flags: W
LayerCount: 2
Fore
SplineSet
448 640 m 1,0,-1
 448 108 l 1,1,-1
 498 108 l 1,2,-1
 548 58 l 1,3,-1
 548 -100 l 1,4,-1
 448 -100 l 1,5,-1
 448 0 l 1,6,-1
 130 0 l 1,7,-1
 50 80 l 1,8,-1
 50 640 l 1,9,-1
 170 640 l 1,10,-1
 169 110 l 1,11,-1
 342 110 l 1,12,-1
 342 640 l 1,13,-1
 448 640 l 1,0,-1
  Spiro
    448 640 v
    448 108 v
    498 108 v
    548 58 v
    548 -100 v
    448 -100 v
    448 0 v
    130 0 v
    50 80 v
    50 640 v
    170 640 v
    169 110 v
    342 110 v
    342 640 v
    0 0 z
  EndSpiro
EndSplineSet
EndChar

StartChar: uni042E
Encoding: 1070 1070 342
Width: 730
InSpiro: 1
Flags: W
LayerCount: 2
Fore
SplineSet
282 275 m 1,0,-1
 282 80 l 1,1,-1
 362 0 l 1,2,-1
 600 0 l 1,3,-1
 680 80 l 1,4,-1
 680 560 l 1,5,-1
 600 640 l 1,6,-1
 362 640 l 1,7,-1
 282 560 l 1,8,-1
 282 391 l 1,9,-1
 166 391 l 1,10,-1
 166 640 l 1,11,-1
 50 640 l 1,12,-1
 50 0 l 1,13,-1
 166 0 l 1,14,-1
 166 274.897460938 l 1,15,-1
 282 275 l 1,0,-1
  Spiro
    282 275 v
    282 80 v
    362 0 v
    600 0 v
    680 80 v
    680 560 v
    600 640 v
    362 640 v
    282 560 v
    282 391 v
    166 391 v
    166 640 v
    50 640 v
    50 0 v
    166 0 v
    166 274.897 v
    0 0 z
  EndSpiro
564 111 m 1,16,-1
 398 111 l 1,17,-1
 398 529 l 1,18,-1
 564 529 l 1,19,-1
 564 111 l 1,16,-1
  Spiro
    564 111 v
    398 111 v
    398 529 v
    564 529 v
    0 0 z
  EndSpiro
EndSplineSet
EndChar

StartChar: uni0433
Encoding: 1075 1075 343
Width: 458
InSpiro: 1
Flags: W
LayerCount: 2
Fore
SplineSet
166 0 m 1,0,-1
 166 398 l 1,1,-1
 358 398 l 1,2,-1
 433 463 l 1,3,-1
 433 509 l 1,4,-1
 130 509 l 1,5,-1
 50 399 l 1,6,-1
 50 0 l 1,7,-1
 166 0 l 1,0,-1
  Spiro
    166 0 v
    166 398 v
    358 398 v
    433 463 v
    433 509 v
    130 509 v
    50 399 v
    50 0 v
    0 0 z
  EndSpiro
EndSplineSet
EndChar

StartChar: uni043F
Encoding: 1087 1087 344
Width: 458
Flags: W
LayerCount: 2
Fore
SplineSet
166 0 m 1,0,-1
 166 398 l 1,1,-1
 317 398 l 1,2,-1
 317 0 l 1,3,-1
 433 0 l 1,4,-1
 433 509 l 1,5,-1
 50 509 l 1,6,-1
 50 0 l 1,7,-1
 166 0 l 1,0,-1
EndSplineSet
EndChar

StartChar: uni043D
Encoding: 1085 1085 345
Width: 458
InSpiro: 1
Flags: W
LayerCount: 2
Fore
SplineSet
166 0 m 1,0,-1
 166 200 l 1,1,-1
 317 200 l 1,2,-1
 317 0 l 1,3,-1
 433 0 l 1,4,-1
 433 509 l 1,5,-1
 317 509 l 1,6,-1
 317 316 l 1,7,-1
 166 316 l 1,8,-1
 166 509 l 1,9,-1
 50 509 l 1,10,-1
 50 0 l 1,11,-1
 166 0 l 1,0,-1
  Spiro
    166 0 v
    166 200 v
    317 200 v
    317 0 v
    433 0 v
    433 509 v
    317 509 v
    317 316 v
    166 316 v
    166 509 v
    50 509 v
    50 0 v
    0 0 z
  EndSpiro
EndSplineSet
EndChar

StartChar: uni0404
Encoding: 1028 1028 346
Width: 461
Flags: W
LayerCount: 2
Fore
SplineSet
166 376 m 1,0,-1
 341 376 l 1,1,-1
 341 265 l 1,2,-1
 166 265 l 1,3,-1
 166 376 l 1,0,-1
436 80 m 1,4,-1
 436 116 l 5,5,-1
 166 116 l 5,6,-1
 166 524 l 1,7,-1
 436 524 l 1,8,-1
 436 560 l 1,9,-1
 356 640 l 1,10,-1
 140 640 l 1,11,-1
 50 550 l 1,12,-1
 50 90 l 1,13,-1
 140 0 l 1,14,-1
 356 0 l 1,15,-1
 436 80 l 1,4,-1
EndSplineSet
EndChar

StartChar: uni0411
Encoding: 1041 1041 347
Width: 498
Flags: W
LayerCount: 2
Fore
SplineSet
448 529 m 1,0,-1
 447 640 l 1,1,-1
 50 640 l 1,2,-1
 50 0 l 1,3,-1
 368 0 l 1,4,-1
 448 80 l 1,5,-1
 448 312 l 1,6,-1
 368 392 l 1,7,-1
 166 392 l 1,8,-1
 166 529 l 1,9,-1
 448 529 l 1,0,-1
332 111 m 1,10,-1
 166 111 l 1,11,-1
 166 282 l 1,12,-1
 332 282 l 1,13,-1
 332 111 l 1,10,-1
EndSplineSet
EndChar

StartChar: uni0416
Encoding: 1046 1046 348
Width: 859
Flags: W
LayerCount: 2
Fore
SplineSet
475 640 m 1,0,-1
 475 0 l 1,1,-1
 359 0 l 1,2,-1
 359 262 l 1,3,-1
 273 262 l 1,4,-1
 151 0 l 1,5,-1
 25 0 l 1,6,-1
 174 320 l 1,7,-1
 25 640 l 1,8,-1
 151 640 l 1,9,-1
 273 378 l 1,10,-1
 359 378 l 1,11,-1
 359 640 l 5,12,-1
 475 640 l 1,0,-1
  Spiro
    475 0 v
    359 0 v
    359 262 v
    273 262 v
    151 0 v
    25 0 v
    174 320 v
    25 640 v
    151 640 v
    273 378 v
    359 378 v
    359 640 v
    475 640 v
    0 0 z
  EndSpiro
359 640 m 1,13,-1
 475 640 l 1,14,-1
 475 378 l 1,15,-1
 561 378 l 1,16,-1
 683 640 l 1,17,-1
 809 640 l 1,18,-1
 660 320 l 1,19,-1
 809 0 l 1,20,-1
 683 0 l 1,21,-1
 561 262 l 1,22,-1
 475 262 l 1,23,-1
 475 0 l 1,24,-1
 359 0 l 1,25,-1
 359 640 l 1,13,-1
  Spiro
    359 640 v
    475 640 v
    475 378 v
    561 378 v
    683 640 v
    809 640 v
    660 320 v
    809 0 v
    683 0 v
    561 262 v
    475 262 v
    475 0 v
    359 0 v
    0 0 z
  EndSpiro
EndSplineSet
EndChar

StartChar: uni041A
Encoding: 1050 1050 349
Width: 550
Flags: W
LayerCount: 2
Fore
SplineSet
50 640 m 5,0,-1
 166 640 l 5,1,-1
 166 378 l 5,2,-1
 252 378 l 5,3,-1
 374 640 l 5,4,-1
 500 640 l 5,5,-1
 351 320 l 5,6,-1
 500 0 l 5,7,-1
 374 0 l 5,8,-1
 252 262 l 5,9,-1
 166 262 l 5,10,-1
 166 0 l 5,11,-1
 50 0 l 5,12,-1
 50 640 l 5,0,-1
EndSplineSet
EndChar

StartChar: uni0444
Encoding: 1092 1092 350
Width: 760
InSpiro: 1
Flags: W
LayerCount: 2
Fore
SplineSet
95 80 m 1,0,-1
 95 429 l 1,1,-1
 175 509 l 1,2,-1
 264 509 l 1,3,-1
 322 509 l 1,4,-1
 322 559 l 1,5,-1
 437 559 l 1,6,-1
 437 -160 l 1,7,-1
 322 -160 l 1,8,-1
 322 0 l 1,9,-1
 264 0 l 1,10,-1
 175 0 l 1,11,-1
 95 80 l 1,0,-1
  Spiro
    95 80 v
    95 429 v
    175 509 v
    264 509 v
    322 509 v
    322 559 v
    437 559 v
    437 -160 v
    322 -160 v
    322 0 v
    264 0 v
    175 0 v
    0 0 z
  EndSpiro
211 111 m 1,12,-1
 322 111 l 1,13,-1
 322 398 l 1,14,-1
 211 398 l 1,15,-1
 211 111 l 1,12,-1
  Spiro
    211 111 v
    322 111 v
    322 398 v
    211 398 v
    0 0 z
  EndSpiro
584 0 m 1,16,-1
 496 0 l 1,17,-1
 437 0 l 1,18,-1
 437 -160 l 1,19,-1
 322 -160 l 1,20,-1
 322 509 l 1,21,-1
 348 509 l 1,22,-1
 438 509 l 1,23,-1
 496 509 l 1,24,-1
 584 509 l 1,25,-1
 664 429 l 1,26,-1
 664 80 l 1,27,-1
 584 0 l 1,16,-1
  Spiro
    584 0 v
    496 0 v
    437 0 v
    437 -160 v
    322 -160 v
    322 509 v
    348 509 v
    438 509 v
    496 509 v
    584 509 v
    664 429 v
    664 80 v
    0 0 z
  EndSpiro
548 398 m 1,28,-1
 437 398 l 1,29,-1
 437 111 l 1,30,-1
 548 111 l 1,31,-1
 548 398 l 1,28,-1
  Spiro
    548 398 v
    437 398 v
    437 111 v
    548 111 v
    0 0 z
  EndSpiro
EndSplineSet
EndChar

StartChar: uni0448
Encoding: 1096 1096 351
Width: 661
Flags: W
LayerCount: 2
Fore
SplineSet
388 509 m 1,0,-1
 388 111 l 1,1,-1
 494 111 l 1,2,-1
 494 509 l 1,3,-1
 610 509 l 1,4,-1
 610 0 l 1,5,-1
 272 0 l 1,6,-1
 272 509 l 1,7,-1
 388 509 l 1,0,-1
166 509 m 1,8,-1
 166 111 l 1,9,-1
 272 111 l 1,10,-1
 272 509 l 1,11,-1
 388 509 l 1,12,-1
 388 0 l 1,13,-1
 130 0 l 1,14,-1
 50 80 l 1,15,-1
 50 509 l 1,16,-1
 166 509 l 1,8,-1
EndSplineSet
EndChar

StartChar: uni0449
Encoding: 1097 1097 352
Width: 710
Flags: W
LayerCount: 2
Fore
SplineSet
388 509 m 1,0,-1
 388 111 l 1,1,-1
 494 111 l 1,2,-1
 494 509 l 1,3,-1
 610 509 l 1,4,-1
 610 111 l 1,5,-1
 630 111 l 1,6,-1
 710 31 l 1,7,-1
 710 -109 l 1,8,-1
 610 -109 l 1,9,-1
 610 0 l 1,10,-1
 272 0 l 1,11,-1
 272 509 l 1,12,-1
 388 509 l 1,0,-1
166 509 m 1,13,-1
 166 111 l 1,14,-1
 272 111 l 1,15,-1
 272 509 l 1,16,-1
 388 509 l 1,17,-1
 388 0 l 1,18,-1
 130 0 l 1,19,-1
 50 80 l 1,20,-1
 50 509 l 1,21,-1
 166 509 l 1,13,-1
EndSplineSet
EndChar

StartChar: uni043A
Encoding: 1082 1082 353
Width: 529
InSpiro: 1
Flags: W
LayerCount: 2
Fore
SplineSet
491 1 m 1,0,-1
 324 334 l 1,1,-1
 491 509 l 1,2,-1
 350 509 l 1,3,-1
 165 296 l 1,4,-1
 165 509 l 1,5,-1
 83 509 l 1,6,-1
 50 472 l 1,7,-1
 50 0 l 1,8,-1
 165 0 l 1,9,-1
 165 154 l 1,10,-1
 238 245 l 1,11,-1
 366 1 l 1,12,-1
 491 1 l 1,0,-1
  Spiro
    491 1 v
    324 334 v
    491 509 v
    350 509 v
    165 296 v
    165 509 v
    83 509 v
    50 472 v
    50 0 v
    165 0 v
    165 154 v
    238 245 v
    366 1 v
    0 0 z
  EndSpiro
EndSplineSet
EndChar

StartChar: uni0427
Encoding: 1063 1063 354
Width: 498
InSpiro: 1
Flags: W
LayerCount: 2
Fore
SplineSet
50 640 m 1,0,-1
 50 327 l 1,1,-1
 130 247 l 1,2,-1
 332 247 l 1,3,-1
 332 0 l 1,4,-1
 448 0 l 1,5,-1
 448 640 l 1,6,-1
 332 640 l 1,7,-1
 332 529 l 1,8,-1
 332 358 l 1,9,-1
 166 358 l 1,10,-1
 166 640 l 1,11,-1
 50 640 l 1,0,-1
  Spiro
    50 640 v
    50 327 v
    130 247 v
    332 247 v
    332 0 v
    448 0 v
    448 640 v
    332 640 v
    332 529 v
    332 358 v
    166 358 v
    166 640 v
    0 0 z
  EndSpiro
EndSplineSet
EndChar

StartChar: uni0436
Encoding: 1078 1078 355
Width: 828
Flags: W
LayerCount: 2
Fore
SplineSet
50 1 m 1,0,-1
 175 1 l 1,1,-1
 303 245 l 1,2,-1
 359 165 l 1,3,-1
 359 0 l 1,4,-1
 474 0 l 1,5,-1
 474 509 l 1,6,-1
 359 509 l 1,7,-1
 359 325 l 1,8,-1
 191 509 l 1,9,-1
 50 509 l 1,10,-1
 217 334 l 1,11,-1
 50 1 l 1,0,-1
778 1 m 1,12,-1
 611 334 l 1,13,-1
 778 509 l 1,14,-1
 637 509 l 1,15,-1
 474 316 l 1,16,-1
 474 509 l 1,17,-1
 359 509 l 1,18,-1
 359 0 l 1,19,-1
 474 0 l 1,20,-1
 474 162 l 1,21,-1
 525 245 l 1,22,-1
 653 1 l 1,23,-1
 778 1 l 1,12,-1
EndSplineSet
EndChar

StartChar: uni0423
Encoding: 1059 1059 356
Width: 477
Flags: W
LayerCount: 2
Fore
SplineSet
477 640 m 1,0,-1
 345 640 l 1,1,-1
 247 397 l 1,2,-1
 135 640 l 1,3,-1
 0 640 l 1,4,-1
 181 270 l 1,5,-1
 69 0 l 1,6,-1
 201 0 l 1,7,-1
 477 640 l 1,0,-1
EndSplineSet
EndChar

StartChar: uni044C
Encoding: 1100 1100 357
Width: 458
InSpiro: 1
Flags: W
LayerCount: 2
Fore
SplineSet
336 206 m 1,0,-1
 336 111 l 1,1,-1
 166 111 l 1,2,-1
 166 206 l 1,3,-1
 336 206 l 1,0,-1
  Spiro
    336 206 v
    336 111 v
    166 111 v
    166 206 v
    0 0 z
  EndSpiro
166 317.9 m 1,4,-1
 166 509 l 1,5,-1
 50 509 l 1,6,-1
 50 80 l 1,7,-1
 130 0 l 1,8,-1
 353 0 l 1,9,-1
 433 80 l 1,10,-1
 433 238 l 1,11,-1
 353 318 l 1,12,-1
 166 317.9 l 1,4,-1
  Spiro
    166 317.9 v
    166 509 v
    50 509 v
    50 80 v
    130 0 v
    353 0 v
    433 80 v
    433 238 v
    353 318 v
    0 0 z
  EndSpiro
EndSplineSet
EndChar

StartChar: uni0438
Encoding: 1080 1080 358
Width: 458
Flags: W
LayerCount: 2
Fore
SplineSet
166 0 m 1,0,-1
 317 279 l 1,1,-1
 317 0 l 1,2,-1
 433 0 l 1,3,-1
 433 509 l 1,4,-1
 352 509 l 1,5,-1
 317 489 l 1,6,-1
 166 220 l 1,7,-1
 166 509 l 1,8,-1
 106 509 l 1,9,-1
 50 444 l 1,10,-1
 50 0 l 1,11,-1
 166 0 l 1,0,-1
EndSplineSet
EndChar

StartChar: uni0439
Encoding: 1081 1081 359
Width: 458
Flags: W
LayerCount: 2
Fore
SplineSet
187 523 m 1,0,-1
 118.9609375 612 l 1,1,-1
 119 666 l 1,2,-1
 193 666 l 1,3,-1
 231 613 l 1,4,-1
 269 613 l 1,5,-1
 307 666 l 1,6,-1
 381 666 l 1,7,-1
 381 612 l 1,8,-1
 313 523 l 1,9,-1
 187 523 l 1,0,-1
166 0 m 1,10,-1
 317 279 l 1,11,-1
 317 0 l 1,12,-1
 433 0 l 1,13,-1
 433 509 l 1,14,-1
 352 509 l 1,15,-1
 317 489 l 1,16,-1
 166 220 l 1,17,-1
 166 509 l 1,18,-1
 106 509 l 1,19,-1
 50 444 l 1,20,-1
 50 0 l 1,21,-1
 166 0 l 1,10,-1
EndSplineSet
EndChar

StartChar: uni0428
Encoding: 1064 1064 360
Width: 688
Flags: W
LayerCount: 2
Fore
SplineSet
638 640 m 1,0,-1
 638 0 l 1,1,-1
 558 0 l 1,2,-1
 399 0 l 1,3,-1
 298 0 l 1,4,-1
 298 640 l 1,5,-1
 404 640 l 1,6,-1
 404 110 l 1,7,-1
 532 110 l 1,8,-1
 532 640 l 1,9,-1
 638 640 l 1,0,-1
404 640 m 1,10,-1
 404 0 l 1,11,-1
 324 0 l 1,12,-1
 130 0 l 5,13,-1
 50 80 l 1,14,-1
 50 640 l 1,15,-1
 170 640 l 1,16,-1
 169 110 l 1,17,-1
 298 110 l 1,18,-1
 298 640 l 1,19,-1
 404 640 l 1,10,-1
EndSplineSet
EndChar

StartChar: uni0429
Encoding: 1065 1065 361
Width: 740
InSpiro: 1
Flags: W
LayerCount: 2
Fore
SplineSet
638 640 m 1,0,-1
 638 110 l 1,1,-1
 659 110 l 1,2,-1
 739 30 l 1,3,-1
 739 -110 l 1,4,-1
 638 -110 l 1,5,-1
 638 0 l 1,6,-1
 399 0 l 1,7,-1
 298 0 l 1,8,-1
 298 640 l 1,9,-1
 404 640 l 1,10,-1
 404 110 l 1,11,-1
 532 110 l 1,12,-1
 532 640 l 1,13,-1
 638 640 l 1,0,-1
  Spiro
    638 640 v
    638 110 v
    659 110 v
    739 30 v
    739 -110 v
    638 -110 v
    638 0 v
    399 0 v
    298 0 v
    298 640 v
    404 640 v
    404 110 v
    532 110 v
    532 640 v
    0 0 z
  EndSpiro
404 640 m 1,14,-1
 404 0 l 1,15,-1
 324 0 l 1,16,-1
 130 0 l 1,17,-1
 50 80 l 1,18,-1
 50 640 l 1,19,-1
 170 640 l 1,20,-1
 169 110 l 1,21,-1
 298 110 l 1,22,-1
 298 640 l 1,23,-1
 404 640 l 1,14,-1
  Spiro
    404 640 v
    404 0 v
    324 0 v
    130 0 v
    50 80 v
    50 640 v
    170 640 v
    169 110 v
    298 110 v
    298 640 v
    0 0 z
  EndSpiro
EndSplineSet
EndChar

StartChar: uni0446
Encoding: 1094 1094 362
Width: 533
Flags: W
LayerCount: 2
Fore
SplineSet
166 509 m 1,0,-1
 166 111 l 1,1,-1
 317 111 l 1,2,-1
 317 509 l 1,3,-1
 433 509 l 1,4,-1
 433 111 l 1,5,-1
 453 111 l 1,6,-1
 533 31 l 1,7,-1
 533 -109 l 1,8,-1
 433 -109 l 1,9,-1
 433 0 l 1,10,-1
 130 0 l 1,11,-1
 50 80 l 1,12,-1
 50 509 l 1,13,-1
 166 509 l 1,0,-1
EndSplineSet
EndChar

StartChar: uni044E
Encoding: 1102 1102 363
Width: 730
InSpiro: 1
Flags: W
LayerCount: 2
Fore
SplineSet
282 319 m 1,0,-1
 282 429 l 1,1,-1
 362 509 l 1,2,-1
 600 509 l 1,3,-1
 680 429 l 1,4,-1
 680 80 l 1,5,-1
 600 0 l 1,6,-1
 362 0 l 1,7,-1
 282 80 l 1,8,-1
 282 203 l 1,9,-1
 166 203 l 1,10,-1
 166 0 l 1,11,-1
 50 0 l 1,12,-1
 50 509 l 1,13,-1
 166 509 l 1,14,-1
 166 319 l 1,15,-1
 282 319 l 1,0,-1
  Spiro
    282 319 v
    282 429 v
    362 509 v
    600 509 v
    680 429 v
    680 80 v
    600 0 v
    362 0 v
    282 80 v
    282 203 v
    166 203 v
    166 0 v
    50 0 v
    50 509 v
    166 509 v
    166 319 v
    0 0 z
  EndSpiro
564 111 m 1,16,-1
 564 398 l 1,17,-1
 398 398 l 1,18,-1
 398 111 l 1,19,-1
 564 111 l 1,16,-1
  Spiro
    564 398 v
    398 398 v
    398 111 v
    564 111 v
    0 0 z
  EndSpiro
EndSplineSet
EndChar

StartChar: uni041B
Encoding: 1051 1051 364
Width: 534
InSpiro: 1
Flags: W
LayerCount: 2
Fore
SplineSet
484 0 m 1,0,-1
 484 640 l 1,1,-1
 404 640 l 1,2,-1
 156 640 l 1,3,-1
 76 560 l 1,4,-1
 76 139 l 1,5,-1
 26 89 l 1,6,-1
 0 89 l 1,7,-1
 0 0 l 1,8,-1
 116 0 l 1,9,-1
 196 80 l 1,10,-1
 195 530 l 1,11,-1
 378 530 l 1,12,-1
 378 0 l 1,13,-1
 484 0 l 1,0,-1
  Spiro
    484 0 v
    484 640 v
    404 640 v
    156 640 v
    76 560 v
    76 139 v
    26 89 v
    0 89 v
    0 0 v
    116 0 v
    196 80 v
    195 530 v
    378 530 v
    378 0 v
    0 0 z
  EndSpiro
EndSplineSet
EndChar

StartChar: uni0414
Encoding: 1044 1044 365
Width: 660
Flags: W
LayerCount: 2
Fore
SplineSet
534 130 m 5,0,-1
 534 640 l 1,1,-1
 454 640 l 1,2,-1
 206 640 l 1,3,-1
 126 560 l 1,4,-1
 126 130 l 5,5,-1
 76 80 l 5,6,-1
 50 80 l 5,7,-1
 50 -55 l 1,8,-1
 137 -55 l 1,9,-1
 192 0.0234375 l 1,10,-1
 468 0 l 1,11,-1
 523 -54.91015625 l 1,12,-1
 610 -55 l 1,13,-1
 610 80 l 5,14,-1
 584 80 l 5,15,-1
 534 130 l 5,16,-1
 246 130 l 5,17,-1
 245 530 l 1,18,-1
 428 530 l 1,19,-1
 428 130 l 5,20,-1
 534 130 l 5,0,-1
EndSplineSet
EndChar

StartChar: uni043B
Encoding: 1083 1083 366
Width: 476
InSpiro: 1
Flags: W
LayerCount: 2
Fore
SplineSet
184 55 m 1,0,-1
 184 398 l 1,1,-1
 313 398 l 1,2,-1
 313 0 l 1,3,-1
 429 0 l 1,4,-1
 429 509 l 1,5,-1
 148 509 l 1,6,-1
 68 429 l 1,7,-1
 68 110 l 1,8,-1
 29 110 l 1,9,-1
 29 0 l 1,10,-1
 129 0 l 1,11,-1
 184 55 l 1,0,-1
  Spiro
    184 55 v
    184 398 v
    313 398 v
    313 0 v
    429 0 v
    429 509 v
    148 509 v
    68 429 v
    68 110 v
    29 110 v
    29 0 v
    129 0 v
    0 0 z
  EndSpiro
EndSplineSet
EndChar

StartChar: uni044F
Encoding: 1103 1103 367
Width: 498
Flags: W
LayerCount: 2
Fore
SplineSet
130 187 m 1,0,-1
 50 267 l 1,1,-1
 50 429 l 1,2,-1
 130 509 l 1,3,-1
 448 509 l 1,4,-1
 448 0 l 1,5,-1
 332 0 l 1,6,-1
 332 187 l 1,7,-1
 259 187 l 1,8,-1
 159 0 l 1,9,-1
 30 0 l 1,10,-1
 130 187 l 1,0,-1
332 303 m 1,11,-1
 332 398 l 1,12,-1
 166 398 l 1,13,-1
 166 303 l 1,14,-1
 332 303 l 1,11,-1
EndSplineSet
EndChar

StartChar: uni043C
Encoding: 1084 1084 368
Width: 568
Flags: W
LayerCount: 2
Fore
SplineSet
518 0 m 1,0,-1
 406 0 l 1,1,-1
 405 288 l 1,2,-1
 313 106 l 1,3,-1
 255 106 l 1,4,-1
 163 288 l 1,5,-1
 163 0 l 1,6,-1
 50 0 l 1,7,-1
 50 509 l 1,8,-1
 156 509 l 1,9,-1
 284 266 l 1,10,-1
 412 509 l 1,11,-1
 518 509 l 1,12,-1
 518 0 l 1,0,-1
EndSplineSet
EndChar

StartChar: uni0437
Encoding: 1079 1079 369
Width: 443
Flags: W
LayerCount: 2
Fore
SplineSet
393 307 m 1,0,-1
 343 257 l 1,1,-1
 393 207 l 1,2,-1
 393 80 l 1,3,-1
 313 0 l 1,4,-1
 105 0 l 1,5,-1
 25 80 l 1,6,-1
 25 111 l 1,7,-1
 277 111 l 1,8,-1
 277 199 l 1,9,-1
 134 199 l 1,10,-1
 134 315 l 1,11,-1
 277 315 l 1,12,-1
 277 399 l 1,13,-1
 25 399 l 1,14,-1
 25 430 l 1,15,-1
 105 510 l 1,16,-1
 313 510 l 1,17,-1
 393 430 l 1,18,-1
 393 307 l 1,0,-1
EndSplineSet
EndChar

StartChar: uni0432
Encoding: 1074 1074 370
Width: 498
Flags: W
LayerCount: 2
Fore
SplineSet
50 0 m 1,0,-1
 50 510 l 1,1,-1
 368 510 l 1,2,-1
 448 430 l 1,3,-1
 448 307 l 1,4,-1
 398 257 l 1,5,-1
 448 207 l 1,6,-1
 448 80 l 1,7,-1
 368 0 l 1,8,-1
 50 0 l 1,0,-1
166 315 m 1,9,-1
 332 315 l 1,10,-1
 332 399 l 1,11,-1
 166 399 l 1,12,-1
 166 315 l 1,9,-1
166 111 m 1,13,-1
 332 111 l 1,14,-1
 332 199 l 1,15,-1
 166 199 l 1,16,-1
 166 111 l 1,13,-1
EndSplineSet
EndChar

StartChar: uni0447
Encoding: 1095 1095 371
Width: 496
Flags: W
LayerCount: 2
Fore
SplineSet
58 509 m 1,0,-1
 174 509 l 1,1,-1
 174 267 l 1,2,-1
 330 267 l 1,3,-1
 330 509 l 1,4,-1
 446 509 l 1,5,-1
 446 0 l 1,6,-1
 330 0 l 1,7,-1
 330 156 l 1,8,-1
 138 156 l 1,9,-1
 58 236 l 1,10,-1
 58 509 l 1,0,-1
EndSplineSet
EndChar

StartChar: uni0490
Encoding: 1168 1168 372
Width: 498
InSpiro: 1
Flags: W
LayerCount: 2
Fore
SplineSet
448 590 m 1,0,-1
 448 690 l 1,1,-1
 366 690 l 1,2,-1
 327 640 l 1,3,-1
 130 640 l 1,4,-1
 50 560 l 1,5,-1
 50 0 l 1,6,-1
 165 0 l 1,7,-1
 164 540 l 1,8,-1
 398 540 l 1,9,-1
 448 590 l 1,0,-1
  Spiro
    448 590 v
    448 690 v
    366 690 v
    327 640 v
    130 640 v
    50 560 v
    50 0 v
    165 0 v
    164 540 v
    398 540 v
    398 540 v
    0 0 z
  EndSpiro
EndSplineSet
EndChar

StartChar: uni0491
Encoding: 1169 1169 373
Width: 458
Flags: W
LayerCount: 2
Fore
SplineSet
166 0 m 1,0,-1
 166 398 l 1,1,-1
 358 398 l 1,2,-1
 433 463 l 1,3,-1
 433 575 l 1,4,-1
 383 574.86328125 l 1,5,-1
 333 539 l 1,6,-1
 333 509 l 1,7,-1
 130 509 l 1,8,-1
 50 399 l 1,9,-1
 50 0 l 1,10,-1
 166 0 l 1,0,-1
EndSplineSet
EndChar

StartChar: uni0431
Encoding: 1073 1073 374
Width: 488
Flags: W
LayerCount: 2
Fore
SplineSet
44 479 m 1,0,-1
 124 559 l 1,1,-1
 352 559 l 1,2,-1
 432 479 l 1,3,-1
 432 448 l 1,4,-1
 160 448 l 1,5,-1
 160 381 l 1,6,-1
 352 381 l 1,7,-1
 442 291 l 1,8,-1
 442 80 l 1,9,-1
 362 0 l 1,10,-1
 218 0 l 1,11,-1
 160 58 l 1,12,-1
 70 0 l 1,13,-1
 44 0 l 1,14,-1
 44 479 l 1,0,-1
160 106 m 1,15,-1
 326 106 l 1,16,-1
 326 275 l 1,17,-1
 160 275 l 1,18,-1
 160 106 l 1,15,-1
EndSplineSet
EndChar

StartChar: uni0434
Encoding: 1076 1076 375
Width: 601
Flags: W
LayerCount: 2
Fore
SplineSet
475 133 m 5,0,-1
 475 509 l 1,1,-1
 395 509 l 1,2,-1
 206 509 l 1,3,-1
 126 429 l 1,4,-1
 126 133 l 5,5,-1
 76 83 l 5,6,-1
 50 83 l 5,7,-1
 50 -55 l 1,8,-1
 137 -55 l 1,9,-1
 192 0.0234375 l 1,10,-1
 434 0 l 1,11,-1
 489 -54.91015625 l 1,12,-1
 551 -55 l 1,13,-1
 551 83 l 5,14,-1
 525 83 l 5,15,-1
 475 133 l 5,16,-1
 246 133 l 5,17,-1
 245 399 l 1,18,-1
 369 399 l 1,19,-1
 369 133 l 5,20,-1
 475 133 l 5,0,-1
EndSplineSet
EndChar
